<svg width="34" height="26" viewBox="0 0 34 26" fill="none" xmlns="http://www.w3.org/2000/svg">
<g id="Frame" clip-path="url(#clip0_20_20782)">
<g id="Group">
<path id="Vector" d="M15.1852 1.51643C15.1598 1.45366 15.1328 1.55766 15.1055 1.73662C15.1076 1.73568 15.1097 1.73381 15.1119 1.73287C15.1294 1.72163 15.1461 1.63543 15.1852 1.51643Z" fill="#FFB966"/>
<path id="Vector_2" d="M16.3613 24.4732C16.3791 24.6241 16.3945 24.7562 16.4111 24.8976C16.4397 24.7571 16.4639 24.6381 16.488 24.5191C16.4886 24.5641 16.489 24.6091 16.4897 24.654C16.5596 24.654 16.6297 24.654 16.6997 24.654C16.6999 24.6222 16.7001 24.5903 16.7001 24.5585C16.5345 24.3973 16.3687 24.2362 16.1973 24.0703C16.231 24.7262 16.2561 25.4017 16.3613 24.4732Z" fill="#FFB966"/>
<path id="Vector_3" d="M14.6895 24.2733C14.7678 24.486 14.8296 24.6547 14.9058 24.8618C14.8851 24.1928 14.8081 24.011 14.6895 24.2733Z" fill="#FFB966"/>
<path id="Vector_4" d="M15.2252 24.4629C15.1432 24.5069 15.0727 24.5444 15.002 24.5828C15.0733 24.6081 15.1677 25.294 15.2252 24.4629Z" fill="#FFB966"/>
<path id="Vector_5" d="M2.44962 23.5193C2.42625 23.4097 2.39465 23.3582 2.36607 23.3385C2.07105 23.1445 1.77581 22.96 1.48035 22.7904C1.4665 22.7819 1.45048 22.9384 1.43555 23.019C1.43879 23.0921 1.44204 23.1642 1.44529 23.2364C1.82949 23.5193 2.21369 23.8023 2.61889 24.1002C2.60114 23.8707 2.58729 23.6927 2.573 23.5062C2.51023 23.8257 2.51175 23.8098 2.44962 23.5193Z" fill="#FFB966"/>
<path id="Vector_6" d="M3.29787 0.986622C3.31865 0.70647 3.33921 0.431003 3.35307 0.246421C3.43943 0.246421 3.51303 0.246421 3.58662 0.246421C3.58532 0.163968 3.58402 0.0815158 3.58272 0C3.3745 0.0862006 3.16627 0.172401 2.92969 0.270782C3.05631 1.00161 3.22146 -0.192077 3.29787 0.986622Z" fill="#FFB966"/>
<path id="Vector_7" d="M5.00587 24.4732C5.02362 24.6241 5.03898 24.7562 5.05565 24.8976C5.08422 24.7571 5.10847 24.6381 5.13249 24.5191C5.13314 24.5641 5.13357 24.6091 5.13422 24.654C5.20414 24.654 5.27427 24.654 5.34418 24.654C5.3444 24.6222 5.3444 24.5903 5.34461 24.5585C5.17903 24.3973 5.01323 24.2362 4.8418 24.0703C4.87556 24.7262 4.90067 25.4017 5.00587 24.4732Z" fill="#FFB966"/>
<path id="Vector_8" d="M0.265783 17.3447C0.193103 17.4262 0.120422 17.5078 0.0390625 17.5986C0.0434017 17.8385 0.0473069 18.0474 0.0522969 18.3173C0.13127 18.0624 0.199828 17.8413 0.268387 17.6202C0.267736 17.5293 0.266651 17.4365 0.265783 17.3447Z" fill="#FFB966"/>
<path id="Vector_9" d="M0.735242 22.5117C0.733723 22.597 0.731987 22.6822 0.730469 22.7675C0.798377 22.9165 0.865633 23.0833 0.934409 23.1994C0.950464 23.2266 0.972377 23.0786 0.991686 23.0111C0.983441 22.9006 0.97715 22.7029 0.966736 22.6916C0.889933 22.611 0.812479 22.5679 0.735242 22.5117Z" fill="#FFB966"/>
<path id="Vector_10" d="M4.01186 0.0363174C3.95849 0.0578675 3.91336 0.0934721 3.86845 0.0897243C3.82029 0.0850394 3.77212 0.0438131 3.72396 0.0175781C3.72352 0.0944091 3.72309 0.17124 3.72266 0.248071C3.81421 0.304289 3.90599 0.361443 3.99906 0.418598C3.99993 0.387678 4.0047 0.246197 4.01186 0.0363174Z" fill="#FFB966"/>
<path id="Vector_11" d="M3.33398 24.2733C3.41231 24.486 3.47414 24.6547 3.55029 24.8618C3.52946 24.1928 3.45244 24.011 3.33398 24.2733Z" fill="#FFB966"/>
<path id="Vector_12" d="M1.35194 22.8252C1.28056 22.8252 1.20918 22.8252 1.125 22.8252C1.12587 23.3668 1.12587 23.3668 1.35194 22.8252Z" fill="#FFB966"/>
<path id="Vector_13" d="M3.86778 24.4629C3.78577 24.5069 3.71526 24.5444 3.64453 24.5828C3.71591 24.6081 3.81029 25.294 3.86778 24.4629Z" fill="#FFB966"/>
<path id="Vector_14" d="M31.5982 22.5986H31.598C31.5935 22.6286 31.5912 22.6492 31.5982 22.5986Z" fill="#FFB966"/>
<path id="Vector_15" d="M33.0642 6.5539C33.0802 6.37025 33.0986 6.16037 33.1183 5.93363C33.1291 5.96923 33.154 6.04981 33.1812 6.13976C33.1899 5.77247 33.1966 5.49138 33.1988 5.4005C33.146 5.31617 33.1047 5.28525 33.0675 5.185C32.9686 4.91796 32.894 4.09999 32.8004 4.45323C32.7054 4.11311 32.6345 3.85919 32.5516 3.56218C32.548 3.8948 32.5458 4.0775 32.5439 4.26115C32.5367 4.27239 32.5296 4.28457 32.5224 4.29582C32.5095 4.10561 32.4965 3.91635 32.4729 3.57155C32.4534 4.00067 32.4407 4.2827 32.4299 4.52256C32.373 4.45791 32.3245 4.40169 32.2692 4.33798C32.267 4.19088 32.2644 3.99224 32.2614 3.78517C32.2151 3.80766 32.1716 3.82921 32.1282 3.85076C32.1284 3.87606 32.1286 3.90229 32.1288 3.92853C32.1576 3.98662 32.1863 4.04471 32.2391 4.15059C32.1684 4.49352 32.1154 4.55348 32.0704 4.25178C32.0248 3.94633 32.031 3.92291 31.9765 4.18713C31.948 4.3258 31.914 4.41013 31.8589 4.60033C31.8764 4.26396 31.8861 4.0775 31.9019 3.77487C31.8621 3.89199 31.8318 4.0672 31.805 4.04471C31.6677 3.9304 31.5314 3.73832 31.3941 3.62589C31.1903 3.45817 30.987 2.9316 30.7811 3.58185C30.763 2.79855 30.6708 2.97283 30.61 2.9241C30.4807 2.81916 30.3399 3.03841 30.2207 2.76201C30.0834 2.44344 29.9499 2.47624 29.8135 2.4144C29.7802 2.3994 29.7471 2.3282 29.7138 2.3132C29.6521 2.28603 29.59 2.2954 29.5286 2.26073C29.5035 2.24668 29.4774 2.08552 29.4551 2.1155C29.2654 2.37223 29.0792 2.17734 28.8923 1.96465C28.8508 1.91781 28.806 1.90844 28.7651 1.96559C28.6873 2.07334 28.6111 2.3638 28.5346 2.36099C28.3747 2.35537 28.2151 2.14455 28.0553 2.13612C27.8528 2.12487 27.6502 2.29165 27.4479 2.26354C27.3219 2.24668 27.1968 2.00494 27.0692 2.20826C27.0537 2.23356 27.0331 2.03212 27.0128 2.00307C26.9851 1.96372 26.9542 1.94685 26.9273 1.99651C26.899 2.04992 26.8748 2.26261 26.8471 2.28135C26.7645 2.3385 26.6812 2.21576 26.5979 2.2092C26.484 2.20077 26.3689 2.0368 26.2508 2.06116C26.0542 2.10145 25.8574 2.02275 25.6606 2.02087C25.5896 2.01993 25.5185 2.03493 25.4475 2.0368V1.92249H20.5285C20.5052 1.60392 20.4717 1.2966 20.4442 0.982717C20.4329 1.05205 20.4219 1.12139 20.4109 1.18979C20.4383 1.33689 20.466 1.48305 20.4946 1.63578C20.4883 1.75759 20.4818 1.85128 20.4719 1.92155H19.4071C19.3744 1.85597 19.3385 1.85128 19.3026 1.84847C19.2726 1.8466 19.2423 1.89251 19.2068 1.92155H19.1116C19.0959 1.79787 19.082 1.692 19.0688 1.59549C19.0675 1.58612 19.058 1.63297 19.0474 1.67232C19.0465 1.74728 19.0457 1.82786 19.0446 1.92155H18.0382C18.0343 1.88595 18.0304 1.84847 18.0257 1.82598C18.0203 1.85409 18.0149 1.88876 18.0097 1.92155H17.8161C17.7984 1.85878 17.7815 1.79694 17.7625 1.73603C17.7501 1.83254 17.7369 1.8822 17.7235 1.92155H17.647C17.6182 1.85409 17.5888 1.74166 17.5591 1.60111C17.5427 1.74259 17.5306 1.8391 17.5194 1.92155H17.4398C17.4341 1.87658 17.4296 1.84753 17.4229 1.78663C17.4125 1.87564 17.4019 1.89907 17.3915 1.92155H17.3569C17.3279 1.84847 17.3039 1.67045 17.2964 1.69668C17.2276 1.93748 17.1917 1.73041 17.1659 1.58144C17.1287 1.68075 17.0924 1.81287 17.0565 1.92155H16.4991C16.4487 1.32002 16.4211 1.55614 16.3759 1.92155H16.229C16.2091 1.87283 16.1892 1.82411 16.1674 1.77164C16.1574 1.81099 16.1429 1.86908 16.1297 1.92155H16.0581C15.9197 1.68544 15.7921 1.78288 15.6673 1.76883C15.6623 1.76789 15.6574 1.80912 15.6485 1.84941C15.6511 1.87189 15.6541 1.89907 15.6565 1.92155H15.5784C15.5401 1.79694 15.5034 1.67794 15.4638 1.54864C15.4685 1.69293 15.4724 1.80912 15.4761 1.92155H15.0799C15.0881 1.85597 15.0965 1.79132 15.1047 1.73791C15.0011 1.8035 14.8975 1.86159 14.7939 1.92155H14.5441C14.5082 1.57488 14.4583 1.79506 14.4358 1.92155H14.0153C14.0054 1.87377 13.9969 1.83348 13.9857 1.77913C13.9846 1.8316 13.9837 1.87283 13.9829 1.92155H13.8886C13.881 1.86065 13.8717 1.78663 13.8648 1.73041C13.8594 1.79319 13.8537 1.85784 13.8481 1.92155H9.17267C9.14932 1.60299 9.11579 1.29566 9.08832 0.98178C9.07729 1.05112 9.06605 1.12045 9.05501 1.18885C9.08248 1.33595 9.11017 1.48212 9.13872 1.63484C9.13245 1.75665 9.12596 1.85034 9.11601 1.92062H8.05123C8.01857 1.85503 7.98267 1.85034 7.94677 1.84753C7.9167 1.84566 7.88642 1.89157 7.85095 1.92062H7.75579C7.74 1.79694 7.72616 1.69106 7.71296 1.59455C7.71166 1.58518 7.70215 1.63203 7.69155 1.67138C7.69068 1.74634 7.68982 1.82692 7.68852 1.92062H6.68215C6.67825 1.88501 6.67436 1.84753 6.6696 1.82505C6.66419 1.85316 6.65879 1.88782 6.6536 1.92062H6.46002C6.44228 1.85784 6.42541 1.796 6.40638 1.7351C6.39405 1.8316 6.38086 1.88126 6.36745 1.92062H6.29088C6.26212 1.85316 6.2327 1.74072 6.20307 1.60018C6.18663 1.74166 6.17452 1.83816 6.16328 1.92062H6.08368C6.07806 1.87564 6.07352 1.8466 6.06681 1.78569C6.05643 1.87471 6.04583 1.89813 6.03545 1.92062H6.00085C5.97186 1.84753 5.94785 1.66951 5.94029 1.69575C5.87151 1.93654 5.8356 1.72948 5.80986 1.5805C5.77266 1.67982 5.73633 1.81193 5.70042 1.92062H5.14327C5.09288 1.31909 5.06519 1.5552 5.01999 1.92062H4.87313C4.85323 1.87189 4.83334 1.82317 4.81149 1.7707C4.80154 1.81006 4.78705 1.86815 4.77386 1.92062H4.70227C4.56384 1.6845 4.43623 1.78195 4.31144 1.76789C4.30646 1.76695 4.30149 1.80818 4.29262 1.84847C4.30538 1.96278 4.31663 2.06491 4.34496 2.31883C4.25347 2.02087 4.18686 1.80443 4.10813 1.54864C4.11786 1.84472 4.12392 2.03024 4.13235 2.28228C4.09364 2.28228 4.04368 2.34506 4.03935 2.27198C4.00345 1.67513 3.95413 2.02649 3.92256 2.12113C3.88752 1.77539 3.85681 1.47462 3.81485 1.06142H4.74358C4.75612 0.600436 4.71697 0.606058 4.66853 0.621049C4.46846 0.681952 4.26796 0.779396 4.0679 0.754098C3.93899 0.73817 3.80209 1.1064 3.6801 0.491748C3.67577 0.469261 3.65955 0.562021 3.64874 0.601373C3.62473 0.691321 3.60072 0.78127 3.57282 0.88621C3.65371 1.08485 3.73158 1.27505 3.82999 1.51679C3.79041 1.63578 3.77354 1.72198 3.7558 1.73322C3.59013 1.8391 3.42423 1.93373 3.25834 2.02743C3.23844 2.03867 3.20406 2.06959 3.20016 2.01338C3.16188 1.43808 3.09288 1.84472 3.0732 1.95903C2.97155 2.54838 2.85475 2.18297 2.74726 2.31133C2.73428 2.32726 2.71741 2.19889 2.70292 2.13143C2.68 2.02556 2.65772 1.91406 2.62982 1.78007C2.62398 2.06585 2.62073 2.22607 2.61381 2.57087C2.56926 2.21389 2.53876 1.96934 2.50891 1.73041C2.48923 1.95903 2.4689 2.19234 2.44879 2.4247C2.45636 2.45094 2.46912 2.49497 2.4968 2.59054C2.44208 2.63833 2.40639 2.66831 2.37071 2.69923C2.36854 2.54276 2.3666 2.41533 2.36487 2.28697C2.33697 2.31883 2.29111 2.28884 2.28376 2.39191C2.22644 3.21081 2.09927 2.92036 2.02032 3.0253C1.84989 3.2511 1.66713 3.00562 1.48934 2.9747C1.47053 2.97095 1.45193 3.12368 1.43203 3.17989C1.38163 3.32231 1.33167 3.49097 1.27911 3.55562C1.26679 3.57061 1.24537 3.21363 1.22612 3.00468C1.10608 2.97564 0.996428 3.1977 0.927 4.25178C0.910995 3.82921 0.904507 3.65681 0.897369 3.46754C0.806313 3.46754 0.714391 3.46848 0.622686 3.46754C0.563424 3.4666 0.49962 3.38134 0.483398 3.98756C0.481019 4.07938 0.447495 4.18244 0.427813 4.189C0.303232 4.22836 0.204174 4.93201 0.19855 5.88959C0.312533 5.68721 0.324212 5.97673 0.259326 6.6073C0.290904 6.63354 0.317724 6.65509 0.378716 6.70475C0.241807 7.21258 0.0813234 7.32877 0.100357 8.62271C0.121769 8.53651 0.142965 8.45218 0.186655 8.27603C0.179301 8.79792 0.173894 9.17833 0.167838 9.61402C0.176273 9.72926 0.208716 9.97006 0.205039 10.1799C0.201362 10.3842 0.1607 10.5557 0.138207 10.7271C0.195739 10.8377 0.233156 10.9098 0.270573 10.982C0.267329 11.0691 0.264085 11.1563 0.260624 11.2434C0.197469 11.205 0.134097 11.1675 0.0709417 11.1291C0.0683463 11.1797 0.0655346 11.2293 0.0629391 11.2799C0.115497 11.5104 0.168054 11.7409 0.222125 11.978C0.0886771 12.3303 0.0869468 12.3565 0.155077 13.0189C0.0458526 13.0545 0.0458526 13.0545 0.0731046 14.2792C0.109873 14.4862 0.135395 14.6305 0.1607 14.7729C0.135827 14.8029 0.110955 14.8329 0.0888934 14.8601C0.0994914 15.2498 0.102303 15.5497 0.116794 15.8186C0.126311 15.9938 0.152265 16.1268 0.171947 16.2721C0.192927 16.4276 0.214988 16.5747 0.236616 16.7265C0.243754 16.6712 0.250675 16.6159 0.257812 16.5607C0.243538 16.3817 0.229046 16.2018 0.211744 15.9872C0.62074 16.0247 0.628959 16.0378 0.691033 16.8352C0.59803 16.9055 0.513462 16.9692 0.428246 17.0329C0.437762 17.1594 0.446414 17.2718 0.454849 17.3842C0.425218 17.4526 0.400561 17.5098 0.376121 17.567C0.377202 17.6063 0.378284 17.6447 0.379365 17.6841C0.521032 17.849 0.662699 18.013 0.804366 18.1779C0.806313 18.1151 0.808259 18.0532 0.810206 17.9905C0.776465 17.9221 0.742725 17.8527 0.708984 17.7843C0.710498 17.7028 0.712229 17.6222 0.713959 17.5407C0.97415 17.744 1.23434 17.9474 1.46447 18.1263C1.48653 17.8424 1.49648 17.6204 1.50448 17.6241C1.59792 17.6607 1.69114 17.7328 1.78436 17.7946C1.78414 17.8499 1.78392 17.9052 1.78371 17.9595C1.75451 17.998 1.72509 18.0354 1.7013 18.0664C1.70801 18.1975 1.71471 18.3287 1.72055 18.444H0.00346057C0.00237914 18.5461 0.00129771 18.6482 0 18.7503C0.105764 18.8853 0.211527 19.0211 0.275115 19.1017C0.25911 19.2853 0.240726 19.4952 0.221044 19.722C0.21023 19.6864 0.185357 19.6058 0.158105 19.5158C0.149453 19.8831 0.142749 20.1642 0.140586 20.2551C0.193359 20.3394 0.23467 20.3703 0.271871 20.4706C0.370714 20.7376 0.445332 21.5556 0.538984 21.2024C0.633933 21.5425 0.704875 21.7964 0.787712 22.0934C0.791389 21.7608 0.793552 21.5781 0.795499 21.3944C0.802636 21.3832 0.809773 21.371 0.816911 21.3598C0.829888 21.55 0.842865 21.7393 0.86644 22.0841C0.885906 21.6549 0.898667 21.3729 0.909481 21.133C0.966364 21.1977 1.01481 21.2539 1.07018 21.3176C1.07234 21.4647 1.07494 21.6634 1.07797 21.8704C1.12425 21.8479 1.16773 21.8264 1.2112 21.8048C1.21098 21.7795 1.21077 21.7533 1.21055 21.7271C1.18178 21.669 1.15302 21.6109 1.10024 21.505C1.17097 21.1621 1.22396 21.1021 1.26895 21.4038C1.31458 21.7093 1.30831 21.7327 1.36282 21.4685C1.39137 21.3298 1.42532 21.2455 1.48048 21.0553C1.46296 21.3926 1.45322 21.5781 1.43743 21.8807C1.47723 21.7636 1.50751 21.5884 1.53433 21.6109C1.67167 21.7252 1.80793 21.9173 1.94527 22.0297C2.14901 22.1974 2.35232 22.724 2.55823 22.0737C2.57639 22.857 2.66853 22.6828 2.72931 22.7315C2.85865 22.8364 2.99945 22.6172 3.11862 22.8936C3.25596 23.2122 3.38941 23.1794 3.52589 23.2412C3.5592 23.2562 3.59229 23.3274 3.6256 23.3424C3.68724 23.3696 3.74931 23.3602 3.81074 23.3949C3.83583 23.4089 3.862 23.5701 3.88427 23.5401C4.07396 23.2834 4.26018 23.4783 4.44705 23.6909C4.48858 23.7378 4.53335 23.7472 4.57422 23.69C4.58439 23.676 4.59477 23.6525 4.60494 23.6329H6.3216C6.32333 23.6375 6.32484 23.6507 6.32635 23.6525C6.35404 23.6919 6.38497 23.7087 6.41179 23.6591C6.41417 23.6544 6.41633 23.6394 6.41849 23.6329H7.66819C7.67165 23.6329 7.67511 23.6338 7.67857 23.6338C7.6842 23.6338 7.6896 23.6329 7.69501 23.6329H8.97023C8.9711 23.6385 8.97239 23.6441 8.97326 23.6497C8.97845 23.6441 8.98213 23.6385 8.9871 23.6329H13.334C13.5429 23.7865 13.7545 23.943 13.9723 24.1032C13.9582 23.9214 13.9474 23.78 13.9359 23.6329H15.7484C15.7666 23.6525 15.7845 23.6703 15.8027 23.6909C15.8442 23.7378 15.889 23.7472 15.9299 23.69C15.94 23.676 15.9504 23.6525 15.9606 23.6329H17.6772C17.679 23.6375 17.6805 23.6507 17.682 23.6525C17.7097 23.6919 17.7406 23.7087 17.7674 23.6591C17.7698 23.6544 17.772 23.6394 17.7741 23.6329H19.0238C19.0273 23.6329 19.0308 23.6338 19.0342 23.6338C19.0398 23.6338 19.0452 23.6329 19.0507 23.6329H20.3259C20.3267 23.6385 20.328 23.6441 20.3289 23.6497C20.3341 23.6441 20.3378 23.6385 20.3427 23.6329H24.1593C24.1812 23.9898 24.2201 24.3253 24.2504 24.6719C24.2614 24.6026 24.2727 24.5333 24.2837 24.4649C24.2562 24.3178 24.2285 24.1716 24.2 24.0189C24.2106 23.8128 24.2253 23.7003 24.2517 23.6338H24.4658C24.4706 23.6366 24.4727 23.6366 24.4777 23.6404C24.4779 23.6385 24.4781 23.6357 24.4781 23.6338H24.7368C24.7381 23.6469 24.7403 23.6694 24.7411 23.6778C24.7444 23.6591 24.7457 23.6516 24.7485 23.6338H25.255C25.295 23.7931 25.3433 23.8024 25.3915 23.8053C25.422 23.8071 25.4523 23.7603 25.4886 23.7322C25.5055 23.6207 25.5306 23.453 25.5392 23.3949C25.5795 23.7087 25.6019 23.8877 25.6253 24.0592C25.6266 24.0685 25.6361 24.0217 25.6467 23.9823C25.6484 23.8259 25.6506 23.6497 25.6541 23.3639C25.7278 23.4061 25.7979 23.4605 25.8682 23.4829C25.9309 23.5026 25.9939 23.4942 26.0566 23.4858C26.1111 23.4783 26.1658 23.4239 26.2203 23.4417C26.3295 23.4764 26.4532 23.7959 26.5437 23.5335C26.6371 23.2628 26.6408 23.7003 26.6687 23.8296C26.7015 23.6572 26.7349 23.3555 26.7576 23.3902C26.8155 23.4773 26.8687 23.7162 26.9319 23.9196C26.9911 23.4548 27.0636 23.7134 27.135 24.0545C27.2111 23.4024 27.218 23.393 27.2712 23.869C27.3257 23.4005 27.3848 24.0039 27.3978 23.9589C27.4665 23.7181 27.5025 23.9252 27.5282 24.0742C27.5996 23.884 27.6679 23.5626 27.7371 23.5504C27.8392 23.5326 27.9387 23.6375 28.0414 23.4033C28.0845 23.3049 28.1727 23.4679 28.1918 23.705C28.2456 24.3731 28.2729 24.1004 28.3209 23.7144C28.3356 23.5954 28.3786 23.6497 28.4171 23.6169C28.4561 23.7116 28.4881 23.7893 28.5268 23.884C28.543 23.8193 28.5759 23.6891 28.5854 23.6507C28.7441 24.0217 28.8869 23.8708 29.0268 23.8868C29.0318 23.8877 29.0368 23.8465 29.0456 23.8062C29.0329 23.6919 29.0216 23.5898 28.9933 23.3358C29.0848 23.6338 29.1514 23.8502 29.2301 24.106C29.2204 23.8099 29.2143 23.6244 29.2059 23.3724C29.2446 23.3724 29.2946 23.3096 29.2989 23.3827C29.3348 23.9795 29.3841 23.6282 29.4157 23.5335C29.4508 23.8793 29.4815 24.18 29.5234 24.5932H28.5947C28.5821 25.0542 28.6213 25.0486 28.6697 25.0336C28.8698 24.9727 29.0703 24.8753 29.2704 24.9006C29.3993 24.9165 29.5362 24.5483 29.6582 25.1629C29.6625 25.1854 29.6787 25.0926 29.6895 25.0533C29.7135 24.9633 29.7375 24.8734 29.7654 24.7685C29.6846 24.5698 29.6067 24.3796 29.5083 24.1379C29.5479 24.0189 29.5647 23.9327 29.5825 23.9214C29.7481 23.8156 29.914 23.7209 30.0799 23.6272C30.0998 23.616 30.1342 23.5851 30.1381 23.6413C30.1764 24.2166 30.2454 23.8099 30.2651 23.6956C30.3667 23.1063 30.4835 23.4717 30.591 23.3433C30.604 23.3274 30.6209 23.4558 30.6353 23.5232C30.6583 23.6291 30.6806 23.7406 30.7085 23.8746C30.7143 23.5888 30.7175 23.4286 30.7245 23.0838C30.769 23.4408 30.7995 23.6853 30.8294 23.9242C30.849 23.6956 30.8694 23.4623 30.8895 23.23C30.8819 23.2037 30.8692 23.1597 30.8415 23.0641C30.8962 23.0163 30.9319 22.9854 30.9676 22.9554C30.9697 23.111 30.9717 23.2393 30.9734 23.3677C31.0013 23.3358 31.0472 23.3658 31.0545 23.2628C31.1118 22.4438 31.239 22.7343 31.3179 22.6294C31.4884 22.4036 31.6711 22.649 31.8489 22.68C31.8677 22.6837 31.8863 22.531 31.9062 22.4748C31.9566 22.3323 32.0066 22.1637 32.0592 22.099C32.0715 22.0841 32.0929 22.441 32.1121 22.65C32.2322 22.679 32.3421 22.457 32.4113 21.4029C32.4273 21.8255 32.4338 21.9979 32.4409 22.1871C32.532 22.1871 32.6239 22.1862 32.7156 22.1871C32.7748 22.1881 32.8386 22.2733 32.8549 21.6671C32.8573 21.5753 32.8908 21.4722 32.9105 21.4657C33.035 21.4263 33.1341 20.7226 33.1397 19.7651C33.0257 19.9675 33.0141 19.6779 33.0789 19.0474C33.0474 19.0211 33.0205 18.9996 32.9596 18.9499C33.0965 18.4421 33.2569 18.3259 33.2379 17.032C33.2165 17.1182 33.1953 17.2025 33.1516 17.3786C33.159 16.8567 33.1644 16.4763 33.1704 16.0406C33.162 15.9254 33.1296 15.6846 33.1332 15.4747C33.1369 15.2705 33.1776 15.099 33.2001 14.9275C33.1425 14.817 33.1051 14.7448 33.0677 14.6727C33.0709 14.5855 33.0742 14.4984 33.0776 14.4113C33.1408 14.4497 33.2042 14.4872 33.2673 14.5256C33.2699 14.475 33.2727 14.4253 33.2753 14.3747C33.2228 14.1442 33.1702 13.9137 33.1161 13.6767C33.2496 13.3244 33.2511 13.2982 33.1832 12.6357C33.2924 12.6001 33.2924 12.6001 33.2652 11.3755C33.2284 11.1684 33.2029 11.0241 33.1776 10.8817C33.2024 10.8517 33.2273 10.8218 33.2494 10.7946C33.2388 10.4048 33.236 10.105 33.2215 9.83608C33.212 9.66086 33.186 9.52782 33.1663 9.38259C33.1453 9.22705 33.1233 9.07995 33.1017 8.92816C33.0945 8.98344 33.0876 9.03872 33.0805 9.094C33.0947 9.27296 33.1092 9.45286 33.1265 9.66742C32.7175 9.62995 32.7093 9.61683 32.6472 8.81947C32.7402 8.7492 32.8248 8.68549 32.91 8.62177C32.9005 8.49528 32.8919 8.38285 32.8834 8.27041C32.9131 8.20201 32.9377 8.14486 32.9621 8.08771C32.9611 8.04835 32.96 8.00994 32.9589 7.97058C32.8172 7.80568 32.6756 7.64171 32.5339 7.47681C32.532 7.53958 32.53 7.60142 32.5281 7.6642C32.5618 7.7326 32.5955 7.80193 32.6293 7.87033C32.6278 7.95185 32.626 8.03242 32.6243 8.11394C32.3641 7.91062 32.1039 7.7073 31.8738 7.52834C31.8517 7.81224 31.8418 8.0343 31.8338 8.03055C31.7404 7.99401 31.6471 7.92186 31.5539 7.86002C31.5541 7.80474 31.5543 7.74946 31.5546 7.69512C31.5838 7.6567 31.6132 7.61922 31.637 7.5883C31.6303 7.45713 31.6236 7.32595 31.6177 7.21071H33.3355C33.3365 7.10858 33.3376 7.00645 33.3387 6.90432C33.2336 6.77127 33.1278 6.63541 33.0642 6.5539ZM13.828 23.6338H13.9011C13.8719 23.7687 13.8572 23.764 13.828 23.6338Z" fill="#FFB966"/>
<path id="Vector_16" d="M30.8919 2.12291C30.9153 2.23253 30.9469 2.28407 30.9755 2.30374C31.2705 2.49676 31.5657 2.68228 31.8612 2.85187C31.875 2.85936 31.8911 2.70383 31.906 2.62325C31.9028 2.55016 31.8995 2.47802 31.8963 2.40587C31.5121 2.12291 31.1279 1.83995 30.7227 1.54199C30.7404 1.77155 30.7543 1.94957 30.7685 2.13603C30.8313 1.81652 30.8298 1.83245 30.8919 2.12291Z" fill="#FFB966"/>
<path id="Vector_17" d="M30.0407 24.6631C30.0199 24.9432 29.9994 25.2187 29.9855 25.4033C29.8991 25.4033 29.8255 25.4033 29.752 25.4033C29.7533 25.4857 29.7546 25.5673 29.7559 25.6497C29.9641 25.5635 30.1723 25.4773 30.4089 25.3789C30.2823 24.6481 30.1171 25.8418 30.0407 24.6631Z" fill="#FFB966"/>
<path id="Vector_18" d="M28.3348 1.17016C28.3171 1.01931 28.3017 0.887198 28.2851 0.745716C28.2565 0.886261 28.2322 1.00526 28.2082 1.12425C28.2076 1.07928 28.2071 1.0343 28.2065 0.989327C28.1366 0.989327 28.0664 0.989327 27.9965 0.989327C27.9963 1.02118 27.9961 1.05304 27.9961 1.0849C28.1617 1.24605 28.3275 1.40628 28.4989 1.57305C28.4651 0.916244 28.44 0.241631 28.3348 1.17016Z" fill="#FFB966"/>
<path id="Vector_19" d="M33.0749 8.30753C33.1475 8.22601 33.2202 8.1445 33.3016 8.05361C33.2972 7.81375 33.2933 7.60387 33.2884 7.33496C33.2094 7.58981 33.1408 7.81094 33.0723 8.03206C33.0729 8.12388 33.074 8.21571 33.0749 8.30753Z" fill="#FFB966"/>
<path id="Vector_20" d="M32.6061 3.13926C32.6076 3.054 32.6093 2.96874 32.6108 2.88347C32.5429 2.7345 32.4757 2.56772 32.4069 2.45153C32.3908 2.42436 32.3689 2.5724 32.3496 2.63986C32.3579 2.75042 32.3641 2.94812 32.3746 2.95937C32.4511 3.03995 32.5286 3.08398 32.6061 3.13926Z" fill="#FFB966"/>
<path id="Vector_21" d="M29.3301 25.6118C29.3834 25.5902 29.4286 25.5546 29.4735 25.5584C29.5217 25.5631 29.5698 25.6043 29.618 25.6305C29.6184 25.5537 29.6188 25.4769 29.6193 25.4C29.5277 25.3438 29.436 25.2866 29.3429 25.2295C29.342 25.2595 29.3372 25.401 29.3301 25.6118Z" fill="#FFB966"/>
<path id="Vector_22" d="M30.0073 1.37259C29.929 1.1599 29.8674 0.991248 29.791 0.78418C29.8118 1.45317 29.8886 1.63494 30.0073 1.37259Z" fill="#FFB966"/>
<path id="Vector_23" d="M31.9883 2.82805C32.0597 2.82805 32.131 2.82805 32.2152 2.82805C32.2144 2.28648 32.2144 2.28648 31.9883 2.82805Z" fill="#FFB966"/>
<path id="Vector_24" d="M29.4707 1.18482C29.5527 1.14078 29.6232 1.1033 29.694 1.06489C29.6226 1.03959 29.5284 0.354671 29.4707 1.18482Z" fill="#FFB966"/>
</g>
</g>
<defs>
<clipPath id="clip0_20_20782">
<rect width="33.3394" height="25.6475" fill="white"/>
</clipPath>
</defs>
</svg>
