<svg width="80" height="82" viewBox="0 0 80 82" fill="none" xmlns="http://www.w3.org/2000/svg">
<path d="M61.2179 1.51356C65.2908 6.24606 70.4169 9.53833 74.4421 14.2761C75.1248 15.0792 77.844 17.0138 78.0201 18.2311M78.0201 18.2311C78.2479 19.8118 74.9797 21.5804 74.2264 22.0188C70.4285 24.229 63.7772 28.0104 59.4432 29.8746M78.0201 18.2311C62.9849 13.7579 39.4516 22.7049 36.8241 39.4762M36.8241 39.4762C36.1284 43.9164 36.8981 48.905 39.6788 54.3382C44.9367 64.6108 55.7634 54.7307 51.1272 45.135C48.567 39.8374 42.1197 38.926 36.8241 39.4762ZM36.8241 39.4762C35.3031 39.6342 33.8771 39.9128 32.6654 40.2426C17.6437 44.3323 4.52178 62.4853 1.89089 80.3834" stroke="#978D7B" stroke-opacity="0.15" stroke-width="2" stroke-miterlimit="1.5" stroke-linecap="round" stroke-linejoin="round"/>
</svg>
