<svg width="36" height="37" viewBox="0 0 36 37" fill="none" xmlns="http://www.w3.org/2000/svg">
<g id="Group">
<path id="Vector" d="M17.9591 0.959961C8.11906 0.959961 0.0390625 9.03996 0.0390625 18.88C0.0390625 28.8 8.11906 36.8 17.9591 36.8C27.7991 36.8 35.8791 28.8 35.8791 18.88C35.8791 9.03996 27.7991 0.959961 17.9591 0.959961ZM17.9591 34C9.59906 34 2.83906 27.2 2.83906 18.88C2.83906 10.56 9.63906 3.75996 17.9591 3.75996C26.2791 3.75996 33.0791 10.56 33.0791 18.88C33.0791 27.2 26.2791 34 17.9591 34Z" fill="white"/>
<path id="Vector_2" d="M16.1581 21.3995L18.6781 29.0795L24.2781 10.5195L8.07812 21.1595L16.1581 21.3995Z" fill="white"/>
</g>
</svg>
