<svg width="257" height="299" viewBox="0 0 257 299" fill="none" xmlns="http://www.w3.org/2000/svg">
<g opacity="0.1" clip-path="url(#clip0_20_22498)">
<path d="M37.7632 94.7612C37.7632 94.7612 31.7381 73.9769 29.6092 70.2826C27.4803 66.5883 23.2241 65.403 23.2241 65.403C23.2241 65.403 2.28673 18.2203 0.609547 15.8736C-0.938685 13.4688 -6.00184 8.76941 -12.5338 9.07425C-19.1013 9.4726 -20.3033 11.7975 -20.077 14.0221C-19.8507 16.2467 -15.0845 79.0095 -15.0845 79.0095L-17.7592 84.0915C-17.7592 84.0915 -57.6955 87.8842 -61.2834 89.7326C-64.8714 91.581 -59.7019 95.9999 -54.7135 98.6391C-49.6315 101.314 -27.9941 102.349 -23.419 102.693C-18.9373 103.001 -10.5322 102.551 -10.5322 102.551C-10.5322 102.551 13.4203 127.67 22.0602 137.04C30.6067 146.375 44.2381 157.53 44.2381 157.53L-25.9129 179.815L-56.5585 190.979C-56.5585 190.979 -57.4578 203.792 -40.5394 208.813C-23.5275 213.871 20.732 208.829 20.732 208.829C20.732 208.829 16.3835 223.971 27.1417 233.395C37.8065 242.784 45.2872 245.619 48.2727 245.361C51.2582 245.102 57.119 242.618 59.578 238.951C62.037 235.285 63.5827 228.385 63.0563 224.977C62.5298 221.569 61.5486 217.668 59.3783 215.776C57.2079 213.884 52.9607 210.136 52.9607 210.136L54.0978 206.289L66.7041 206.041C66.7041 206.041 59.6784 216.959 68.5605 227.384C77.4071 237.902 90.2858 243.425 90.2858 243.425C90.2858 243.425 99.004 243.841 103.361 236.296C107.66 228.621 107.267 220.345 106.106 217.766C104.945 215.187 101.152 211.932 99.2142 210.555C97.3116 209.086 97.3116 209.086 97.3116 209.086L97.4721 206.687C97.4721 206.687 118.355 206.046 119.538 205.746C120.721 205.446 140.39 213.649 143.021 214.325C145.653 215.002 171.028 221.411 177.415 222.334C183.767 223.352 206.54 224.496 213.063 216.596C219.587 208.695 223.564 192.557 200.498 165.1C185.975 147.832 167.701 138.768 167.701 138.768C167.701 138.768 171.239 107.705 166.479 103.335C161.719 98.9642 154.83 101.059 147.006 105.9C139.089 110.706 124.776 120.253 124.776 120.253L37.7632 94.7612Z" fill="white"/>
<path d="M214.03 191.189C214.03 191.189 214.03 191.189 206.699 195.576C199.369 199.963 196.782 206.789 196.782 206.789C196.782 206.789 160.024 198.526 109.85 174.59C66.2318 153.674 12.8804 111.317 -0.109307 100.726C-0.344578 101.065 -0.637918 101.275 -1.08284 101.32C-3.17847 101.488 -5.27411 101.656 -7.3215 101.415C-8.21133 101.506 -9.06573 101.503 -9.95557 101.593C-6.48207 105.69 0.710008 114.084 5.68648 120.141C10.7565 126.233 29.6999 144.534 44.5666 157.227C60.2075 159.412 74.2505 166.659 88.519 173.029C100.427 178.291 112.216 184.149 121.83 192.926C125.428 194.718 131.917 200.171 127.317 203.561C126.272 204.342 125.054 204.735 123.59 204.929C140.487 212.83 158.008 219.364 172.924 221.488C213.681 227.096 215.735 215.47 218.6 209.604C221.371 203.703 214.03 191.189 214.03 191.189Z" fill="#EBF0F4"/>
<path d="M63.0299 225.609C62.4424 222.926 60.7396 221.211 58.705 220.654C56.0099 221.558 53.1632 222.297 51.4228 224.632C51.2682 225.322 51.1717 226.141 51.4975 226.692C51.9749 227.407 53.2486 227.997 53.8903 228.561C54.1354 228.761 54.287 228.925 54.4966 229.219C54.7191 229.196 54.8126 229.231 54.9415 229.173C54.8707 229.36 54.8933 229.583 54.8579 229.676C55.5449 230.685 55.8805 231.775 55.3262 232.955C53.7925 236.438 49.7716 234.914 47.3207 232.915C47.0628 233.032 46.7695 233.241 46.4761 233.451C46.0833 235.334 45.7485 237.346 45.6136 239.113C45.5367 241.009 45.953 242.45 46.7207 243.81C47.4915 244.316 48.4265 244.67 49.5615 244.78C53.6691 244.946 57.7916 240.841 59.851 237.664C62.2263 234.501 63.8467 229.661 63.0299 225.609Z" fill="#BFD2DE"/>
<path d="M92.5206 243.736C102.154 243.43 106.059 234.537 107.634 226.151C107.685 224.887 107.514 223.645 106.991 222.485C105.446 219.226 102.228 218.969 99.2299 219.543C97.2376 220.286 95.2778 221.788 94.2175 223.739C96.2521 224.297 98.0484 226.047 98.9549 227.888C98.9549 227.888 98.9549 227.888 98.9195 227.981C99.9067 230.173 99.6526 232.537 96.7833 233.053C94.9327 233.421 93.3913 232.409 92.7171 231.084C90.5378 231.756 89.8132 234.796 89.6654 236.879C89.4114 239.242 90.2341 241.586 91.3148 243.814C91.5018 243.884 91.5954 243.92 91.7824 243.991C92.0403 243.875 92.2047 243.723 92.5206 243.736Z" fill="#BFD2DE"/>
<path d="M60.2492 160.711C36.6567 143.107 14.8272 123.391 -5.21657 101.785C-5.84851 101.759 -6.60939 101.792 -7.24133 101.766C-8.00222 101.798 -8.82117 101.702 -9.67557 101.699C-10.3075 101.673 -10.9394 101.648 -11.6649 101.587C-11.7584 101.551 -11.8873 101.609 -11.9809 101.574C-8.32034 105.742 -5.08211 110.177 -1.38616 114.251C-1.19914 114.322 -1.01212 114.393 -0.8251 114.464C4.59545 117.374 8.06596 122.325 11.7008 127.125C13.2423 128.137 14.6193 129.301 15.8673 130.522C19.8823 133.755 23.2396 137.594 26.7259 141.375C27.2417 141.143 27.9672 141.204 28.3865 141.79C28.8412 142.284 29.2024 142.741 29.6572 143.234C30.6375 144.034 31.5824 144.927 32.4919 145.913C33.0401 146.442 32.8856 147.132 32.5794 147.657C33.8629 148.785 35.2754 149.855 36.5235 151.077C37.807 152.205 39.0196 153.52 40.2096 154.613C41.564 155.554 43.0119 156.53 44.3663 157.471C44.4598 157.507 44.5533 157.542 44.5887 157.449C45.2787 157.603 46.0268 157.887 46.6814 158.135C47.3714 158.29 47.9324 158.502 48.6224 158.657C48.9158 158.447 49.3253 158.495 49.7347 158.544C53.4653 159.423 57.5827 160.128 61.2167 161.826C60.949 161.404 60.6459 161.075 60.2492 160.711Z" fill="#D9E4EB"/>
<path d="M129.92 208.825C134.619 210.819 139.471 212.124 144.347 213.651C153.817 216.598 162.922 219.942 172.737 221.416C179.627 222.424 186.543 222.799 193.485 222.542C197.302 222.064 201.177 221.715 205.053 221.366C205.181 221.308 205.275 221.343 205.497 221.32C206.436 220.82 207.374 220.32 208.312 219.82C208.383 219.633 208.547 219.482 208.676 219.424C210.694 218.05 212.828 216.934 214.788 215.431C216.116 213.902 217.257 212.302 218.339 210.574C218.352 210.258 218.401 209.849 218.413 209.533C204.988 219.844 187.374 219.478 171.478 216.555C156.553 213.892 142.14 208.75 128.693 201.622C128.258 202.206 127.601 202.812 126.885 203.29C126.756 203.348 126.721 203.441 126.592 203.499C125.032 204.512 123.168 205.196 121.505 205.635C124.381 206.511 127.151 207.668 129.92 208.825Z" fill="#D9E4EB"/>
<path d="M54.298 206.044C54.0756 206.067 53.8886 205.996 53.6661 206.018C45.5256 207.745 37.2042 207.693 28.857 208.272C28.5411 208.26 28.3186 208.282 28.0735 208.082C26.1295 208.415 24.1628 208.525 22.2315 208.542C21.0522 211.089 19.9309 213.765 19.4416 216.467C19.4996 216.596 19.5577 216.725 19.5803 216.948C19.7417 217.651 19.9031 218.353 20.0291 219.15C20.7229 221.551 21.7456 223.65 22.7327 225.842C22.9936 224.872 23.2545 223.901 23.7379 222.908C27.0052 215.698 34.3455 211.85 41.8736 211.174C43.228 212.115 44.6887 212.775 46.2912 213.062C47.9359 214.648 50.8377 214.892 52.3783 212.802C52.9129 210.545 53.541 208.324 54.298 206.044Z" fill="#D9E4EB"/>
<path d="M97.9784 205.916C87.7385 205.564 77.4985 205.212 67.233 205.492C63.3111 212.454 63.2389 219.699 67.9673 226.41C69.8187 229.144 72.3985 231.084 74.8848 232.989C72.8878 228.382 72.1449 223.288 74.1748 218.497C76.2047 213.705 80.1923 211.366 84.7833 210.54C85.1121 210.237 85.557 210.191 86.06 210.275C88.317 210.81 90.5032 211.531 92.7248 212.159C93.6018 212.385 94.4434 212.704 95.2269 212.894C95.3558 212.836 95.4848 212.778 95.6137 212.72C96.4643 210.475 97.2213 208.196 97.9784 205.916Z" fill="#D9E4EB"/>
<path d="M36.2673 87.1361C35.5252 85.1438 34.6542 83.2096 34.0056 81.2527C32.0825 75.6046 30.1239 70.0499 25.4092 66.1242C25.2576 65.9598 25.106 65.7954 24.9545 65.631C24.5096 65.6763 24.0646 65.7215 23.4908 65.8249C23.0104 65.9636 22.7299 65.8573 22.3913 65.6221C21.9109 65.7608 21.5595 65.8415 21.1146 65.8868C26.2917 74.8001 29.8634 84.2813 33.3642 93.9495C34.1644 96.0708 36.1054 96.5925 37.8044 96.0601C37.1008 93.1199 36.6196 90.1571 36.2673 87.1361Z" fill="#EBF0F4"/>
<path d="M1.49947 102.405C23.8447 121.889 48.1529 139.015 73.4858 154.284C98.5381 169.447 124.802 182.823 151.846 194.142C159.408 197.329 167.098 200.458 175.107 202.745C182.146 204.771 189.327 206.423 196.568 207.349C197.387 207.446 197.403 206.275 196.713 206.121C190.187 204.717 183.684 203.535 177.264 201.851C170.377 199.989 163.551 197.402 156.982 194.699C143.436 189.244 130.009 183.193 116.982 176.651C90.6116 163.556 65.3722 148.322 41.2738 131.489C27.8234 122.113 14.7727 112.248 2.08615 101.986C1.56053 101.68 1.16087 102.17 1.49947 102.405Z" fill="#00497B"/>
<path d="M216.686 194.335C211.644 196.915 207.557 200.927 204.58 205.68C203.12 208.121 201.94 210.669 201.135 213.358C200.401 215.86 199.711 218.807 200.334 221.396C200.38 221.841 200.953 221.738 201.095 221.363C201.643 218.79 201.781 216.169 202.515 213.667C203.285 211.071 204.429 208.618 205.818 206.364C208.596 201.855 212.554 197.902 217.186 195.273C217.644 194.911 217.296 194.138 216.686 194.335Z" fill="#00497B"/>
<path d="M-17.5728 84.1623C-19.0237 84.0402 -20.4874 84.234 -21.9157 84.3344C-24.9947 84.5577 -28.1091 84.8745 -31.13 85.2267C-39.1031 85.9479 -47.0535 86.8915 -54.9459 87.964C-56.6321 88.1805 -58.4472 88.455 -60.1688 88.765C-61.3165 88.9717 -62.9092 89.2236 -63.8827 89.8171C-67.0966 91.8072 -59.5313 97.2411 -58.048 98.1241C-54.0881 100.373 -49.4451 101.385 -44.9763 102.009C-39.8756 102.659 -34.5976 102.841 -29.4132 102.988C-17.1839 103.452 -4.85817 103.097 7.3997 102.075C8.38304 102.02 8.09569 100.521 7.20585 100.612C-3.08533 101.524 -13.3509 101.804 -23.6617 101.639C-28.7526 101.527 -33.9016 101.287 -39.0152 100.953C-43.4968 100.645 -48.13 100.172 -52.4442 98.8577C-54.6304 98.1361 -56.6522 97.2629 -58.6257 95.9802C-59.548 95.3098 -60.3767 94.6749 -61.1346 93.8529C-61.5313 93.4887 -63.4211 91.7031 -63.173 91.0485C-63.0667 90.768 -61.79 90.5032 -61.4386 90.4225C-60.8293 90.2257 -60.1619 90.1578 -59.5881 90.0545C-57.9954 89.8026 -56.2738 89.4926 -54.5877 89.2761C-47.2337 88.2134 -39.8217 87.2796 -32.3516 86.4748C-27.4221 85.8834 -22.4118 85.6435 -17.5984 84.7943C-17.1535 84.749 -17.1279 84.1171 -17.5728 84.1623Z" fill="#00497B"/>
<path d="M-18.2165 84.4525C-13.7439 87.324 -8.83611 89.6118 -4.25714 92.2027C-1.96766 93.4982 0.192868 94.8518 2.44691 96.2408C3.55621 96.982 4.79446 97.6652 5.70394 98.6515C6.46183 99.4735 6.76199 100.657 7.00409 101.711C7.10742 102.285 7.77479 102.217 8.0455 101.785C9.04765 99.7049 7.63818 97.7805 5.98063 96.5106C3.68133 94.6767 0.795353 93.2621 -1.77466 91.8603C-6.87924 88.9632 -12.1935 85.7727 -17.8168 83.9623C-18.2844 83.7851 -18.5905 84.3107 -18.2165 84.4525Z" fill="#00497B"/>
<path d="M-20.3353 14.138C-19.4724 21.7371 -18.2226 29.1619 -17.6757 36.7481C-16.9704 45.8916 -16.897 55.0094 -16.3786 64.0819C-16.0806 69.2211 -15.7826 74.3603 -15.5781 79.464C-15.5004 80.6698 -13.6853 80.3953 -13.763 79.1895C-14.0943 70.1878 -14.7416 61.1733 -15.0729 52.1717C-15.5233 43.7665 -15.8802 35.3967 -17.0915 27.024C-17.7666 22.5974 -18.5706 18.229 -19.6325 13.9766C-19.7712 13.4963 -20.3805 13.6931 -20.3353 14.138Z" fill="#00497B"/>
<path d="M-14.7018 79.6892C1.37198 85.2465 17.6584 90.2427 33.9094 95.3324C34.7864 95.5579 35.2826 94.2488 34.441 93.9298C18.19 88.8401 1.93902 83.7504 -14.4892 79.1282C-14.8632 78.9864 -15.0759 79.5475 -14.7018 79.6892Z" fill="#00497B"/>
<path d="M-19.7513 14.5729C-20.0741 13.1672 -19.32 11.742 -18.1467 10.9034C-16.8798 10.1002 -15.2291 9.97726 -13.8362 9.97043C-10.9217 9.89871 -7.7846 9.80437 -5.01476 10.9611C-0.748769 12.6848 0.883994 17.6882 2.71958 21.5922C5.83269 28.333 8.81685 35.1319 11.7075 41.8953C17.7211 55.938 23.4187 69.9679 29.2098 84.0332C30.7068 87.7018 32.1457 91.2415 33.6427 94.9102C34.1653 96.0707 35.8771 95.2223 35.448 94.0972C31.2346 84.052 27.1855 73.8551 22.9721 63.8099C16.6455 48.9 10.3899 33.8031 3.1961 19.2062C2.17349 17.1075 1.18631 14.9154 -0.258593 13.0845C-2.27437 10.5025 -5.10228 9.21685 -8.28459 8.86628C-10.1095 8.60239 -11.9473 8.65448 -13.785 8.70656C-15.0843 8.74883 -16.2901 8.82653 -17.5087 9.22021C-19.7235 9.98492 -21.4639 12.3197 -20.4187 14.6408C-20.1509 15.063 -19.6706 14.9243 -19.7513 14.5729Z" fill="#00497B"/>
<path d="M-11.2221 102.396C-9.69653 104.578 -7.78407 106.586 -5.96513 108.559C-4.14619 110.532 -2.32724 112.504 -0.60181 114.442C2.8845 118.223 6.27729 121.968 9.79904 125.655C16.8071 133.124 24.015 140.347 31.6225 147.08C33.6994 148.937 35.8697 150.829 37.982 152.592C40.1878 154.39 42.3808 156.505 44.8927 157.778C45.4183 158.084 46.0533 157.255 45.5985 156.762C43.9312 154.954 41.8061 153.507 39.9034 152.037C37.9427 150.438 36.0755 148.875 34.1503 147.183C30.2062 143.763 26.5201 140.227 22.7405 136.656C15.4036 129.491 8.48907 122.058 1.48102 114.589C-0.489504 112.452 -2.49547 110.409 -4.46599 108.272C-6.53002 106.099 -8.55861 103.833 -10.8225 101.906C-11.1611 101.67 -11.4318 102.103 -11.2221 102.396Z" fill="#00497B"/>
<path d="M32.3559 94.6369C44.3281 98.3188 56.5129 101.44 68.6849 104.877C80.7634 108.278 92.9 111.808 104.872 115.49C126.501 122.191 148.434 129.22 168.233 140.467C186.981 151.101 204.344 166.237 213.18 186.376C216.942 195.073 221.318 208.923 212.327 215.996C208.208 219.247 202.434 220.374 197.304 221.21C191.859 222.034 186.159 222.119 180.649 221.421C174.413 220.662 168.109 219.235 162.028 217.786C151.527 215.303 141.051 212.188 130.987 208.267C128.088 207.169 125.225 205.976 122.362 204.784C121.333 204.394 120.895 205.832 121.794 206.28C132.461 211.713 144.059 215.254 155.648 218.255C162.477 219.988 169.377 221.534 176.419 222.705C186.537 224.508 197.247 224.183 207.067 220.847C211.977 219.178 216.213 216.185 218.184 211.265C220.156 206.344 219.719 200.725 218.532 195.676C213.387 174.263 196.91 156.789 179.103 144.8C160.035 131.906 138.012 123.987 116.173 116.993C103.862 113.076 91.4453 109.439 79.0863 105.931C66.6337 102.388 54.0877 98.8095 41.4225 95.8273C38.4754 95.1382 35.5638 94.3555 32.5814 93.7599C32.0784 93.6762 31.8884 94.4597 32.3559 94.6369Z" fill="#00497B"/>
<path d="M211.585 180.424C209.999 182.069 207.901 183.092 205.676 183.318C205.325 183.399 204.915 183.351 204.577 183.115C204.332 182.915 204.215 182.658 204.099 182.4C203.402 180.852 202.648 179.176 201.951 177.628C201.893 177.5 201.777 177.242 201.847 177.055C201.918 176.868 202.047 176.81 202.176 176.751C203.83 175.774 205.484 174.797 207.137 173.819L211.585 180.424Z" fill="#00497B"/>
<path d="M198.134 178.106C199.601 180.16 200.192 181.987 200.628 184.505C195.586 187.086 189.476 187.123 184.511 184.706C185.103 182.578 185.789 180.486 186.382 178.358C186.417 178.264 186.488 178.077 186.617 178.019C186.782 177.867 186.969 177.938 187.191 177.916C190.957 178.701 194.491 178.971 198.134 178.106Z" fill="#00497B"/>
<path d="M125.124 121.027C127.609 119.83 129.921 118.246 132.29 116.792C134.659 115.337 137.064 113.789 139.34 112.299C144.114 109.296 148.924 106.199 153.698 103.196C154.965 102.393 156.267 101.496 157.789 101.431C158.959 101.447 160.281 101.627 161.474 101.866C164.047 102.413 166.559 103.686 167.627 106.23C168.614 108.422 168.511 110.949 168.386 113.255C168.248 115.876 168.146 118.404 168.008 121.025C167.729 127.122 167.45 133.219 167.3 139.258C167.285 140.428 169.051 140.563 169.067 139.393C169.462 133.554 169.541 127.702 169.749 121.792C169.864 118.948 169.944 116.198 170.06 113.354C170.127 110.92 170.194 108.486 169.336 106.236C168.477 103.985 166.774 102.271 164.659 101.362C162.486 100.324 159.597 99.7641 157.279 99.9549C156.073 100.033 155.006 100.591 153.903 101.242C152.508 102.104 151.205 103 149.903 103.897C147.334 105.597 144.8 107.203 142.137 108.867C139.31 110.683 136.354 112.557 133.527 114.373C130.571 116.247 127.299 118.108 124.611 120.405C124.411 120.65 124.737 121.201 125.124 121.027Z" fill="#00497B"/>
<path d="M157.369 100.844C151.526 108.361 144.573 115.137 137.33 121.268C136.25 122.142 135.135 123.11 134.149 124.019C133.82 124.322 133.981 125.025 134.555 124.922C135.703 124.715 136.689 123.806 137.605 123.083C139.307 121.696 140.822 120.239 142.466 118.723C146.317 115.05 150.076 111.341 153.531 107.303C155.223 105.378 156.786 103.511 158.046 101.315C158.411 100.918 157.733 100.448 157.369 100.844Z" fill="#00497B"/>
<path d="M43.7693 157.352C60.7714 161.871 77.4289 167.863 93.1196 175.842C101.03 179.802 108.633 184.288 116.095 189.148C119.271 191.208 122.857 193.315 125.434 196.11C126.589 197.296 127.579 198.634 128.089 200.11C128.46 201.106 128.947 202.36 127.693 202.848C126.79 203.254 125.62 203.238 124.601 203.387C115.935 204.808 107.32 204.965 98.5665 204.642C89.7775 204.412 80.9885 204.182 72.1512 204.362C54.9215 204.676 37.8631 206.231 20.7918 208.103C4.29442 209.871 -12.39 211.568 -29.0752 210.164C-31.1581 210.016 -33.299 209.739 -35.3464 209.498C-36.4813 209.389 -36.5808 211.062 -35.5394 211.136C-18.4604 213.759 -0.957067 212.158 16.0788 210.38C34.0044 208.512 51.8366 206.608 69.7336 206.226C78.8869 206.059 87.9338 206.173 97.1323 206.451C106.108 206.751 115.004 206.701 123.95 205.386C124.969 205.237 126.117 205.031 127.136 204.882C127.932 204.756 128.728 204.63 129.35 204.117C130.817 203.069 130.484 201.125 129.975 199.649C128.968 196.38 126.285 193.866 123.611 191.89C116.42 186.598 108.665 181.948 100.768 177.671C84.7867 169.048 67.7808 162.282 50.1822 157.644C48.0541 157.051 45.8552 156.645 43.7851 156.182C43.3983 156.356 43.1728 157.233 43.7693 157.352Z" fill="#00497B"/>
<path d="M-56.7681 190.685C-53.4411 189.807 -50.2754 188.226 -47.0645 187.091C-43.7246 185.897 -40.4201 184.797 -36.9287 183.767C-30.2037 181.824 -23.269 180.175 -16.4859 178.361C-2.9198 174.734 10.3915 170.368 23.6801 165.779C27.4649 164.54 31.1916 163.172 34.9764 161.933C36.8043 161.343 38.6322 160.752 40.4021 160.033C42.23 159.442 44.2449 158.923 45.8406 157.816C46.1694 157.513 45.9725 156.904 45.563 156.856C43.9478 156.885 42.5648 157.43 41.0882 157.94C39.2603 158.531 37.4324 159.121 35.6626 159.841C32.3581 160.941 29.0182 162.135 25.7138 163.235C19.0695 165.529 12.3317 167.788 5.62931 169.953C-1.20202 172.176 -7.99791 174.306 -14.9099 176.178C-21.8574 178.143 -28.8275 179.886 -35.775 181.852C-39.3954 182.939 -42.9223 184.062 -46.4846 185.279C-50.0824 186.589 -53.8672 187.828 -57.0811 189.818C-57.3518 190.25 -57.1195 190.766 -56.7681 190.685Z" fill="#00497B"/>
<path d="M-55.9637 195.053C-48.5842 193.358 -41.2725 190.996 -34.0317 188.821C-26.6973 186.682 -19.4565 184.507 -12.0868 182.274C2.26587 177.982 16.5605 173.561 30.9259 168.953C39.0694 166.371 47.1548 163.661 55.2047 161.044C56.4233 160.65 55.5749 158.938 54.3918 159.239C25.648 168.77 -3.15383 178.173 -32.0236 186.909C-40.0026 189.339 -48.1913 191.475 -56.0897 194.257C-56.5474 194.618 -56.3151 195.134 -55.9637 195.053Z" fill="#00497B"/>
<path d="M53.2983 207.27C52.8375 208.485 52.3768 209.701 51.9515 210.823C51.7389 211.384 51.5843 212.074 51.3717 212.635C51.2526 213.232 50.8401 214.038 51.2594 214.624C51.411 214.789 51.6915 214.895 51.8559 214.744C52.4652 214.547 52.6326 213.541 52.8098 213.073C53.0224 212.512 53.177 211.822 53.2961 211.226C53.6633 209.975 53.937 208.688 54.1753 207.495C54.2944 206.899 53.4755 206.802 53.2983 207.27Z" fill="#00497B"/>
<path d="M38.3955 207.931C39.4053 210.346 41.9625 212.064 44.3229 213.172C45.5966 213.762 46.9057 214.258 48.1922 214.532C48.7887 214.651 49.4787 214.806 50.0752 214.925C50.5782 215.008 51.3972 215.105 51.913 214.873C52.2063 214.663 52.3481 214.289 52.0095 214.054C51.5774 213.783 51.0389 213.793 50.5359 213.709C49.9395 213.59 49.3075 213.564 48.7465 213.352C47.46 213.078 46.2443 212.617 45.0287 212.156C42.6684 211.048 40.8012 209.485 38.9468 207.606C38.7371 207.312 38.3148 207.58 38.3955 207.931Z" fill="#00497B"/>
<path d="M22.1854 208.097C16.3353 214.221 19.8814 224.334 24.1678 230.236C29.6541 237.77 38.1703 242.387 46.6796 245.613C47.7082 246.002 48.3107 244.413 47.3176 243.929C39.5691 240.672 31.8108 236.876 26.415 230.232C21.7417 224.504 17.9348 215.362 22.7337 208.625C22.969 208.287 22.5142 207.794 22.1854 208.097Z" fill="#00497B"/>
<path d="M47.2818 244.023C46.0111 242.579 46.2553 239.678 46.3903 237.911C46.538 235.828 47.0017 233.758 47.8395 231.83C49.3506 228.125 52.0094 224.213 55.7263 222.307C57.696 221.342 60.6461 221.177 61.7267 223.404C62.5171 224.987 62.2178 226.906 61.9312 228.508C61.1908 232.719 59.596 236.927 56.6823 240.1C55.4252 241.442 53.9231 242.584 52.2467 243.339C50.3125 244.21 48.3813 244.226 46.3339 243.985C45.6084 243.924 45.441 244.93 46.0956 245.178C49.9521 246.854 54.3492 244.563 57.1793 241.893C60.8667 238.371 62.874 233.357 63.6755 228.421C63.9748 226.502 64.0645 224.29 63.1226 222.543C62.1226 220.667 59.8783 219.816 57.8762 220.02C53.1111 220.46 49.266 225.526 47.3326 229.499C46.0598 232.011 45.3126 234.829 45.1038 237.637C44.956 239.72 44.7216 243.16 46.7532 244.572C47.0563 244.9 47.6784 244.388 47.2818 244.023Z" fill="#00497B"/>
<path d="M63.2041 222.894C63.5162 220.659 61.8262 218.629 59.9334 217.697C57.8536 216.695 55.2904 216.686 53.1465 217.264C46.2926 219.265 42.9642 227.2 41.5376 233.504C40.8002 236.86 40.7271 241.003 43.4457 243.424C43.9359 243.824 44.7224 243.159 44.3612 242.701C42.4065 239.394 42.5474 235.918 43.5781 232.352C44.6798 228.599 46.1328 224.765 48.9048 221.966C51.0193 219.773 53.7981 218.366 56.9223 218.588C58.1862 218.639 59.4373 219.006 60.453 219.712C61.7494 220.524 62.2366 221.778 62.8172 223.068C62.8753 223.197 63.1332 223.081 63.2041 222.894Z" fill="#00497B"/>
<path d="M62.3353 220.106C61.6641 217.927 60.232 215.78 58.8451 214.078C58.1227 213.162 57.3294 212.434 56.4779 211.576C55.9878 211.177 55.5911 210.813 55.1009 210.413C54.6688 210.142 54.1206 209.614 53.5821 209.623C53.1727 209.575 52.902 210.007 53.1116 210.301C53.3439 210.816 53.8695 211.122 54.3016 211.393C54.6983 211.757 55.1304 212.028 55.527 212.392C56.4139 213.156 57.2072 213.885 57.9297 214.8C59.41 216.538 60.6325 218.391 61.8195 220.338C61.9937 220.725 62.4514 220.364 62.3353 220.106Z" fill="#00497B"/>
<path d="M97.2866 205.762C96.8258 206.977 96.3651 208.193 95.9398 209.315C95.7272 209.876 95.5726 210.566 95.36 211.127C95.2408 211.724 94.8284 212.53 95.2477 213.117C95.3992 213.281 95.6798 213.387 95.8442 213.236C96.4535 213.039 96.6209 212.033 96.7981 211.565C97.0107 211.004 97.1653 210.314 97.2844 209.718C97.6516 208.467 97.9253 207.18 98.1636 205.987C98.2827 205.391 97.4638 205.294 97.2866 205.762Z" fill="#00497B"/>
<path d="M81.7313 206.175C82.0315 207.359 83.0118 208.158 83.8987 208.922C85.1241 209.921 86.385 210.827 87.8457 211.487C89.1194 212.077 90.4285 212.573 91.7731 212.976C92.4631 213.13 93.2112 213.414 93.9366 213.475C94.5331 213.594 95.2586 213.655 95.7744 213.423C96.0323 213.306 96.2449 212.745 95.8709 212.604C95.4388 212.333 94.9003 212.343 94.3974 212.259C93.7074 212.105 93.1109 211.985 92.4208 211.831C91.1698 211.464 89.9187 211.096 88.7385 210.542C87.4648 209.952 86.2266 209.269 85.0592 208.399C84.1369 207.729 83.0277 206.987 82.3406 205.979C82.131 205.685 81.6506 205.824 81.7313 206.175Z" fill="#00497B"/>
<path d="M66.7165 205.725C62.3587 210.169 62.696 217.462 64.9124 222.9C67.558 229.464 72.7599 234.644 78.6224 238.363C82.4178 240.764 86.613 242.674 90.8209 244.269C91.8495 244.659 92.452 243.069 91.4588 242.586C83.3363 239.187 75.1459 235.12 69.7403 227.938C65.1733 221.93 62.4304 213.083 67.3228 206.382C67.5 205.915 67.0453 205.422 66.7165 205.725Z" fill="#00497B"/>
<path d="M91.7831 243.137C90.5124 241.693 90.3088 239.691 90.3502 237.889C90.369 235.864 90.7038 233.852 91.3191 231.946C92.5142 228.229 94.7153 224.678 97.7905 222.208C99.4925 220.821 101.849 219.682 104 220.497C105.928 221.335 106.319 223.408 106.242 225.304C106.017 229.283 104.41 233.806 101.999 237.063C100.658 238.908 99.0141 240.424 97.009 241.482C95.0039 242.54 93.0598 242.873 90.8352 243.099C90.0744 243.131 90.1875 244.244 90.8775 244.398C95.1465 245.268 99.8852 242.358 102.541 239.301C104.339 237.095 105.612 234.583 106.418 231.894C107.139 229.708 107.803 227.393 107.799 225.146C107.782 223.214 107.263 221.199 105.699 219.965C103.948 218.66 101.478 218.686 99.5437 219.557C95.2303 221.344 92.0074 225.898 90.4126 230.106C89.4557 232.63 88.8374 235.39 88.8511 238.176C88.8903 240.33 89.1393 242.777 91.1128 244.06C91.6512 244.05 92.1798 243.501 91.7831 243.137Z" fill="#00497B"/>
<path d="M107.296 225.062C108.627 222.679 108.439 219.506 106.362 217.65C104.04 215.593 100.52 215.007 97.5793 215.711C90.5157 217.418 87.0938 225.319 85.5028 231.774C84.73 235.224 84.528 239.425 87.3627 242.103C87.8529 242.503 88.6394 241.839 88.2782 241.381C86.3235 238.073 86.4644 234.598 87.4952 231.032C88.5614 227.372 89.979 223.632 92.5639 220.761C95.1135 217.985 98.8176 216.394 102.571 217.496C103.822 217.863 105.189 218.488 106.063 219.568C107.392 221.141 106.87 223.082 106.922 224.92C106.98 225.049 107.225 225.249 107.296 225.062Z" fill="#00497B"/>
<path d="M107.203 218.823C106.473 216.515 104.912 214.426 103.245 212.618C102.429 211.667 101.542 210.903 100.597 210.01C100.107 209.611 99.7103 209.247 99.1847 208.94C98.7526 208.67 98.2043 208.141 97.5724 208.116C97.1629 208.067 96.8922 208.499 97.1018 208.793C97.3341 209.309 97.8597 209.615 98.2918 209.885C98.782 210.285 99.1787 210.649 99.7043 210.955C100.685 211.755 101.571 212.519 102.423 213.376C104.126 215.091 105.442 216.98 106.816 218.998C106.861 219.443 107.283 219.175 107.203 218.823Z" fill="#00497B"/>
<path d="M216.628 191.105C213.19 190.016 209.18 192.132 206.389 193.855C203.268 195.88 200.906 198.728 198.882 201.811C196.858 204.893 195.137 208.305 194.2 211.907C193.311 215.099 192.677 219.029 194 222.311C194.232 222.827 194.97 222.572 194.96 222.033C194.785 218.545 194.82 215.35 195.873 212.006C196.856 208.849 198.248 205.741 200.165 202.939C201.918 200.288 203.988 197.65 206.534 195.728C208.001 194.68 209.526 193.76 211.295 193.041C213.065 192.321 214.845 192.14 216.847 191.937C216.976 191.879 217.095 191.282 216.628 191.105Z" fill="#00497B"/>
<path d="M-13.4016 9.3868C-11.549 28.4828 -8.9001 47.4529 -6.4382 66.3521C-6.07314 69.057 -5.70808 71.7619 -5.34302 74.4669C-4.97796 77.1718 -4.70642 79.8413 -4.21241 82.4882C-3.99294 83.32 -2.93872 83.0779 -2.97116 82.317C-3.22392 77.6227 -4.07316 72.8093 -4.64188 68.1023C-5.21061 63.3952 -5.87283 58.6527 -6.44155 53.9456C-7.63706 44.4025 -8.96153 34.9175 -10.157 25.3744C-10.8872 19.9645 -11.6527 14.6481 -12.5118 9.29628C-12.7441 8.78048 -13.4469 8.94188 -13.4016 9.3868Z" fill="#00497B"/>
<path d="M22.3691 65.3994C23.3396 65.6603 24.4391 65.8631 25.2679 66.498C26.0031 67.0975 26.3742 68.0937 26.8161 68.9028C28.2935 71.4946 29.5484 74.109 30.6743 76.7815C31.8229 79.6765 32.5846 82.7457 33.4753 85.7568C34.4821 89.0257 35.3954 92.2593 36.4957 95.5637C36.8668 96.5599 38.4722 95.992 38.1947 95.0313C37.2942 91.4818 36.1358 88.0484 35.0128 84.5215C34.006 81.2525 33.0927 78.0189 31.828 74.8661C30.644 72.0646 29.1667 69.4728 27.4668 66.9037C26.2444 65.0501 24.7709 64.7055 22.5945 64.5224C22.1496 64.5676 21.8661 65.3157 22.3691 65.3994Z" fill="#00497B"/>
<path d="M25.3959 110.179C25.6794 109.431 25.9629 108.683 26.211 108.028C26.6009 107 26.1137 105.746 25.0851 105.356C24.6175 105.179 24.15 105.002 23.6824 104.824C22.6538 104.434 21.4933 104.957 21.1389 105.892C20.8554 106.64 20.4783 107.353 20.1948 108.101C19.805 109.13 20.2341 110.255 21.2273 110.738C21.6948 110.915 22.2559 111.128 22.7234 111.305C23.939 111.766 25.0996 111.243 25.3959 110.179Z" fill="#00497B"/>
<path d="M37.9174 117.491C38.2009 116.743 38.4844 115.995 38.7325 115.34C39.1224 114.311 38.6352 113.057 37.6066 112.667C37.139 112.49 36.6715 112.313 36.2039 112.136C35.1753 111.746 34.0148 112.269 33.6604 113.204C33.3769 113.952 32.9998 114.664 32.7163 115.412C32.3265 116.441 32.7556 117.566 33.7487 118.05C34.2163 118.227 34.7773 118.439 35.2449 118.617C36.3316 119.135 37.5276 118.519 37.9174 117.491Z" fill="#00497B"/>
<path d="M50.2025 125.142C50.4861 124.394 50.7696 123.646 51.0177 122.991C51.4075 121.963 50.9203 120.709 49.8917 120.319C49.4242 120.142 48.9566 119.964 48.4891 119.787C47.4605 119.397 46.2999 119.92 45.9455 120.855C45.662 121.603 45.285 122.316 45.0015 123.064C44.6116 124.092 45.0407 125.218 46.0339 125.701C46.5014 125.878 47.0625 126.091 47.53 126.268C48.6522 126.693 49.9062 126.206 50.2025 125.142Z" fill="#00497B"/>
<path d="M62.5482 132.921C62.8318 132.173 63.1153 131.425 63.3634 130.771C63.7532 129.742 63.266 128.488 62.2374 128.098C61.7699 127.921 61.3023 127.744 60.8348 127.567C59.8062 127.177 58.6456 127.699 58.2912 128.634C58.0077 129.382 57.6307 130.095 57.3472 130.843C56.9573 131.872 57.3864 132.997 58.3796 133.48C58.8471 133.657 59.4082 133.87 59.8758 134.047C60.9624 134.566 62.123 134.043 62.5482 132.921Z" fill="#00497B"/>
<path d="M74.6557 141.039C74.9392 140.291 75.2227 139.543 75.4708 138.889C75.8606 137.86 75.3735 136.606 74.3449 136.216C73.8773 136.039 73.4098 135.862 72.9422 135.685C71.9136 135.295 70.7531 135.817 70.3987 136.753C70.1151 137.501 69.7381 138.213 69.4546 138.961C69.0648 139.99 69.4939 141.115 70.487 141.598C70.9546 141.776 71.5156 141.988 71.9832 142.165C73.1053 142.591 74.3593 142.104 74.6557 141.039Z" fill="#00497B"/>
<path d="M87.3197 147.978C87.6033 147.23 87.8868 146.482 88.1349 145.827C88.5247 144.799 88.0375 143.545 87.0089 143.155C86.5414 142.978 86.0738 142.8 85.6063 142.623C84.5777 142.233 83.4171 142.756 83.0627 143.691C82.7792 144.439 82.4022 145.152 82.1187 145.9C81.7288 146.928 82.1579 148.054 83.1511 148.537C83.6186 148.714 84.1797 148.927 84.6472 149.104C85.7694 149.529 86.9299 149.007 87.3197 147.978Z" fill="#00497B"/>
<path d="M99.7826 155.161C100.066 154.413 100.35 153.664 100.598 153.01C100.988 151.981 100.5 150.727 99.4718 150.337C99.0043 150.16 98.5367 149.983 98.0692 149.806C97.0406 149.416 95.88 149.939 95.5256 150.874C95.2421 151.622 94.8651 152.334 94.5815 153.082C94.1917 154.111 94.6208 155.236 95.614 155.719C96.0815 155.897 96.6426 156.109 97.1101 156.287C98.2322 156.712 99.4863 156.225 99.7826 155.161Z" fill="#00497B"/>
<path d="M112.552 161.819C112.836 161.071 113.119 160.323 113.367 159.668C113.757 158.639 113.27 157.385 112.241 156.996C111.774 156.818 111.306 156.641 110.839 156.464C109.81 156.074 108.65 156.597 108.295 157.532C108.012 158.28 107.635 158.993 107.351 159.741C106.961 160.769 107.39 161.894 108.384 162.378C108.851 162.555 109.412 162.768 109.88 162.945C111.002 163.37 112.162 162.847 112.552 161.819Z" fill="#00497B"/>
<path d="M125.333 168.161C125.617 167.413 125.9 166.664 126.149 166.01C126.538 164.981 126.051 163.727 125.023 163.337C124.555 163.16 124.087 162.983 123.62 162.806C122.591 162.416 121.431 162.939 121.076 163.874C120.793 164.622 120.416 165.334 120.132 166.082C119.742 167.111 120.172 168.236 121.165 168.719C121.632 168.897 122.193 169.109 122.661 169.287C123.783 169.712 125.037 169.225 125.333 168.161Z" fill="#00497B"/>
<path d="M138.386 174.07C138.67 173.322 138.953 172.574 139.201 171.919C139.591 170.89 139.104 169.636 138.075 169.247C137.608 169.069 137.14 168.892 136.673 168.715C135.644 168.325 134.484 168.848 134.129 169.783C133.846 170.531 133.469 171.244 133.185 171.992C132.795 173.02 133.224 174.145 134.217 174.629C134.685 174.806 135.246 175.019 135.714 175.196C136.836 175.621 137.996 175.098 138.386 174.07Z" fill="#00497B"/>
<path d="M151.347 179.944C151.631 179.196 151.914 178.448 152.162 177.793C152.552 176.764 152.065 175.51 151.036 175.121C150.569 174.943 150.101 174.766 149.634 174.589C148.605 174.199 147.444 174.722 147.09 175.657C146.807 176.405 146.43 177.118 146.146 177.866C145.756 178.894 146.185 180.019 147.178 180.503C147.646 180.68 148.207 180.893 148.675 181.07C149.761 181.589 150.922 181.066 151.347 179.944Z" fill="#00497B"/>
<path d="M95.1156 224.188C96.283 225.058 97.3214 225.986 98.2535 227.195C99.034 228.24 99.4632 229.365 99.1894 230.651C98.9866 231.751 98.0712 232.473 96.9362 232.364C95.6724 232.313 94.4696 231.536 93.4538 230.83C93.1152 230.595 92.8701 230.395 92.5315 230.16C92.1929 229.925 91.9832 229.631 91.5157 229.454C91.1417 229.312 90.7902 229.393 90.6485 229.767C90.5067 230.141 90.6809 230.528 90.9841 230.857C91.4969 231.479 92.1741 231.949 92.7932 232.291C93.3769 232.726 93.996 233.068 94.6506 233.316C95.8662 233.776 97.1527 234.05 98.4648 233.692C99.8124 233.24 100.625 231.944 100.805 230.622C101.091 229.019 100.394 227.472 99.4623 226.263C98.9495 225.641 98.4013 225.112 97.7595 224.548C97.1178 223.984 96.2535 223.443 95.3991 223.44C94.9542 223.485 94.777 223.953 95.1156 224.188Z" fill="#00497B"/>
<path d="M50.1638 226.828C51.3666 227.605 52.4985 228.568 53.4661 229.684C54.282 230.635 54.8047 231.795 54.6245 233.117C54.4216 234.217 53.6351 234.881 52.4293 234.959C51.13 235.001 49.8918 234.318 48.876 233.612C48.5374 233.377 48.2923 233.177 47.9537 232.942C47.6151 232.706 47.3119 232.377 46.8444 232.2C46.5639 232.094 46.177 232.268 46.0707 232.549C45.9289 232.923 46.1967 233.345 46.4998 233.674C47.0481 234.202 47.7253 234.673 48.3444 235.015C48.9635 235.356 49.6761 235.733 50.3307 235.981C51.5463 236.442 52.8683 236.622 54.0288 236.1C55.3183 235.519 56.1304 234.223 56.2171 232.865C56.3747 231.321 55.5843 229.738 54.5233 228.587C54.0105 227.965 53.3687 227.401 52.6915 226.93C52.0143 226.46 51.1147 226.012 50.2249 226.103C50.0024 226.125 49.8833 226.722 50.1638 226.828Z" fill="#00497B"/>
</g>
<defs>
<clipPath id="clip0_20_22498">
<rect width="307.1" height="202.4" fill="white" transform="translate(-30.2695) rotate(20.7567)"/>
</clipPath>
</defs>
</svg>
