<svg width="155" height="165" viewBox="0 0 155 165" fill="none" xmlns="http://www.w3.org/2000/svg">
<g id="Group 1410097613">
<path id="Vector" d="M0 71.1802V19.7002L37.38 49.3302L51.67 60.6502L37.38 78.6802V100.8L0 71.1802Z" fill="white" fill-opacity="0.13"/>
<path id="Vector_2" fill-rule="evenodd" clip-rule="evenodd" d="M66.6602 0H125.86L102.62 28.91L66.6602 0Z" fill="#2C2C80"/>
<path id="Vector_3" fill-rule="evenodd" clip-rule="evenodd" d="M31.75 0H42.47L105.42 50.61L146.11 0H154.73L108.55 57.43L106.45 60.05L103.83 57.95L32.63 0.700001L31.75 0Z" fill="#FFCB37"/>
<path id="Vector_4" d="M0 135.37V83.9004L37.38 113.52V165L0 135.37Z" fill="#2B515B"/>
<path id="Vector_5" d="M0 71.1802V59.9502V3.99023L36.9 31.0202L10.39 64.5702L10.5 159.21L0 150.89V71.1802Z" fill="#FFCB37"/>
<path id="Vector_6" d="M0 7.98V0H54.88L82.43 21.84L57.38 53.45L0 7.98Z" fill="#0A5467"/>
</g>
</svg>
