<svg width="153" height="284" viewBox="0 0 153 284" fill="none" xmlns="http://www.w3.org/2000/svg">
<path d="M62.2992 102.001H61.3992L61.2992 101.101C60.8992 98.2009 60.4992 95.6009 60.1992 93.4009C58.5992 83.1009 57.9992 78.8009 61.1992 73.8009C64.4992 68.7009 68.9992 65.5009 73.2992 62.4009C77.8992 59.1009 82.6992 55.7009 85.8992 50.0009C88.9992 44.6009 88.8992 38.5009 85.4992 34.3009C81.3992 29.2009 73.7992 27.8009 65.1992 30.5009C59.9992 32.1009 56.6992 33.8009 54.1992 35.1009C46.9992 38.8009 46.4992 38.0009 37.6992 24.3009C36.7992 22.9009 35.7992 21.3009 34.6992 19.6009L34.1992 18.9009L34.8992 18.3009C52.8992 3.2009 75.0992 -1.49909 94.1992 5.80091C108.099 11.2009 117.499 22.0009 119.299 34.7009C121.299 49.2009 113.299 64.1009 96.4992 76.7009C85.5992 84.9009 86.0992 90.5009 86.3992 94.2009C86.5992 96.0009 86.6992 97.7009 85.4992 99.0009C83.4992 101.301 77.7992 102.001 62.2992 102.001ZM73.3992 27.2009C79.0992 27.2009 83.9992 29.2009 87.0992 33.1009C90.9992 38.0009 91.1992 44.9009 87.6992 51.1009C84.1992 57.2009 79.2992 60.7009 74.4992 64.1009C70.0992 67.2009 65.8992 70.2009 62.8992 75.0009C60.0992 79.3009 60.6992 83.1009 62.1992 93.2009C62.4992 95.2009 62.7992 97.5009 63.1992 100.101C76.6992 100.101 82.5992 99.4009 84.0992 97.8009C84.6992 97.1009 84.6992 96.2009 84.4992 94.5009C84.0992 90.4009 83.5992 84.1009 95.3992 75.3009C111.499 63.2009 119.299 48.9009 117.399 35.2009C115.699 23.2009 106.799 13.0009 93.4992 7.90091C75.3992 0.900906 54.1992 5.30091 36.7992 19.5009C37.6992 20.9009 38.5992 22.2009 39.2992 23.4009C43.4992 29.9009 45.7992 33.5009 47.4992 34.7009C48.7992 35.6009 49.8992 35.1009 53.1992 33.5009C55.6992 32.2009 59.1992 30.5009 64.4992 28.8009C67.6992 27.7009 70.5992 27.2009 73.3992 27.2009Z" fill="#FFB412"/>
<path d="M72 144.1C64 144.1 55.5 139.1 55.5 128C55.5 117 64.1 112 72 112C80.3 112 88.6 117.5 88.6 128C88.6 138.6 80.3 144.1 72 144.1ZM72 114C65 114 57.5 118.4 57.5 128C57.5 137.7 65 142.1 72 142.1C79 142.1 86.6 137.7 86.6 128C86.6 118.4 79 114 72 114Z" fill="#FFB412"/>
<path d="M62.3 106.601H57.4L56.7 101.701C56.3 98.8008 55.9 96.3008 55.6 94.0008C54 83.1008 53.2 77.7008 57.2 71.3008C57.3 71.1008 57.4 71.0008 57.5 70.8008L59.2 71.9008L58.9 72.3008C55.2 78.1008 56 83.3008 57.6 93.7008C57.9 95.9008 58.3 98.5008 58.7 101.401L59.1 104.501H62.3C79.1 104.501 84.8 103.601 87.5 100.701C88.3 99.8008 88.8 98.8008 89.1 97.5008L91.1 97.9008C90.8 99.5008 90.1 100.901 89 102.101C85.7 105.701 80 106.601 62.3 106.601Z" fill="#FFB412"/>
<path d="M85.5008 43.4L83.5008 43.2C83.5008 42.8 83.6008 42.5 83.6008 42.1C83.6008 40.7 83.3008 39.3 82.6008 38.1C80.8008 34.9 76.6008 33.3 71.5008 33.9L71.3008 31.9C77.2008 31.3 82.1008 33.3 84.3008 37.1C85.2008 38.6 85.6008 40.3 85.6008 42.1C85.5008 42.5 85.5008 43 85.5008 43.4Z" fill="#FFB412"/>
<path d="M48.9 41.6C43.3 41.6 40.7 37.6 33.7 26.8C32.8 25.4 31.8 23.8 30.7 22.1L28 17.9L31.8 14.7C40.3 7.7 49.5 2.7 59.2 0L59.7 1.9C50.3 4.5 41.3 9.3 33.1 16.2L30.6 18.3L32.4 21C33.5 22.7 34.5 24.3 35.4 25.7C42.1 36.1 44.3 39.6 48.9 39.6C50 39.6 51.2 39.3 52.6 38.7L53.4 40.5C51.8 41.3 50.4 41.6 48.9 41.6Z" fill="#FFB412"/>
<path d="M112.301 68.3004L110.801 67.0004C118.301 58.2004 122.301 48.5004 122.301 39.1004C122.301 36.7004 122.001 34.2004 121.501 31.8004L123.501 31.4004C124.101 33.9004 124.301 36.5004 124.301 39.1004C124.301 49.0004 120.201 59.1004 112.301 68.3004Z" fill="#FFB412"/>
<path d="M72.1008 148.701C61.5008 148.701 50.8008 141.601 50.8008 128.001C50.8008 125.501 51.2008 123.101 51.9008 120.901L53.8008 121.501C53.1008 123.501 52.8008 125.601 52.8008 127.901C52.8008 140.201 62.4008 146.601 72.0008 146.601L72.1008 148.701ZM91.0008 137.701L89.2008 136.801C90.5008 134.201 91.2008 131.201 91.2008 128.001C91.2008 123.801 90.1008 120.001 87.8008 117.001L89.4008 115.801C91.9008 119.201 93.1008 123.301 93.1008 128.001C93.2008 131.601 92.5008 134.801 91.0008 137.701Z" fill="#FFB412"/>
<path d="M117.3 250.5H116.4L116.3 249.7C116.1 248.1 115.9 246.8 115.7 245.5C114.9 240 114.5 237.5 116.3 234.7C118.1 231.9 120.6 230.1 122.9 228.4C125.5 226.6 127.9 224.9 129.6 221.9C131.2 219.1 131.1 216.1 129.4 214C127.3 211.4 123.4 210.7 119 212.1C116.3 213 114.5 213.9 113.2 214.5C108.9 216.7 108.4 215.9 103.7 208.5C103.2 207.7 102.7 206.9 102.1 206L101.6 205.3L102.3 204.7C112.2 196.4 124.3 193.9 134.7 197.9C142.4 200.8 147.5 206.8 148.5 213.8C149.6 221.8 145.2 230 136.1 236.8C130.5 241.1 130.7 243.8 130.9 245.8C131 246.8 131.1 247.9 130.3 248.8C129 250.1 126 250.5 117.3 250.5ZM123.3 209.3C126.5 209.3 129.3 210.4 131 212.6C133.2 215.4 133.4 219.3 131.4 222.8C129.5 226.1 126.8 228.1 124.2 229.9C121.9 231.6 119.7 233.1 118.1 235.6C116.7 237.8 117 239.8 117.8 245.1C117.9 246.1 118.1 247.2 118.3 248.4C123.2 248.4 128 248.2 128.8 247.3C129 247.1 129 246.6 128.9 245.9C128.7 243.7 128.4 240.1 134.9 235.1C143.4 228.7 147.6 221.2 146.5 213.9C145.6 207.6 140.9 202.2 133.9 199.6C124.4 195.9 113.3 198.2 104.2 205.5C104.6 206.1 105 206.7 105.3 207.3C107.5 210.8 108.8 212.7 109.6 213.2C110.1 213.5 110.4 213.4 112.2 212.5C113.6 211.8 115.5 210.8 118.4 209.9C120.1 209.6 121.8 209.3 123.3 209.3Z" fill="#2C2C80"/>
<path d="M117.301 254.7H112.801L112.201 250.2C112.001 248.7 111.801 247.3 111.601 246.1C110.701 240.1 110.201 236.5 112.801 232.4C115.001 228.9 118.001 226.8 120.501 225C121.501 224.3 122.401 223.7 123.201 223L124.501 224.5C123.601 225.2 122.701 225.9 121.701 226.6C119.301 228.3 116.501 230.3 114.501 233.5C112.301 237 112.701 239.9 113.601 245.8C113.801 247 114.001 248.4 114.201 249.9L114.601 252.6H117.401C126.001 252.6 129.901 252.3 131.901 250.1C133.301 248.5 133.201 246.6 133.101 245.5C132.901 243.5 133.101 241.7 137.501 238.4C138.001 238 138.601 237.6 139.101 237.2L140.401 238.7C139.901 239.1 139.301 239.6 138.801 240C135.001 242.9 135.101 244.1 135.201 245.3C135.301 246.6 135.501 249.2 133.501 251.4C130.801 254.2 127.001 254.7 117.301 254.7Z" fill="#2C2C80"/>
<path d="M128.401 219.3L126.501 218.7C126.601 218.4 126.601 218.1 126.601 217.8C126.601 217.4 126.501 217 126.301 216.7L127.901 215.5C127.901 215.6 128.001 215.6 128.001 215.7C128.401 216.3 128.501 217 128.501 217.8C128.601 218.3 128.601 218.8 128.401 219.3Z" fill="#2C2C80"/>
<path d="M110.1 219.7C105.9 219.7 104.1 216.9 100.1 210.8L100 210.6C99.5 209.9 99 209.1 98.5 208.3L96 204.5L99.5 201.6C107 195.3 115.7 192 124.5 192C126.1 192 127.7 192.1 129.3 192.3L129 194.3C127.5 194.1 126 194 124.5 194C116.2 194 108 197.2 100.8 203.2L98.7 204.8L100.2 207.1C100.8 207.9 101.3 208.7 101.7 209.4L101.8 209.6C105.8 215.8 107.1 217.6 110.1 217.6C111.5 217.6 112.7 217 114.1 216.3C115.4 215.6 117 214.8 119.6 214C121.5 213.4 123.3 213.2 124.8 213.5L124.4 215.5C123.3 215.3 121.8 215.4 120.2 215.9C117.8 216.6 116.3 217.4 115 218.1C113.6 218.9 112.1 219.7 110.1 219.7Z" fill="#2C2C80"/>
<path d="M150.198 226.9L148.398 226C149.998 222.8 150.798 219.5 150.798 216.3C150.798 214.8 150.598 213.3 150.298 211.9L152.198 211.4C152.598 213 152.798 214.6 152.798 216.3C152.798 219.8 151.898 223.4 150.198 226.9Z" fill="#2C2C80"/>
<path d="M122.6 283.799C115.9 283.799 109.1 279.199 109.1 270.499C109.1 261.799 115.9 257.199 122.6 257.199C129.2 257.199 136.2 261.799 136.2 270.499C136.2 274.799 134.4 278.499 131.1 280.999L129.9 279.399C131.8 277.899 134.2 275.199 134.2 270.499C134.2 263.199 128.2 259.199 122.6 259.199C116.9 259.199 111.1 263.099 111.1 270.499C111.1 277.899 116.9 281.799 122.6 281.799V283.799Z" fill="#2C2C80"/>
<path d="M122.599 279.7C117.899 279.7 113.199 276.6 113.199 270.6C113.199 264.6 117.899 261.5 122.599 261.5C127.299 261.5 131.999 264.6 131.999 270.6C131.999 276.5 127.199 279.7 122.599 279.7ZM122.599 263.4C119.099 263.4 115.199 265.6 115.199 270.5C115.199 275.4 118.999 277.6 122.599 277.6C126.199 277.6 129.999 275.4 129.999 270.5C129.999 268.3 129.199 266.5 127.699 265.2C126.299 264.1 124.499 263.4 122.599 263.4Z" fill="#2C2C80"/>
<path d="M16.3617 223.476H15.713L15.6409 222.827C15.4967 221.602 15.2805 220.521 15.1363 219.584C14.4875 215.186 14.1992 213.384 15.5688 211.15C16.9384 208.987 18.8847 207.617 20.759 206.248C22.7773 204.806 24.6516 203.509 25.9491 201.13C27.1745 198.967 27.1745 196.588 25.8049 194.858C24.2191 192.84 21.1194 192.263 17.5872 193.345C15.4246 193.993 14.055 194.714 13.0458 195.219C9.80198 196.877 9.36947 196.3 5.69312 190.605C5.33269 190.029 4.90018 189.38 4.39558 188.659L4.03516 188.154L4.53975 187.722C12.2529 181.306 21.624 179.288 29.7696 182.388C35.7527 184.694 39.7174 189.308 40.5103 194.786C41.3754 200.986 37.9153 207.329 30.8509 212.663C26.4537 215.979 26.5979 218.142 26.742 219.728C26.8141 220.521 26.8862 221.314 26.2374 221.962C25.3724 223.188 23.0657 223.476 16.3617 223.476ZM21.0473 191.542C23.5703 191.542 25.6608 192.407 27.0304 194.138C28.7604 196.3 28.8325 199.328 27.3187 201.995C25.8049 204.59 23.7145 206.104 21.6961 207.545C19.8939 208.843 18.1639 210.068 16.9384 212.015C15.8571 213.745 16.0734 215.259 16.7222 219.439C16.8663 220.232 16.9384 221.097 17.0826 222.107C20.9031 222.107 24.7236 221.962 25.3724 221.242C25.5166 221.025 25.5166 220.737 25.4445 220.088C25.3003 218.43 25.0841 215.547 30.13 211.726C36.7619 206.68 40.0057 200.841 39.2128 195.147C38.492 190.245 34.8156 185.992 29.4092 183.901C21.9844 181.018 13.3342 182.82 6.12563 188.587C6.48605 189.092 6.7744 189.596 7.06274 190.029C8.79279 192.696 9.72989 194.21 10.4507 194.642C10.8833 194.93 11.1716 194.786 12.5412 194.138C13.6225 193.561 15.0642 192.84 17.2989 192.119C18.5243 191.687 19.8218 191.542 21.0473 191.542Z" fill="#124855"/>
<path d="M20.3999 241.137C16.7957 241.137 13.1914 238.686 13.1914 234.072C13.1914 229.459 16.7957 227.008 20.3999 227.008C24.0042 227.008 27.6806 229.459 27.6806 234.072C27.6806 238.758 24.0763 241.137 20.3999 241.137ZM20.3999 228.522C17.5886 228.522 14.6331 230.252 14.6331 234.144C14.6331 237.965 17.6607 239.767 20.3999 239.767C23.2113 239.767 26.2389 238.037 26.2389 234.144C26.2389 230.252 23.2113 228.522 20.3999 228.522Z" fill="#124855"/>
<path d="M16.3632 226.647H13.0473L12.6148 223.331C12.4706 222.105 12.3265 221.096 12.1823 220.159C11.4615 215.473 11.101 212.734 13.0473 209.562C14.7774 206.823 17.012 205.237 19.0304 203.796L19.7513 203.291L20.6163 204.444L19.8954 204.949C18.0212 206.319 15.8587 207.832 14.2728 210.283C12.5427 213.023 12.9032 215.257 13.5519 219.871C13.6961 220.88 13.8403 221.889 13.9844 223.114L14.2728 225.205H16.3632C23.0672 225.205 26.0948 224.917 27.6086 223.331C28.6898 222.105 28.6178 220.736 28.5457 219.799C28.4015 218.285 28.5457 216.843 31.7895 214.392L32.6545 215.546C29.8432 217.708 29.9153 218.717 29.9874 219.726C30.0595 220.736 30.2757 222.682 28.6898 224.34C26.8156 226.286 23.8601 226.647 16.3632 226.647Z" fill="#124855"/>
<path d="M25.0848 199.182L23.7152 198.822C23.7873 198.605 23.7873 198.317 23.7873 198.101C23.7873 197.74 23.7152 197.452 23.571 197.164C23.4268 196.947 23.2827 196.803 23.0664 196.587L23.9314 195.434C24.2919 195.722 24.6523 196.01 24.8685 196.443C25.1569 196.947 25.3011 197.524 25.3011 198.101C25.229 198.461 25.1569 198.822 25.0848 199.182Z" fill="#124855"/>
<path d="M10.7407 199.327C7.56897 199.327 6.19934 197.164 3.09967 192.479L0 187.649L2.59508 185.487C8.93859 180.152 16.3634 177.557 23.7882 178.062L23.7161 179.504C16.6517 178.999 9.58735 181.45 3.53218 186.568L1.87422 187.937L4.32512 191.686C7.20854 196.227 8.36191 197.885 10.7407 197.885C11.822 197.885 12.7591 197.453 13.8404 196.876C14.8496 196.371 16.1471 195.723 18.1655 195.074C18.8864 194.858 19.5351 194.714 20.256 194.641L20.4002 196.083C19.8235 196.155 19.2468 196.299 18.598 196.444C16.7238 197.02 15.4984 197.669 14.5612 198.174C13.4079 198.75 12.1824 199.327 10.7407 199.327Z" fill="#124855"/>
<path d="M41.3778 205.886L40.1523 205.165C41.6661 202.426 42.4591 199.614 42.4591 196.803C42.4591 195.65 42.3149 194.496 42.0987 193.415L43.4683 193.055C43.7566 194.28 43.9008 195.578 43.9008 196.803C43.8287 199.903 43.0358 202.93 41.3778 205.886Z" fill="#124855"/>
<path d="M20.3998 244.309C15.2818 244.309 10.0195 240.848 10.0195 234.144C10.0195 227.513 15.2097 223.98 20.3998 223.98C25.4458 223.98 30.7801 227.513 30.7801 234.144C30.7801 236.091 30.2755 237.893 29.3384 239.479L28.113 238.758C28.9059 237.46 29.3384 235.875 29.3384 234.144C29.3384 228.522 24.7249 225.422 20.3998 225.422C16.0026 225.422 11.4612 228.378 11.4612 234.144C11.4612 239.839 15.9305 242.867 20.3998 242.867V244.309Z" fill="#124855"/>
</svg>
