<svg width="235" height="314" viewBox="0 0 235 314" fill="none" xmlns="http://www.w3.org/2000/svg">
<g opacity="0.1" clip-path="url(#clip0_20_23768)">
<path d="M16.6967 100.094C16.6967 100.094 12.1548 78.9361 10.2921 75.1007C8.42942 71.2653 4.2676 69.7823 4.2676 69.7823C4.2676 69.7823 -13.2848 21.2385 -14.792 18.7792C-16.1665 16.2711 -20.8851 11.2258 -27.4223 11.0685C-34.0015 11.0019 -35.3647 13.2362 -35.2961 15.4712C-35.2275 17.7062 -34.9065 80.6489 -34.9065 80.6489L-37.9334 85.5293C-37.9334 85.5293 -78.0378 86.4916 -81.7474 88.082C-85.4569 89.6723 -80.6125 94.4453 -75.8229 97.4303C-70.9426 100.457 -49.4323 103.019 -44.8929 103.685C-40.4443 104.309 -32.0283 104.453 -32.0283 104.453C-32.0283 104.453 -9.90995 131.201 -1.95341 141.158C5.91236 151.074 18.7218 163.164 18.7218 163.164L-52.8281 180.438L-84.1857 189.409C-84.1857 189.409 -85.9877 202.126 -69.4663 208.331C-52.8542 214.577 -8.34911 212.674 -8.34911 212.674C-8.34911 212.674 -13.7563 227.471 -3.69057 237.632C6.28435 247.75 13.5461 251.107 16.5424 251.06C19.5387 251.013 25.5604 248.949 28.2722 245.465C30.9841 241.981 33.0133 235.208 32.7289 231.771C32.4444 228.335 31.7412 224.374 29.7099 222.334C27.6787 220.293 23.7068 216.254 23.7068 216.254L25.1128 212.497L37.7051 213.14C37.7051 213.14 29.9258 223.535 38.0494 234.561C46.131 245.677 58.5874 252.096 58.5874 252.096C58.5874 252.096 67.2543 253.128 72.1334 245.909C76.9637 238.557 77.1569 230.273 76.1805 227.619C75.2042 224.964 71.6512 221.449 69.8152 219.94C68.0211 218.339 68.0211 218.339 68.0211 218.339L68.3507 215.958C68.3507 215.958 89.2263 216.794 90.4277 216.578C91.6291 216.362 110.67 225.934 113.247 226.795C115.823 227.655 140.683 235.841 146.989 237.213C153.253 238.676 175.888 241.427 182.953 234.006C190.018 226.586 195.126 210.769 174.056 181.752C160.789 163.501 143.202 153.169 143.202 153.169C143.202 153.169 148.925 122.434 144.486 117.738C140.046 113.042 133.026 114.645 124.88 118.921C116.643 123.156 101.692 131.669 101.692 131.669L16.6967 100.094Z" fill="white"/>
<path d="M185.711 208.731C185.711 208.731 185.711 208.731 178.089 212.589C170.467 216.447 167.404 223.074 167.404 223.074C167.404 223.074 131.322 212.235 82.9643 184.815C40.9322 160.871 -9.29415 114.851 -21.5033 103.369C-21.7619 103.69 -22.0693 103.878 -22.5163 103.892C-24.6186 103.912 -26.7209 103.932 -28.7461 103.546C-29.6401 103.574 -30.4922 103.511 -31.3862 103.538C-28.2107 107.87 -21.6295 116.751 -17.0933 123.144C-12.4663 129.579 5.13718 149.173 19.0702 162.884C34.5176 166.168 48.0137 174.389 61.7966 181.751C73.3033 187.841 84.6491 194.518 93.6187 203.951C97.0817 205.993 103.169 211.891 98.3409 214.947C97.2439 215.652 96.0006 215.959 94.5268 216.049C110.823 225.123 127.84 232.879 142.568 236.051C182.827 244.524 185.697 233.072 188.969 227.423C192.15 221.733 185.711 208.731 185.711 208.731Z" fill="#EBF0F4"/>
<path d="M32.6584 232.399C32.2618 229.682 30.6844 227.852 28.6942 227.152C25.942 227.863 23.0502 228.399 21.1493 230.605C20.9463 231.282 20.7922 232.092 21.0783 232.665C21.5039 233.413 22.7328 234.091 23.3331 234.699C23.5634 234.916 23.703 235.09 23.8914 235.398C24.1149 235.391 24.2057 235.433 24.3384 235.384C24.2545 235.566 24.2614 235.789 24.2194 235.88C24.8334 236.935 25.0912 238.046 24.455 239.184C22.6791 242.549 18.7759 240.745 16.4723 238.578C16.2069 238.676 15.8994 238.865 15.592 239.053C15.0672 240.903 14.5911 242.887 14.3317 244.64C14.1211 246.525 14.4346 247.992 15.1043 249.403C15.8374 249.963 16.7451 250.382 17.8694 250.571C21.955 251.028 26.3572 247.224 28.6358 244.201C31.2287 241.213 33.1869 236.5 32.6584 232.399Z" fill="#BFD2DE"/>
<path d="M60.793 252.565C70.4241 252.94 74.9478 244.345 77.1105 236.091C77.2509 234.834 77.1678 233.584 76.7284 232.389C75.4173 229.029 72.2257 228.545 69.1943 228.907C67.1546 229.506 65.0934 230.867 63.8981 232.738C65.8882 233.438 67.5564 235.31 68.3306 237.211C68.3306 237.211 68.3306 237.211 68.2887 237.301C69.1185 239.558 68.6982 241.897 65.7995 242.21C63.9276 242.446 62.4615 241.328 61.8826 239.959C59.6613 240.474 58.7237 243.456 58.4292 245.523C58.0089 247.863 58.664 250.259 59.5847 252.557C59.7662 252.641 59.857 252.683 60.0385 252.767C60.304 252.669 60.4787 252.53 60.793 252.565Z" fill="#BFD2DE"/>
<path d="M34.4691 167.467C12.1789 148.241 -8.2034 127.032 -26.671 104.064C-27.2996 103.994 -28.0609 103.973 -28.6894 103.902C-29.4507 103.881 -30.2608 103.727 -31.1128 103.664C-31.7414 103.593 -32.3699 103.523 -33.0892 103.411C-33.18 103.369 -33.3127 103.418 -33.4035 103.376C-30.0465 107.792 -27.1297 112.445 -23.7308 116.77C-23.5492 116.854 -23.3677 116.938 -23.1861 117.022C-17.9846 120.307 -14.8725 125.492 -11.5858 130.536C-10.1197 131.654 -8.82828 132.912 -7.66962 134.219C-3.89307 137.727 -0.81527 141.794 2.39526 145.812C2.92618 145.616 3.6455 145.728 4.0223 146.343C4.44107 146.867 4.76907 147.349 5.18783 147.874C6.10928 148.74 6.98876 149.697 7.82629 150.746C8.33583 151.312 8.1329 151.989 7.79039 152.492C8.99101 153.708 10.3244 154.875 11.483 156.181C12.6836 157.397 13.8004 158.795 14.9102 159.969C16.1947 161.003 17.57 162.08 18.8546 163.114C18.9453 163.156 19.0361 163.198 19.0781 163.107C19.7554 163.31 20.4816 163.646 21.117 163.939C21.7944 164.142 22.339 164.394 23.0164 164.597C23.3238 164.409 23.7289 164.486 24.1339 164.563C27.793 165.703 31.8504 166.697 35.3554 168.648C35.1182 168.208 34.839 167.858 34.4691 167.467Z" fill="#D9E4EB"/>
<path d="M100.566 220.383C105.112 222.704 109.86 224.348 114.615 226.215C123.854 229.824 132.7 233.803 142.386 235.967C149.188 237.458 156.06 238.321 163.003 238.556C166.844 238.348 170.734 238.274 174.625 238.199C174.758 238.15 174.848 238.192 175.072 238.185C176.043 237.753 177.014 237.32 177.985 236.888C178.069 236.706 178.244 236.567 178.376 236.518C180.486 235.29 182.694 234.327 184.755 232.966C186.188 231.535 187.439 230.021 188.641 228.373C188.676 228.059 188.753 227.654 188.788 227.339C174.668 236.676 157.124 235.067 141.474 231.028C126.774 227.319 112.76 221.172 99.8509 213.111C99.3756 213.663 98.6769 214.221 97.9293 214.647C97.7966 214.696 97.7547 214.787 97.6219 214.835C95.9941 215.735 94.0871 216.286 92.3967 216.606C95.2038 217.684 97.885 219.033 100.566 220.383Z" fill="#D9E4EB"/>
<path d="M25.3292 212.266C25.1057 212.273 24.9241 212.189 24.7006 212.196C16.4585 213.344 8.1615 212.704 -0.205685 212.692C-0.51996 212.657 -0.74346 212.664 -0.973821 212.447C-2.93652 212.642 -4.90608 212.613 -6.83368 212.493C-8.19001 214.951 -9.49753 217.541 -10.1765 220.202C-10.1277 220.334 -10.0789 220.467 -10.072 220.691C-9.96065 221.403 -9.8493 222.116 -9.77991 222.919C-9.25745 225.364 -8.38561 227.529 -7.55574 229.786C-7.22695 228.836 -6.89816 227.886 -6.34587 226.93C-2.57744 219.968 5.01636 216.648 12.5735 216.506C13.858 217.54 15.2684 218.302 16.8466 218.701C18.3752 220.399 21.2525 220.848 22.9368 218.872C23.6295 216.659 24.413 214.487 25.3292 212.266Z" fill="#D9E4EB"/>
<path d="M68.91 215.224C58.7205 214.15 48.531 213.076 38.2713 212.63C33.8675 219.298 33.2837 226.519 37.5263 233.548C39.1799 236.405 41.6163 238.523 43.9618 240.598C42.2952 235.862 41.914 230.728 44.2773 226.092C46.6406 221.456 50.7834 219.405 55.4212 218.905C55.7706 218.625 56.2176 218.612 56.7134 218.731C58.9271 219.423 61.0568 220.298 63.2285 221.081C64.0874 221.368 64.9043 221.746 65.6725 221.99C65.8052 221.942 65.9379 221.893 66.0707 221.844C67.0776 219.665 67.9938 217.445 68.91 215.224Z" fill="#D9E4EB"/>
<path d="M15.7434 92.383C15.1439 90.3433 14.4117 88.3523 13.9029 86.3545C12.3836 80.5846 10.8223 74.9055 6.39658 70.6566C6.25699 70.4819 6.11741 70.3072 5.97782 70.1325C5.53082 70.1463 5.08381 70.16 4.50408 70.2225C4.01512 70.327 3.7428 70.2011 3.42167 69.9425C2.93271 70.047 2.57648 70.1027 2.12948 70.1164C6.6641 79.3732 9.55716 89.083 12.3663 98.9743C13.0146 101.147 14.914 101.804 16.6463 101.393C16.1521 98.4107 15.8814 95.4213 15.7434 92.383Z" fill="#EBF0F4"/>
<path d="M-20.0168 105.158C0.896472 126.171 23.9342 144.972 48.1253 161.992C72.044 178.887 97.2978 194.085 123.475 207.286C130.792 210.998 138.242 214.662 146.07 217.509C152.948 220.028 159.994 222.183 167.152 223.618C167.962 223.772 168.061 222.606 167.383 222.403C160.973 220.542 154.569 218.904 148.284 216.77C141.546 214.427 134.92 211.364 128.559 208.203C115.432 201.805 102.466 194.821 89.9331 187.376C64.5535 172.45 40.4532 155.472 17.6039 136.978C4.84931 126.676 -7.47197 115.914 -19.4019 104.781C-19.9046 104.438 -20.3379 104.899 -20.0168 105.158Z" fill="#00497B"/>
<path d="M188.14 212.057C182.928 214.275 178.568 217.988 175.262 222.519C173.633 224.851 172.277 227.309 171.284 229.935C170.374 232.379 169.479 235.27 169.917 237.896C169.931 238.343 170.511 238.28 170.679 237.917C171.406 235.389 171.729 232.784 172.638 230.34C173.59 227.806 174.904 225.439 176.449 223.288C179.538 218.988 183.766 215.323 188.572 213.028C189.055 212.7 188.762 211.904 188.14 212.057Z" fill="#00497B"/>
<path d="M-34.5709 81.3544C-18.9298 88.0331 -3.03699 94.1673 12.8139 100.392C13.6728 100.679 14.2602 99.4082 13.4432 99.0306C-2.40764 92.8057 -18.2585 86.5808 -34.3192 80.8097C-34.6823 80.6419 -34.934 81.1866 -34.5709 81.3544Z" fill="#00497B"/>
<path d="M-35.0097 16.0442C-35.2324 14.6193 -34.3796 13.2508 -33.1499 12.4972C-31.8295 11.7855 -30.1742 11.7795 -28.7844 11.8711C-25.872 12.0054 -22.7361 12.1329 -20.0549 13.4823C-15.9213 15.5031 -14.6461 20.6093 -13.0908 24.6332C-10.4616 31.577 -7.96513 38.5697 -5.55944 45.5204C-0.552772 59.9528 4.13962 74.3501 8.92278 88.7893C10.1569 92.5546 11.3422 96.1871 12.5763 99.9523C13.0157 101.147 14.7831 100.421 14.4345 99.2689C10.9412 88.9511 7.62246 78.4937 4.1291 68.176C-1.1285 52.8564 -6.30219 37.3554 -12.4469 22.2868C-13.3188 20.1212 -14.1486 17.8648 -15.4606 15.9364C-17.289 13.2185 -20.019 11.7363 -23.1686 11.1618C-24.9703 10.7697 -26.8072 10.6918 -28.644 10.614C-29.9431 10.5643 -31.1513 10.5567 -32.3947 10.8633C-34.658 11.4697 -36.5589 13.6756 -35.6802 16.0648C-35.443 16.5049 -34.9541 16.4004 -35.0097 16.0442Z" fill="#00497B"/>
<path d="M-32.7063 104.25C-31.3387 106.534 -29.5728 108.673 -27.8978 110.769C-26.2227 112.865 -24.5476 114.961 -22.9634 117.016C-19.7528 121.033 -16.6331 125.009 -13.3806 128.936C-6.91755 136.881 -0.237879 144.595 6.87507 151.849C8.81559 153.848 10.8469 155.888 12.8294 157.796C14.9026 159.746 16.9407 162.01 19.3565 163.457C19.8592 163.799 20.5511 163.018 20.1323 162.494C18.5968 160.572 16.5793 158.978 14.7852 157.378C12.9423 155.645 11.1902 153.954 9.38926 152.13C5.69663 148.44 2.26945 144.653 -1.24849 140.823C-8.06089 133.158 -14.4331 125.255 -20.8962 117.31C-22.7108 115.039 -24.5674 112.859 -26.3821 110.588C-28.2875 108.275 -30.151 105.872 -32.273 103.789C-32.5942 103.53 -32.8947 103.942 -32.7063 104.25Z" fill="#00497B"/>
<path d="M11.3113 99.5878C22.9935 104.106 34.9274 108.08 46.8263 112.368C58.6344 116.614 70.4913 120.993 82.1735 125.511C103.275 133.723 124.657 142.283 143.612 154.901C161.562 166.833 177.812 183.157 185.204 203.87C188.342 212.812 191.728 226.936 182.261 233.356C177.922 236.308 172.083 237.024 166.907 237.496C161.417 237.933 155.725 237.616 150.278 236.53C144.112 235.332 137.925 233.464 131.961 231.589C121.661 228.37 111.431 224.523 101.67 219.901C98.8558 218.6 96.0839 217.209 93.3119 215.818C92.3134 215.356 91.7748 216.76 92.6406 217.27C102.897 223.443 114.216 227.793 125.564 231.606C132.253 233.817 139.027 235.846 145.968 237.512C155.934 240.025 166.64 240.457 176.671 237.823C181.687 236.506 186.123 233.819 188.438 229.05C190.752 224.281 190.713 218.645 189.885 213.525C186.265 191.802 171.064 173.208 154.148 159.991C136.039 145.782 114.63 136.327 93.3401 127.808C81.3368 123.031 69.2076 118.527 57.1272 114.155C44.956 109.741 32.694 105.285 20.2711 101.416C17.3801 100.52 14.5311 99.5338 11.5981 98.7289C11.1023 98.6099 10.8574 99.3781 11.3113 99.5878Z" fill="#00497B"/>
<path d="M184.035 197.821C182.337 199.35 180.171 200.222 177.936 200.29C177.58 200.346 177.175 200.269 176.854 200.01C176.623 199.794 176.526 199.528 176.428 199.263C175.842 197.67 175.208 195.945 174.622 194.352C174.573 194.219 174.475 193.954 174.559 193.772C174.643 193.591 174.776 193.542 174.909 193.493C176.627 192.635 178.346 191.777 180.065 190.919L184.035 197.821Z" fill="#00497B"/>
<path d="M170.781 194.559C172.1 196.711 172.56 198.576 172.817 201.118C167.605 203.336 161.508 202.942 156.725 200.18C157.467 198.099 158.299 196.06 159.041 193.979C159.083 193.889 159.167 193.707 159.299 193.658C159.474 193.519 159.655 193.603 159.879 193.596C163.58 194.645 167.086 195.164 170.781 194.559Z" fill="#00497B"/>
<path d="M101.984 132.465C104.548 131.446 106.965 130.03 109.432 128.746C111.898 127.463 114.406 126.088 116.781 124.762C121.756 122.104 126.772 119.355 131.746 116.697C133.067 115.985 134.429 115.183 135.952 115.225C137.118 115.324 138.424 115.597 139.597 115.919C142.125 116.647 144.541 118.094 145.426 120.706C146.256 122.963 145.975 125.477 145.688 127.768C145.365 130.373 145.084 132.887 144.761 135.492C144.053 141.554 143.344 147.616 142.768 153.629C142.669 154.795 144.422 155.055 144.521 153.888C145.327 148.092 145.819 142.26 146.444 136.38C146.76 133.551 147.034 130.814 147.35 127.985C147.589 125.562 147.827 123.138 147.13 120.833C146.433 118.528 144.856 116.697 142.81 115.641C140.715 114.453 137.873 113.69 135.547 113.717C134.339 113.709 133.235 114.19 132.09 114.762C130.636 115.523 129.274 116.325 127.912 117.128C125.229 118.642 122.588 120.065 119.814 121.537C116.866 123.149 113.785 124.81 110.837 126.421C107.756 128.082 104.36 129.707 101.517 131.808C101.3 132.038 101.586 132.611 101.984 132.465Z" fill="#00497B"/>
<path d="M135.575 114.611C129.215 121.697 121.802 127.964 114.144 133.569C113.005 134.364 111.824 135.251 110.776 136.088C110.426 136.367 110.538 137.08 111.117 137.017C112.277 136.892 113.325 136.055 114.289 135.399C116.085 134.135 117.699 132.788 119.446 131.392C123.548 128 127.558 124.566 131.29 120.783C133.114 118.982 134.805 117.23 136.217 115.128C136.609 114.758 135.966 114.241 135.575 114.611Z" fill="#00497B"/>
<path d="M18.2684 162.954C34.9088 168.662 51.1014 175.816 66.1894 184.883C73.7998 189.393 81.0676 194.404 88.1677 199.779C91.1906 202.058 94.6186 204.413 96.9916 207.383C98.0595 208.648 98.9527 210.052 99.3569 211.561C99.6567 212.581 100.054 213.866 98.7687 214.264C97.8396 214.605 96.6733 214.507 95.6466 214.583C86.9018 215.388 78.2974 214.937 69.5885 213.996C60.8376 213.146 52.0867 212.296 43.2588 211.851C26.05 210.947 8.92431 211.294 -8.2365 211.955C-24.8176 212.553 -41.5802 213.068 -58.1246 210.488C-60.1918 210.194 -62.3078 209.766 -64.333 209.381C-65.4574 209.192 -65.6748 210.854 -64.6412 211.001C-47.7902 214.824 -30.2175 214.464 -13.0987 213.894C4.9142 213.296 22.8363 212.657 40.7156 213.54C49.8578 214.02 58.8741 214.772 68.03 215.699C76.9624 216.633 85.8391 217.211 94.8563 216.531C95.883 216.455 97.0425 216.33 98.0692 216.254C98.8724 216.184 99.6757 216.115 100.332 215.647C101.87 214.705 101.675 212.743 101.271 211.234C100.497 207.902 97.9985 205.205 95.4714 203.045C88.6719 197.258 81.2645 192.072 73.6892 187.248C58.3571 177.518 41.8717 169.567 24.6447 163.698C22.5637 162.956 20.3989 162.396 18.3668 161.788C17.9686 161.934 17.6818 162.793 18.2684 162.954Z" fill="#00497B"/>
<path d="M-84.3745 189.101C-80.9938 188.46 -77.7244 187.107 -74.4412 186.201C-71.0254 185.246 -67.6515 184.382 -64.096 183.602C-57.2506 182.139 -50.2168 180.983 -43.3225 179.653C-29.534 176.993 -15.9476 173.578 -2.3681 169.94C1.49476 168.971 5.30881 167.87 9.17167 166.901C11.0367 166.441 12.9018 165.981 14.7181 165.389C16.5831 164.929 18.6297 164.553 20.2995 163.562C20.6489 163.283 20.4956 162.661 20.0905 162.584C18.4772 162.499 17.0592 162.945 15.5503 163.35C13.6853 163.81 11.8202 164.27 10.0039 164.862C6.63004 165.726 3.21417 166.681 -0.159726 167.545C-6.94949 169.365 -13.83 171.142 -20.6686 172.828C-27.6399 174.563 -34.5692 176.208 -41.5962 177.587C-48.6652 179.056 -55.741 180.303 -62.8099 181.772C-66.4981 182.601 -70.0955 183.473 -73.7348 184.434C-77.4162 185.487 -81.279 186.456 -84.6255 188.214C-84.926 188.626 -84.7308 189.157 -84.3745 189.101Z" fill="#00497B"/>
<path d="M-83.8817 193.515C-76.4009 192.346 -68.9406 190.507 -61.5643 188.848C-54.0971 187.232 -46.7208 185.574 -39.2117 183.867C-24.5917 180.6 -10.0206 177.2 4.6345 173.618C12.94 171.618 21.1966 169.485 29.4113 167.444C30.6547 167.137 29.9293 165.37 28.7279 165.585C-0.617379 173.063 -30.0114 180.408 -59.4261 187.083C-67.5568 188.943 -75.876 190.496 -83.9511 192.712C-84.4332 193.04 -84.238 193.571 -83.8817 193.515Z" fill="#00497B"/>
<path d="M24.2462 213.419C23.7007 214.599 23.1553 215.779 22.6518 216.868C22.4001 217.413 22.1971 218.09 21.9454 218.635C21.7844 219.221 21.3161 219.996 21.6929 220.611C21.8324 220.786 22.1048 220.912 22.2794 220.772C22.9011 220.619 23.1392 219.627 23.3489 219.173C23.6007 218.629 23.8036 217.951 23.9646 217.365C24.4192 216.143 24.7831 214.879 25.1051 213.706C25.266 213.119 24.4559 212.965 24.2462 213.419Z" fill="#00497B"/>
<path d="M9.33618 213.026C10.1729 215.506 12.6024 217.4 14.8786 218.672C16.1074 219.351 17.3782 219.938 18.6422 220.302C19.2288 220.463 19.9062 220.666 20.4927 220.827C20.9886 220.946 21.7987 221.1 22.3296 220.905C22.637 220.716 22.8048 220.353 22.4837 220.094C22.0718 219.794 21.534 219.766 21.0382 219.647C20.4516 219.486 19.823 219.416 19.2784 219.164C18.0144 218.8 16.8344 218.254 15.6544 217.709C13.3782 216.437 11.6261 214.745 9.90906 212.74C9.72065 212.433 9.2805 212.67 9.33618 213.026Z" fill="#00497B"/>
<path d="M-6.84636 212.047C-13.1145 217.742 -10.2916 228.081 -6.43274 234.271C-1.49227 242.173 6.67646 247.381 14.9368 251.199C15.9353 251.66 16.6485 250.117 15.692 249.565C8.19295 245.768 0.722173 241.434 -4.19086 234.426C-8.44791 228.382 -11.5996 218.993 -6.33682 212.613C-6.07822 212.292 -6.49698 211.768 -6.84636 212.047Z" fill="#00497B"/>
<path d="M15.649 249.655C14.4835 248.125 14.9321 245.248 15.1915 243.495C15.486 241.428 16.0947 239.396 17.0666 237.532C18.8356 233.943 21.7641 230.229 25.6064 228.589C27.6393 227.766 30.5936 227.81 31.5143 230.108C32.1909 231.743 31.7568 233.636 31.3578 235.214C30.3218 239.362 28.4337 243.447 25.3031 246.406C23.9544 247.656 22.3754 248.688 20.6499 249.323C18.659 250.055 16.7314 249.935 14.7062 249.55C13.9869 249.438 13.7488 250.43 14.3842 250.723C18.1128 252.667 22.6607 250.693 25.6723 248.229C29.5993 244.977 31.9557 240.117 33.1038 235.25C33.5379 233.357 33.7836 231.157 32.9674 229.348C32.1025 227.406 29.9239 226.399 27.9124 226.46C23.1281 226.563 18.9349 231.344 16.7257 235.171C15.2786 237.586 14.3342 240.345 13.9275 243.131C13.633 245.198 13.1562 248.613 15.083 250.165C15.3622 250.514 16.0189 250.047 15.649 249.655Z" fill="#00497B"/>
<path d="M33.0244 229.703C33.4936 227.497 31.9513 225.352 30.129 224.289C28.1251 223.142 25.569 222.952 23.3896 223.377C16.4115 224.889 12.5309 232.57 10.6626 238.757C9.68997 242.053 9.32448 246.18 11.8653 248.787C12.326 249.22 13.1575 248.613 12.8295 248.131C11.1133 244.694 11.4994 241.237 12.7794 237.752C14.1434 234.086 15.8636 230.364 18.8264 227.768C21.0905 225.73 23.9617 224.523 27.0625 224.965C28.3196 225.105 29.5416 225.56 30.505 226.336C31.7407 227.237 32.1381 228.523 32.6263 229.85C32.6751 229.983 32.9405 229.885 33.0244 229.703Z" fill="#00497B"/>
<path d="M32.3552 226.861C31.8396 224.64 30.5628 222.397 29.2996 220.601C28.6436 219.637 27.9037 218.855 27.115 217.939C26.6543 217.506 26.2843 217.115 25.8236 216.681C25.4117 216.381 24.9022 215.815 24.3644 215.787C23.9593 215.709 23.6588 216.121 23.8472 216.429C24.0425 216.96 24.5451 217.302 24.957 217.603C25.327 217.994 25.7389 218.295 26.1088 218.686C26.9395 219.511 27.6794 220.293 28.3354 221.257C29.6893 223.095 30.7778 225.03 31.8243 227.056C31.9708 227.455 32.4529 227.127 32.3552 226.861Z" fill="#00497B"/>
<path d="M68.2305 215.021C67.6851 216.201 67.1397 217.381 66.6362 218.471C66.3844 219.015 66.1815 219.693 65.9298 220.237C65.7688 220.824 65.3004 221.599 65.6772 222.214C65.8168 222.388 66.0891 222.514 66.2638 222.375C66.8855 222.221 67.1235 221.23 67.3333 220.776C67.5851 220.231 67.788 219.554 67.949 218.967C68.4036 217.745 68.7675 216.481 69.0894 215.308C69.2504 214.722 68.4403 214.568 68.2305 215.021Z" fill="#00497B"/>
<path d="M52.6839 214.335C52.8998 215.537 53.8212 216.403 54.6519 217.228C55.8037 218.311 56.9975 219.303 58.4079 220.065C59.6367 220.744 60.9076 221.331 62.2203 221.828C62.8977 222.031 63.6239 222.366 64.3432 222.478C64.9298 222.639 65.6491 222.751 66.18 222.556C66.4455 222.459 66.6972 221.914 66.3341 221.746C65.9222 221.446 65.3844 221.417 64.8886 221.298C64.2113 221.095 63.6247 220.934 62.9473 220.731C61.7253 220.277 60.5033 219.822 59.3652 219.186C58.1363 218.508 56.9494 217.739 55.8465 216.788C54.9738 216.055 53.9197 215.237 53.3056 214.182C53.1172 213.874 52.6283 213.979 52.6839 214.335Z" fill="#00497B"/>
<path d="M37.7395 212.825C33.0787 216.95 32.9 224.249 34.7268 229.83C36.9021 236.564 41.7252 242.099 47.3103 246.223C50.9267 248.886 54.9764 251.088 59.0611 252.976C60.0596 253.438 60.7729 251.894 59.8163 251.342C51.9542 247.378 44.0715 242.743 39.1867 235.197C35.0556 228.881 32.9444 219.863 38.2979 213.524C38.5077 213.07 38.0889 212.546 37.7395 212.825Z" fill="#00497B"/>
<path d="M60.1026 251.916C58.9371 250.385 58.8754 248.374 59.044 246.579C59.2058 244.561 59.6818 242.577 60.4301 240.72C61.8849 237.096 64.3313 233.71 67.5733 231.463C69.369 230.2 71.8 229.23 73.8878 230.195C75.7521 231.167 75.9953 233.262 75.7848 235.148C75.2797 239.101 73.3565 243.5 70.7217 246.578C69.2541 248.324 67.5072 249.72 65.4324 250.633C63.3575 251.547 61.3948 251.742 59.1598 251.81C58.3985 251.789 58.4328 252.906 59.1102 253.109C63.3071 254.278 68.2394 251.711 71.1046 248.849C73.0544 246.775 74.5015 244.36 75.4947 241.734C76.369 239.604 77.1944 237.342 77.3493 235.1C77.4691 233.172 77.0931 231.126 75.6201 229.784C73.9657 228.358 71.5003 228.21 69.5093 228.942C65.0805 230.421 61.544 234.735 59.6559 238.82C58.5231 241.271 57.7114 243.98 57.5283 246.76C57.4153 248.911 57.4908 251.369 59.3688 252.788C59.9065 252.816 60.4726 252.307 60.1026 251.916Z" fill="#00497B"/>
<path d="M76.852 234.98C78.3479 232.697 78.3846 229.52 76.4441 227.521C74.2732 225.306 70.8025 224.473 67.8199 224.967C60.6533 226.171 56.6819 233.81 54.639 240.136C53.6244 243.523 53.1262 247.7 55.7646 250.572C56.2253 251.005 57.0568 250.398 56.7288 249.916C55.0126 246.478 55.3987 243.021 56.6787 239.537C58.0008 235.962 59.6791 232.331 62.4603 229.65C65.1996 227.061 69.0068 225.736 72.6728 227.1C73.8948 227.554 75.2144 228.275 76.01 229.413C77.2243 231.076 76.5667 232.976 76.4889 234.813C76.5377 234.945 76.768 235.162 76.852 234.98Z" fill="#00497B"/>
<path d="M77.1985 228.75C76.6341 226.396 75.2245 224.203 73.689 222.281C72.9423 221.275 72.1116 220.45 71.2321 219.493C70.7714 219.06 70.4014 218.668 69.8988 218.326C69.4869 218.025 68.9773 217.459 68.3488 217.389C67.9437 217.312 67.6432 217.724 67.8316 218.031C68.0268 218.562 68.5295 218.905 68.9414 219.205C69.4021 219.639 69.7721 220.03 70.2748 220.372C71.1962 221.239 72.0269 222.064 72.8156 222.979C74.393 224.81 75.5723 226.787 76.8003 228.897C76.814 229.344 77.2542 229.107 77.1985 228.75Z" fill="#00497B"/>
<path d="M188.31 208.831C184.958 207.502 180.808 209.329 177.902 210.85C174.646 212.65 172.089 215.324 169.852 218.256C167.615 221.188 165.658 224.47 164.469 227.996C163.356 231.117 162.446 234.993 163.534 238.36C163.729 238.891 164.484 238.689 164.512 238.151C164.584 234.659 164.844 231.474 166.131 228.214C167.334 225.134 168.942 222.132 171.053 219.472C172.989 216.952 175.239 214.467 177.915 212.729C179.452 211.787 181.038 210.978 182.854 210.385C184.67 209.792 186.458 209.737 188.47 209.676C188.603 209.627 188.764 209.04 188.31 208.831Z" fill="#00497B"/>
<path d="M-28.3107 11.3192C-27.8115 30.4984 -26.5092 49.6082 -25.3883 68.634C-25.2153 71.358 -25.0422 74.082 -24.8691 76.806C-24.696 79.53 -24.6137 82.212 -24.3079 84.8871C-24.1477 85.7323 -23.079 85.5653 -23.0576 84.804C-22.9782 80.1036 -23.4853 75.2423 -23.7201 70.5068C-23.955 65.7713 -24.2805 60.9938 -24.5154 56.2584C-25.0338 46.6546 -25.685 37.0998 -26.2035 27.496C-26.5496 22.0481 -26.9378 16.6909 -27.4167 11.2918C-27.6119 10.7609 -28.3244 10.8722 -28.3107 11.3192Z" fill="#00497B"/>
<path d="M3.41586 69.7183C4.36554 70.0471 5.44795 70.3271 6.2298 71.019C6.92089 71.6689 7.22064 72.6888 7.60431 73.5271C8.8949 76.2168 9.96199 78.9133 10.8964 81.6587C11.8376 84.6276 12.3806 87.7429 13.0564 90.8093C13.8298 94.1413 14.5124 97.4313 15.3766 100.805C15.6763 101.825 17.3179 101.372 17.1089 100.394C16.4614 96.7898 15.5484 93.2832 14.6774 89.6858C13.904 86.3538 13.2213 83.0638 12.1825 79.8295C11.1993 76.9514 9.90872 74.2618 8.39462 71.5789C7.30615 69.6437 5.86066 69.1959 3.7027 68.8594C3.25569 68.8732 2.92004 69.5993 3.41586 69.7183Z" fill="#00497B"/>
<path d="M3.27232 114.599C3.60798 113.873 3.94363 113.147 4.23733 112.512C4.69885 111.513 4.30146 110.228 3.30296 109.766C2.8491 109.557 2.39524 109.347 1.94138 109.137C0.94288 108.675 -0.251682 109.115 -0.671248 110.022C-1.0069 110.749 -1.43332 111.433 -1.76897 112.159C-2.2305 113.158 -1.88193 114.31 -0.925386 114.862C-0.471524 115.072 0.07311 115.324 0.526973 115.534C1.70702 116.079 2.90158 115.64 3.27232 114.599Z" fill="#00497B"/>
<path d="M15.245 122.778C15.5806 122.052 15.9163 121.326 16.21 120.69C16.6715 119.692 16.2741 118.407 15.2756 117.945C14.8218 117.735 14.3679 117.525 13.914 117.316C12.9155 116.854 11.721 117.293 11.3014 118.201C10.9658 118.927 10.5393 119.612 10.2037 120.338C9.74216 121.336 10.0907 122.489 11.0473 123.041C11.5011 123.251 12.0458 123.503 12.4996 123.712C13.5469 124.307 14.7835 123.777 15.245 122.778Z" fill="#00497B"/>
<path d="M26.9598 131.277C27.2955 130.551 27.6311 129.825 27.9248 129.189C28.3863 128.191 27.989 126.906 26.9905 126.444C26.5366 126.234 26.0827 126.024 25.6289 125.815C24.6304 125.353 23.4358 125.793 23.0163 126.7C22.6806 127.426 22.2542 128.111 21.9185 128.837C21.457 129.835 21.8056 130.988 22.7621 131.54C23.216 131.75 23.7606 132.002 24.2145 132.212C25.3037 132.715 26.5891 132.318 26.9598 131.277Z" fill="#00497B"/>
<path d="M38.7235 139.91C39.0591 139.184 39.3948 138.458 39.6885 137.822C40.15 136.824 39.7526 135.538 38.7541 135.077C38.3003 134.867 37.8464 134.657 37.3925 134.447C36.394 133.986 35.1995 134.425 34.7799 135.333C34.4443 136.059 34.0178 136.743 33.6822 137.47C33.2207 138.468 33.5692 139.621 34.5258 140.173C34.9796 140.383 35.5243 140.635 35.9781 140.844C37.0255 141.439 38.22 140.999 38.7235 139.91Z" fill="#00497B"/>
<path d="M50.2294 148.863C50.565 148.137 50.9007 147.411 51.1944 146.775C51.6559 145.777 51.2585 144.491 50.26 144.03C49.8061 143.82 49.3523 143.61 48.8984 143.401C47.8999 142.939 46.7054 143.378 46.2858 144.286C45.9501 145.012 45.5237 145.697 45.1881 146.423C44.7265 147.421 45.0751 148.574 46.0316 149.126C46.4855 149.336 47.0301 149.588 47.484 149.797C48.5733 150.301 49.8586 149.904 50.2294 148.863Z" fill="#00497B"/>
<path d="M62.37 156.679C62.7056 155.952 63.0413 155.226 63.335 154.591C63.7965 153.592 63.3991 152.307 62.4006 151.845C61.9468 151.636 61.4929 151.426 61.039 151.216C60.0405 150.755 58.846 151.194 58.4264 152.102C58.0908 152.828 57.6643 153.512 57.3287 154.238C56.8672 155.237 57.2157 156.389 58.1723 156.942C58.6261 157.151 59.1708 157.403 59.6246 157.613C60.7139 158.116 61.9085 157.677 62.37 156.679Z" fill="#00497B"/>
<path d="M74.2938 164.723C74.6295 163.997 74.9651 163.271 75.2588 162.636C75.7203 161.637 75.323 160.352 74.3245 159.89C73.8706 159.681 73.4167 159.471 72.9629 159.261C71.9644 158.799 70.7698 159.239 70.3502 160.147C70.0146 160.873 69.5882 161.557 69.2525 162.283C68.791 163.282 69.1396 164.434 70.0961 164.986C70.55 165.196 71.0946 165.448 71.5485 165.658C72.6377 166.161 73.9231 165.764 74.2938 164.723Z" fill="#00497B"/>
<path d="M86.5614 172.266C86.897 171.54 87.2327 170.814 87.5264 170.179C87.9879 169.18 87.5905 167.895 86.592 167.433C86.1382 167.224 85.6843 167.014 85.2304 166.804C84.2319 166.342 83.0374 166.782 82.6178 167.689C82.2822 168.416 81.8557 169.1 81.5201 169.826C81.0586 170.825 81.4071 171.977 82.3637 172.529C82.8175 172.739 83.3622 172.991 83.816 173.201C84.9053 173.704 86.0999 173.265 86.5614 172.266Z" fill="#00497B"/>
<path d="M98.8641 179.495C99.1998 178.769 99.5354 178.043 99.8291 177.407C100.291 176.409 99.8933 175.123 98.8948 174.662C98.4409 174.452 97.987 174.242 97.5332 174.032C96.5347 173.571 95.3401 174.01 94.9206 174.918C94.5849 175.644 94.1585 176.328 93.8228 177.055C93.3613 178.053 93.7099 179.206 94.6664 179.758C95.1203 179.968 95.6649 180.22 96.1188 180.429C97.208 180.933 98.4934 180.535 98.8641 179.495Z" fill="#00497B"/>
<path d="M111.468 186.312C111.803 185.586 112.139 184.86 112.433 184.225C112.894 183.226 112.497 181.941 111.498 181.479C111.044 181.269 110.591 181.06 110.137 180.85C109.138 180.388 107.944 180.828 107.524 181.735C107.188 182.462 106.762 183.146 106.426 183.872C105.965 184.87 106.313 186.023 107.27 186.575C107.724 186.785 108.268 187.037 108.722 187.247C109.812 187.75 111.006 187.311 111.468 186.312Z" fill="#00497B"/>
<path d="M123.979 193.087C124.315 192.361 124.651 191.634 124.944 190.999C125.406 190 125.009 188.715 124.01 188.254C123.556 188.044 123.102 187.834 122.648 187.624C121.65 187.163 120.455 187.602 120.036 188.51C119.7 189.236 119.274 189.92 118.938 190.646C118.477 191.645 118.825 192.797 119.782 193.35C120.236 193.56 120.78 193.811 121.234 194.021C122.281 194.615 123.476 194.176 123.979 193.087Z" fill="#00497B"/>
<path d="M64.7651 233.249C65.8681 234.199 66.8383 235.199 67.6827 236.47C68.3875 237.567 68.7361 238.72 68.3722 239.984C68.0922 241.066 67.128 241.722 66.0037 241.533C64.7466 241.392 63.6016 240.533 62.6382 239.757C62.3171 239.498 62.0867 239.282 61.7656 239.023C61.4445 238.765 61.2561 238.457 60.8022 238.247C60.4391 238.079 60.0829 238.135 59.9151 238.498C59.7472 238.861 59.8937 239.26 60.1728 239.609C60.6404 240.266 61.2827 240.783 61.8761 241.167C62.4276 241.643 63.0211 242.027 63.6565 242.321C64.8365 242.866 66.1005 243.23 67.4346 242.965C68.8108 242.61 69.7124 241.374 69.9855 240.068C70.3845 238.49 69.7987 236.897 68.9543 235.626C68.4868 234.969 67.9772 234.403 67.3769 233.795C66.7766 233.187 65.9528 232.586 65.1007 232.523C64.6537 232.536 64.444 232.99 64.7651 233.249Z" fill="#00497B"/>
<path d="M19.7365 232.707C20.8815 233.566 21.9425 234.608 22.8289 235.788C23.5756 236.795 24.015 237.989 23.7419 239.295C23.4619 240.377 22.6304 240.985 21.4221 240.977C20.1231 240.927 18.9362 240.158 17.9728 239.383C17.6516 239.124 17.4213 238.907 17.1001 238.649C16.779 238.39 16.4998 238.041 16.046 237.831C15.7736 237.705 15.3755 237.852 15.2496 238.124C15.0818 238.487 15.319 238.927 15.5982 239.277C16.1077 239.843 16.75 240.36 17.3434 240.744C17.9369 241.129 18.6211 241.555 19.2565 241.849C20.4365 242.394 21.7425 242.667 22.937 242.228C24.2643 241.74 25.166 240.504 25.3483 239.156C25.6146 237.627 24.938 235.992 23.9609 234.769C23.4933 234.113 22.893 233.505 22.2507 232.987C21.6085 232.47 20.7427 231.96 19.8487 231.987C19.6252 231.994 19.4642 232.581 19.7365 232.707Z" fill="#00497B"/>
</g>
<defs>
<clipPath id="clip0_20_23768">
<rect width="307.1" height="202.4" fill="white" transform="translate(-44.4727 0.763672) rotate(24.8072)"/>
</clipPath>
</defs>
</svg>
