<svg width="176" height="204" viewBox="0 0 176 204" fill="none" xmlns="http://www.w3.org/2000/svg">
<g id="shape" opacity="0.1">
<path id="Vector" d="M71.5476 199.171C73.6942 199.514 75.8789 199.209 77.9239 198.332C81.7472 196.694 84.4273 193.125 85.0117 189.086L88.3144 166.095L134.549 146.281L153.475 159.745C156.803 162.108 161.236 162.629 165.059 160.99C167.015 160.152 168.742 158.78 170.063 156.951C173.887 151.629 172.591 144.186 167.307 140.451L155.291 131.814C158.696 125.514 159.369 117.753 156.359 110.729L124.427 36.2197C119.931 25.7279 108.868 20.0501 98.0964 21.9298C98.0456 20.5834 97.69 19.2624 97.1565 18.0177C94.5654 11.9716 87.5795 9.17706 81.5334 11.7682L27.3852 34.9738C21.3391 37.5649 18.5447 44.5509 21.1358 50.597C21.6692 51.8418 22.4695 52.9722 23.3205 53.9757C14.5307 60.4789 11.0122 72.4059 15.5085 82.8976L47.44 157.407C50.4884 164.52 56.6106 169.474 63.5712 171.227L61.5006 185.796C60.5606 192.197 65.1459 198.231 71.5476 199.171Z" fill="white"/>
<g id="Group">
<path id="Vector_2" d="M123.131 109.077C120.019 110.411 118.596 113.967 119.93 117.079C121.264 120.191 124.82 121.614 127.932 120.28C131.044 118.946 132.467 115.39 131.133 112.278C129.799 109.166 126.154 107.781 123.131 109.077Z" fill="white"/>
<path id="Vector_3" d="M78.4063 134.874C77.0727 131.762 73.5162 130.339 70.4043 131.673C67.2923 133.006 65.8697 136.563 67.2033 139.675C68.537 142.787 72.0934 144.209 75.2054 142.876C78.3174 141.542 79.74 137.986 78.4063 134.874Z" fill="white"/>
<path id="Vector_4" d="M138.005 129.539C143.073 127.368 145.461 121.398 143.289 116.33L111.357 41.8205C109.185 36.7525 103.215 34.3645 98.1474 36.5364L33.7743 64.124C28.7063 66.296 26.3182 72.2658 28.4902 77.3339L60.4217 151.843C62.5936 156.911 68.5635 159.299 73.6315 157.127L138.005 129.539ZM129.647 124.281C124.312 126.567 118.177 124.039 115.929 118.793C113.643 113.459 116.17 107.324 121.416 105.076C126.751 102.789 132.886 105.317 135.134 110.563C137.421 115.898 134.893 122.033 129.647 124.281ZM38.8294 86.4793C36.8861 81.9447 39.02 76.61 43.5546 74.6666L98.9475 50.9276C103.482 48.9842 108.817 51.1182 110.76 55.6528L124.973 88.8173C126.916 93.3519 124.782 98.6866 120.248 100.63L64.855 124.369C60.3204 126.312 54.9857 124.178 53.0424 119.644L38.8294 86.4793ZM63.2035 141.389C60.9173 136.055 63.445 129.92 68.6909 127.672C74.0257 125.385 80.1606 127.913 82.4088 133.159C84.695 138.494 82.1673 144.629 76.9214 146.877C71.5866 149.163 65.4898 146.724 63.2035 141.389Z" fill="#F4C117"/>
<path id="Vector_5" d="M63.1017 120.279L118.495 96.5403C120.806 95.5496 121.962 92.8442 120.933 90.4435L106.72 57.2789C105.73 54.9672 103.024 53.8113 100.624 54.8401L45.2307 78.5792C42.919 79.5699 41.7631 82.2754 42.7919 84.676L57.0048 117.841C58.1226 120.203 60.7899 121.27 63.1017 120.279Z" fill="#2ABCBF"/>
<path id="Vector_6" d="M53.5108 138.913C53.5108 138.913 60.8269 153.774 102.705 135.827C144.494 117.918 140.023 102.574 140.023 102.574C140.023 102.574 150.528 117.753 143.834 126.936C137.14 136.119 84.3125 156.023 74.621 158.703C64.8787 161.51 58.1848 159.642 53.5108 138.913Z" fill="#F49D1E"/>
<path id="Vector_7" d="M76.8948 135.522C77.8855 137.834 76.8186 140.501 74.5068 141.492C72.1951 142.482 69.5277 141.415 68.537 139.104C67.5463 136.792 68.6133 134.125 70.925 133.134C73.3638 132.194 75.9041 133.21 76.8948 135.522Z" fill="#F4C117"/>
<path id="Vector_8" d="M129.709 112.887C130.7 115.199 129.633 117.866 127.321 118.857C125.01 119.848 122.342 118.781 121.351 116.469C120.361 114.157 121.428 111.49 123.739 110.499C126.089 109.597 128.719 110.575 129.709 112.887Z" fill="#F4C117"/>
<path id="Vector_9" d="M50.9071 105.825C50.9071 105.825 49.5229 76.3184 49.0148 76.1152C48.5957 75.8738 55.5055 73.3335 54.3496 73.8289C53.1938 74.3242 55.0986 115.605 55.0986 115.605L50.9071 105.825Z" fill="white"/>
<path id="Vector_10" d="M61.7671 123.061L59.3416 71.479L67.8772 67.8209L70.036 119.517L61.7671 123.061Z" fill="white"/>
<path id="Vector_11" d="M32.4629 92.996C32.4629 92.996 28.2588 78.2745 32.7934 70.4376C37.2899 62.5117 97.738 39.7635 104.013 39.916C110.376 40.0303 119.242 55.8061 119.242 55.8061C119.242 55.8061 113.488 37.96 108.268 34.6193C103.047 31.2787 91.6158 37.0198 87.9831 38.3661C84.3885 39.8014 34.1272 58.8155 29.1226 63.5913C24.0673 68.4941 27.6109 85.6035 32.4629 92.996Z" fill="white"/>
<path id="Vector_12" d="M64.8154 124.281L120.208 100.542C124.743 98.5984 126.877 93.2637 124.933 88.7291L110.721 55.5645C108.777 51.0299 103.442 48.896 98.9079 50.8393L43.515 74.5784C38.9804 76.5217 36.8465 81.8564 38.7898 86.391L53.0028 119.556C54.9842 124.179 60.2808 126.224 64.8154 124.281ZM42.9179 84.7271C41.9272 82.4154 42.956 79.6591 45.3567 78.6303L100.75 54.8912C103.061 53.9005 105.818 54.9293 106.846 57.33L121.059 90.4946C122.05 92.8063 121.021 95.5626 118.621 96.5915L63.2277 120.331C60.9159 121.321 58.1597 120.292 57.1309 117.892L42.9179 84.7271Z" fill="#152532"/>
<path id="Vector_13" d="M82.4084 133.158C80.1221 127.823 73.9364 125.423 68.6905 127.671C63.3557 129.957 60.955 136.143 63.2032 141.389C65.4894 146.724 71.6752 149.124 76.9211 146.876C82.1669 144.628 84.6947 138.493 82.4084 133.158ZM67.2043 139.674C65.8706 136.562 67.2932 133.006 70.4052 131.672C73.5172 130.338 77.0736 131.761 78.4073 134.873C79.7409 137.985 78.3183 141.541 75.2064 142.875C72.0944 144.209 68.5379 142.786 67.2043 139.674Z" fill="#152532"/>
<path id="Vector_14" d="M121.413 105.075C116.078 107.361 113.678 113.547 115.926 118.793C118.212 124.128 124.398 126.529 129.644 124.28C134.978 121.994 137.379 115.808 135.131 110.562C132.883 105.317 126.659 102.827 121.413 105.075ZM127.929 120.279C124.817 121.613 121.261 120.19 119.927 117.078C118.593 113.966 120.016 110.41 123.128 109.076C126.24 107.743 129.796 109.165 131.13 112.277C132.464 115.389 130.952 118.984 127.929 120.279Z" fill="#152532"/>
<path id="Vector_15" d="M72.9321 189.631C73.3639 189.657 73.7577 189.593 74.1133 189.441C74.8246 189.136 75.2946 188.513 75.3836 187.739L79.4358 159.376L135.718 135.255L159.051 151.882C159.673 152.352 160.537 152.403 161.159 152.136C161.515 151.984 161.832 151.743 162.112 151.412C162.861 150.46 162.595 149.101 161.642 148.351L140.43 133.236C147.302 129.87 150.427 121.69 147.378 114.577L115.447 40.068C112.322 32.7771 103.812 29.3729 96.5212 32.4975L73.6705 42.2904L69.4028 32.3321L87.0966 24.7493C88.1635 24.292 88.7605 22.9838 88.2652 21.8279C87.7698 20.672 86.4996 20.1639 85.3438 20.6593L31.1956 43.8649C30.1287 44.3222 29.5317 45.6305 30.0271 46.7863C30.5224 47.9422 31.7926 48.4503 32.9484 47.9549L50.0198 40.6389L54.2875 50.5971L32.0592 60.1232C24.7683 63.2478 21.3641 71.758 24.4887 79.0488L56.4201 153.558C59.4685 160.671 67.6738 164.101 74.8123 161.357L71.1284 187.142C70.8871 188.298 71.7762 189.39 72.9321 189.631ZM53.9828 38.8352L65.1858 34.0341L69.4535 43.9924L58.2505 48.7935L53.9828 38.8352ZM60.3323 151.881L28.4009 77.3722C26.2289 72.3042 28.6169 66.3344 33.6849 64.1624L98.0581 36.5748C103.126 34.4029 109.096 36.7908 111.268 41.8589L143.199 116.368C145.371 121.436 142.983 127.406 137.915 129.578L73.5421 157.165C68.4741 159.337 62.5043 156.949 60.3323 151.881Z" fill="#152532"/>
</g>
</g>
</svg>
