<svg width="200" height="212" viewBox="0 0 200 212" fill="none" xmlns="http://www.w3.org/2000/svg">
<g id="Group" opacity="0.11">
<path id="Vector" d="M126.384 183.186C123.949 181.965 121.26 181.667 118.655 182.253C118.276 182.378 117.688 182.504 116.344 181.83C116.008 181.661 115.588 181.451 115.211 181.156L154.874 145.449C157.187 143.351 158.577 140.369 158.707 137.176C158.795 134.067 157.538 130.915 155.272 128.727L147.844 121.324L152.519 112.002C154.415 108.223 154.084 103.853 151.819 100.405L154.557 94.9461C156.789 90.4951 155.871 85.2001 152.472 81.7088L154.788 77.0899C157.189 72.3031 155.851 66.3773 151.78 62.9692L147.75 59.6871L151.836 51.5411C154.7 45.8305 152.397 38.8952 146.686 36.0313L127.875 26.5973C122.164 23.7334 115.229 26.0359 112.365 31.7465L108.28 39.8926L103.24 38.6261C98.0313 37.2753 92.5242 39.8736 90.1236 44.6605L87.8072 49.2794C82.9762 48.6433 78.2257 50.9905 75.9514 55.5254L73.2139 60.9841C69.2222 61.1893 65.438 63.4956 63.5007 67.3587L58.8258 76.6805L48.4498 75.1555C45.3413 74.6476 42.0631 75.5259 39.6239 77.4557C37.1847 79.3854 35.5846 82.3666 35.2867 85.4754L30.3911 138.619C29.9291 138.492 29.5092 138.282 29.1733 138.113C27.8296 137.439 27.5782 136.893 27.4526 136.514C26.3631 134.076 24.4328 132.057 22.0814 130.878C19.0581 129.362 15.4449 129.231 12.3341 130.614C9.51767 131.829 7.33017 134.095 6.19228 136.993C5.05438 139.891 5.09271 142.958 6.39175 145.817C8.82186 151.449 13.1442 155.824 18.9388 158.73C26.0771 162.31 34.269 163.16 41.5367 163.967C42.6289 164.095 42.9648 164.263 43.0488 164.305C43.4687 164.516 44.4757 165.651 45.4408 166.661C48.7138 170.194 53.1614 175.157 62.8191 180.001C72.4768 184.844 79.0723 185.524 83.9036 185.95C85.2899 186.12 86.8023 186.248 87.2222 186.458C87.3062 186.5 87.6421 186.669 88.3974 187.468C93.3908 192.81 98.9715 198.867 106.026 202.405C111.904 205.353 117.912 206.158 123.879 204.737C126.863 204.026 129.428 202.265 131.07 199.62C132.712 196.975 133.178 193.95 132.509 190.882C131.673 187.52 129.408 184.702 126.384 183.186Z" fill="white"/>
<g id="Group_2">
<path id="Vector_2" d="M125.403 54.1545C125.487 54.1966 125.655 54.2808 125.739 54.3229C125.907 54.4072 125.991 54.4493 126.159 54.5335L132.455 59.5829L138.562 47.4058L131.087 43.6575L123.613 39.9092L117.506 52.0862L125.403 54.1545Z" fill="#2C2C80"/>
<path id="Vector_3" d="M98.9936 112.483L133.363 146.43L144.089 136.78L105.816 98.8779L98.9936 112.483Z" fill="#2C2C80"/>
<path id="Vector_4" d="M95.2118 110.588L102.035 96.9835L48.7689 88.9787L47.4492 103.346L95.2118 110.588Z" fill="#2C2C80"/>
<path id="Vector_5" d="M130.164 149.242L97.0113 116.43L79.491 151.366C78.9856 152.374 77.6825 152.876 76.5908 152.329C75.583 151.823 75.0804 150.52 75.6279 149.429L93.1482 114.493L47.0239 107.547L43.1071 150.356C49.7866 151.078 52.4301 153.98 55.4511 157.387C58.0946 160.289 61.4933 163.991 68.8835 167.697C76.2737 171.403 81.189 171.871 85.1799 172.296C89.675 172.764 93.5819 173.147 98.1978 177.984L130.164 149.242Z" fill="white"/>
<path id="Vector_6" d="M105.692 93.2467C105.776 93.2889 105.86 93.331 106.028 93.4152C106.196 93.4994 106.364 93.5837 106.49 93.7519C106.574 93.794 106.574 93.794 106.658 93.8362L133.138 120.043L139.413 107.53L109.819 86.0671L74.917 75.1852L68.6417 87.6982L105.482 93.2465C105.608 93.2047 105.692 93.2467 105.692 93.2467Z" fill="white"/>
<path id="Vector_7" d="M111.717 82.2903C111.801 82.3324 111.969 82.4166 112.053 82.4587L136.653 100.261L141.496 90.6031L116.518 72.9266L87.4129 63.4803L82.5695 73.1379L111.549 82.206C111.591 82.1221 111.633 82.2482 111.717 82.2903Z" fill="white"/>
<path id="Vector_8" d="M118.33 69.1054C118.414 69.1476 118.498 69.1897 118.582 69.2318L136.885 82.1945L141.687 72.6208L123.722 58.146L101.376 52.405L96.5751 61.9788L117.911 68.8949C118.205 68.9372 118.246 69.0633 118.33 69.1054Z" fill="white"/>
<path id="Vector_9" d="M47.0222 107.546C47.0222 107.546 54.1681 139.823 77.0946 151.32C100.021 162.818 130.162 149.241 130.162 149.241L130.075 152.14L97.5632 180.293C97.5632 180.293 95.6778 175.88 90.3848 175.117C85.0918 174.354 75.4714 173.418 67.9133 169.628C60.3551 165.837 53.8949 157.343 50.4114 154.229C46.9279 151.116 41.0032 151.613 41.0032 151.613C41.0032 151.613 44.5838 108.846 47.0222 107.546Z" fill="#E6E7E8"/>
<path id="Vector_10" d="M45.359 97.8828L100.896 103.874L96.5158 112.608L44.5925 106.327L45.359 97.8828Z" fill="#0F3741"/>
<path id="Vector_11" d="M138.905 144.798L100.889 103.871L96.5086 112.605L132.68 150.504L138.905 144.798Z" fill="#0F3741"/>
<path id="Vector_12" d="M67.3025 84.5043C67.3025 84.5043 97.6353 86.2634 107.293 91.1067C116.951 95.9501 135.914 118.913 135.914 118.913L133.387 123.952L104.766 96.1455L64.7755 89.543L67.3025 84.5043Z" fill="#E6E7E8"/>
<path id="Vector_13" d="M82.2803 69.944L113.151 78.8043L139.554 98.6672L137.154 103.454L110.624 83.8431L80.1745 74.143L82.2803 69.944Z" fill="#E6E7E8"/>
<path id="Vector_14" d="M96.0332 58.6589L120.1 64.9481L139.115 80.2645L137.514 83.4557L117.195 70.1125L93.3799 63.9496L96.0332 58.6589Z" fill="#E6E7E8"/>
<path id="Vector_15" d="M123.615 39.9109C123.615 39.9109 119.781 49.0236 126.163 52.2245C132.546 55.4253 138.563 47.4076 138.563 47.4076L133.755 63.0735L124.731 55.71L113.852 53.092C113.852 53.092 121.388 40.1604 123.615 39.9109Z" fill="#0F3741"/>
<path id="Vector_16" d="M123.618 39.9123C123.618 39.9123 129.532 47.8183 138.566 47.409L139.408 45.7294C139.408 45.7294 124.377 37.3503 123.618 39.9123Z" fill="white"/>
<path id="Vector_17" d="M45.7811 91.579L102.829 98.7481L142.779 139.383L147.278 136.489L104.765 96.1455L48.1817 86.7921L45.7811 91.579Z" fill="white"/>
<path id="Vector_18" d="M120.786 191.414C113.893 193.002 108.101 188.416 101.135 181.139L148.621 138.424C149.042 138.005 149.295 137.501 149.296 136.871C149.296 136.24 149.129 135.736 148.709 135.315L136.413 123.158L144.121 107.79C144.584 106.866 144.291 105.773 143.451 105.142L140.135 102.743L146.116 90.8182C146.579 89.8944 146.328 88.7176 145.447 88.1704L140.577 84.6773L146.431 73.0041C146.894 72.0803 146.686 71.0297 145.846 70.3985L135.898 62.3616L143.353 47.4972C143.858 46.4894 143.482 45.1445 142.39 44.597L132.984 39.88L123.578 35.163C122.571 34.6576 121.226 35.0341 120.678 36.1258L113.224 50.9902L100.833 47.8242C99.9088 47.571 98.858 47.9899 98.3947 48.9136L92.5405 60.5868L86.8287 58.7733C85.8207 58.478 84.7698 58.8969 84.3065 59.8207L78.326 71.7458L74.4201 70.5226C73.4121 70.2273 72.3612 70.6462 71.8979 71.57L64.1907 86.9382L47.0936 84.3548C46.5055 84.27 45.9171 84.3954 45.4965 84.815C44.9918 85.1926 44.7391 85.6964 44.6544 86.2845L38.8219 149.888C28.8238 148.658 21.6835 146.759 18.8342 140.285C18.3314 139.192 17.1135 138.686 16.0205 139.189C14.9275 139.692 14.4219 140.91 14.9247 142.003C16.6427 145.912 19.5386 148.521 23.0657 150.29C28.6084 153.069 35.7921 153.834 42.4716 154.557C47.5548 155.109 49.3171 157.044 52.2544 160.198C55.1496 163.437 58.7582 167.349 66.9042 171.434C75.0502 175.519 80.3856 175.988 84.6706 176.455C88.9977 176.838 91.5603 177.178 95.043 180.921C99.5328 185.8 104.442 191.1 110.069 193.922C113.596 195.691 117.418 196.452 121.663 195.532C122.84 195.282 123.513 194.148 123.263 192.971C123.012 191.795 121.878 191.121 120.786 191.414ZM133.36 146.431L98.9906 112.483L105.813 98.8786L144.086 136.78L133.36 146.431ZM123.615 39.9107L131.089 43.6591L138.563 47.4074L132.456 59.5845L126.16 54.5351C125.992 54.4509 125.908 54.4087 125.74 54.3245C125.656 54.2824 125.488 54.1982 125.404 54.156L117.592 52.1299L123.699 39.9529L123.615 39.9107ZM101.584 52.4048L123.929 58.1457L141.894 72.6205L137.093 82.1942L118.79 69.2315C118.706 69.1894 118.622 69.1473 118.538 69.1052C118.454 69.0631 118.37 69.0209 118.286 68.9788L96.9504 62.0627L101.752 52.489L101.584 52.4048ZM87.3694 63.3536L116.475 72.8L141.452 90.4764L136.609 100.134L112.009 82.3321C111.926 82.29 111.758 82.2058 111.674 82.1636C111.59 82.1215 111.506 82.0794 111.422 82.0373L82.4421 72.9691L87.2854 63.3115L87.3694 63.3536ZM74.9608 75.1029L109.862 85.9848L139.457 107.448L133.182 119.961L106.702 93.7538C106.618 93.7117 106.618 93.7117 106.534 93.6696C106.408 93.5014 106.24 93.4172 106.072 93.3329C105.988 93.2908 105.904 93.2487 105.736 93.1645C105.652 93.1223 105.652 93.1223 105.568 93.0802L68.6434 87.6999L74.9608 75.1029ZM102.034 96.9834L95.2115 110.588L47.4489 103.346L48.7686 88.9785L102.034 96.9834ZM85.1798 172.296C81.2729 171.913 76.2736 171.403 68.8834 167.697C61.4932 163.991 58.1784 160.331 55.4509 157.387C52.3878 154.064 49.7444 151.162 43.1069 150.356L47.0237 107.547L93.1481 114.493L75.6278 149.429C75.1224 150.436 75.4989 151.781 76.5906 152.329C77.5984 152.834 78.9434 152.458 79.4909 151.366L97.0111 116.43L130.164 149.242L98.1977 177.984C93.5818 173.147 89.6749 172.764 85.1798 172.296Z" fill="#152532"/>
</g>
</g>
</svg>
