<svg width="258" height="299" viewBox="0 0 258 299" fill="none" xmlns="http://www.w3.org/2000/svg">
<path d="M219.135 94.7622C219.135 94.7622 225.16 73.9779 227.289 70.2836C229.418 66.5893 233.674 65.404 233.674 65.404C233.674 65.404 254.612 18.2213 256.289 15.8746C257.837 13.4698 262.9 8.77039 269.432 9.07523C276 9.47357 277.202 11.7985 276.975 14.0231C276.749 16.2477 271.983 79.0105 271.983 79.0105L274.658 84.0925C274.658 84.0925 314.594 87.8852 318.182 89.7336C321.77 91.582 316.6 96.0009 311.612 98.6401C306.53 101.315 284.893 102.35 280.317 102.694C275.836 103.002 267.431 102.552 267.431 102.552C267.431 102.552 243.478 127.671 234.838 137.041C226.292 146.376 212.66 157.531 212.66 157.531L282.811 179.816L313.457 190.98C313.457 190.98 314.356 203.793 297.438 208.814C280.426 213.872 236.166 208.83 236.166 208.83C236.166 208.83 240.515 223.972 229.757 233.396C219.092 242.785 211.611 245.62 208.626 245.362C205.64 245.103 199.779 242.619 197.32 238.952C194.861 235.286 193.316 228.386 193.842 224.978C194.369 221.57 195.35 217.669 197.52 215.777C199.691 213.885 203.938 210.137 203.938 210.137L202.801 206.29L190.194 206.042C190.194 206.042 197.22 216.96 188.338 227.385C179.491 237.903 166.613 243.425 166.613 243.425C166.613 243.425 157.894 243.842 153.537 236.297C149.239 228.622 149.631 220.346 150.792 217.767C151.954 215.188 155.746 211.932 157.684 210.556C159.587 209.087 159.587 209.087 159.587 209.087L159.426 206.688C159.426 206.688 138.544 206.047 137.361 205.747C136.177 205.447 116.508 213.65 113.877 214.326C111.246 215.003 85.8703 221.412 79.483 222.335C73.1312 223.353 50.3589 224.497 43.8354 216.597C37.3119 208.696 33.3345 192.558 56.4009 165.101C70.9238 147.833 89.1974 138.769 89.1974 138.769C89.1974 138.769 85.6592 107.706 90.4192 103.336C95.1792 98.9652 102.069 101.059 109.892 105.901C117.809 110.707 132.122 120.254 132.122 120.254L219.135 94.7622Z" fill="white"/>
<path d="M42.8688 191.189C42.8688 191.189 42.8688 191.189 50.1993 195.576C57.5298 199.963 60.1169 206.789 60.1169 206.789C60.1169 206.789 96.8742 198.526 147.048 174.59C190.667 153.674 244.018 111.317 257.008 100.726C257.243 101.065 257.536 101.275 257.981 101.32C260.077 101.488 262.173 101.656 264.22 101.415C265.11 101.506 265.964 101.503 266.854 101.593C263.381 105.69 256.188 114.084 251.212 120.141C246.142 126.233 227.198 144.534 212.332 157.227C196.691 159.412 182.648 166.659 168.379 173.029C156.471 178.291 144.682 184.149 135.069 192.926C131.47 194.718 124.982 200.171 129.582 203.561C130.626 204.342 131.845 204.735 133.308 204.929C116.412 212.83 98.8901 219.364 83.9747 221.488C43.217 227.096 41.1631 215.47 38.2985 209.604C35.5273 203.703 42.8688 191.189 42.8688 191.189Z" fill="#EBF0F4"/>
<path d="M193.869 225.609C194.456 222.926 196.159 221.211 198.193 220.654C200.889 221.558 203.735 222.297 205.476 224.632C205.63 225.322 205.727 226.141 205.401 226.692C204.924 227.407 203.65 227.997 203.008 228.561C202.763 228.761 202.611 228.925 202.402 229.219C202.179 229.196 202.086 229.231 201.957 229.173C202.028 229.36 202.005 229.583 202.041 229.676C201.354 230.685 201.018 231.775 201.572 232.955C203.106 236.438 207.127 234.914 209.578 232.915C209.836 233.032 210.129 233.241 210.422 233.451C210.815 235.334 211.15 237.346 211.285 239.113C211.362 241.009 210.945 242.45 210.178 243.81C209.407 244.316 208.472 244.67 207.337 244.78C203.229 244.946 199.107 240.841 197.047 237.664C194.672 234.501 193.052 229.661 193.869 225.609Z" fill="#BFD2DE"/>
<path d="M164.378 243.737C154.744 243.431 150.839 234.538 149.265 226.152C149.213 224.888 149.385 223.646 149.907 222.486C151.452 219.227 154.67 218.97 157.669 219.544C159.661 220.286 161.621 221.789 162.681 223.74C160.646 224.298 158.85 226.048 157.944 227.889C157.944 227.889 157.944 227.889 157.979 227.982C156.992 230.174 157.246 232.538 160.115 233.054C161.966 233.422 163.507 232.41 164.181 231.085C166.361 231.757 167.085 234.797 167.233 236.88C167.487 239.243 166.664 241.587 165.584 243.815C165.397 243.885 165.303 243.921 165.116 243.992C164.858 243.876 164.694 243.724 164.378 243.737Z" fill="#BFD2DE"/>
<path d="M196.649 160.712C220.242 143.108 242.071 123.392 262.115 101.786C262.747 101.76 263.508 101.793 264.14 101.767C264.901 101.799 265.72 101.703 266.574 101.7C267.206 101.674 267.838 101.649 268.563 101.588C268.657 101.552 268.786 101.61 268.879 101.575C265.219 105.743 261.981 110.178 258.285 114.252C258.098 114.323 257.911 114.394 257.724 114.465C252.303 117.375 248.832 122.326 245.198 127.126C243.656 128.138 242.279 129.302 241.031 130.523C237.016 133.756 233.659 137.595 230.173 141.376C229.657 141.144 228.931 141.205 228.512 141.791C228.057 142.284 227.696 142.742 227.241 143.235C226.261 144.035 225.316 144.928 224.407 145.914C223.858 146.442 224.013 147.132 224.319 147.658C223.036 148.786 221.623 149.856 220.375 151.078C219.091 152.206 217.879 153.521 216.689 154.614C215.334 155.555 213.887 156.531 212.532 157.472C212.439 157.508 212.345 157.543 212.31 157.45C211.62 157.604 210.872 157.888 210.217 158.136C209.527 158.29 208.966 158.503 208.276 158.658C207.983 158.448 207.573 158.496 207.164 158.545C203.433 159.424 199.316 160.129 195.682 161.827C195.949 161.405 196.253 161.076 196.649 160.712Z" fill="#D9E4EB"/>
<path d="M126.978 208.827C122.28 210.821 117.427 212.126 112.552 213.652C103.082 216.6 93.976 219.944 84.1613 221.418C77.2711 222.425 70.3552 222.801 63.4137 222.544C59.5965 222.066 55.7212 221.717 51.8459 221.368C51.7169 221.309 51.6234 221.345 51.401 221.322C50.4629 220.822 49.5248 220.322 48.5867 219.822C48.5158 219.635 48.3514 219.484 48.2225 219.426C46.2045 218.052 44.0705 216.935 42.1106 215.433C40.7827 213.904 39.6418 212.304 38.5589 210.576C38.5461 210.26 38.4979 209.851 38.4851 209.535C51.9108 219.846 69.5243 219.48 85.4201 216.557C100.345 213.894 114.759 208.752 128.205 201.624C128.64 202.208 129.298 202.814 130.013 203.292C130.142 203.35 130.178 203.443 130.307 203.501C131.867 204.514 133.73 205.198 135.394 205.637C132.518 206.513 129.748 207.67 126.978 208.827Z" fill="#D9E4EB"/>
<path d="M202.6 206.045C202.823 206.068 203.01 205.997 203.232 206.019C211.373 207.746 219.694 207.694 228.041 208.273C228.357 208.26 228.58 208.283 228.825 208.083C230.769 208.416 232.736 208.526 234.667 208.543C235.846 211.09 236.968 213.766 237.457 216.468C237.399 216.597 237.341 216.726 237.318 216.949C237.157 217.652 236.995 218.354 236.869 219.151C236.176 221.552 235.153 223.651 234.166 225.843C233.905 224.873 233.644 223.902 233.161 222.909C229.893 215.699 222.553 211.851 215.025 211.175C213.67 212.116 212.21 212.776 210.607 213.063C208.962 214.649 206.061 214.893 204.52 212.803C203.986 210.546 203.357 208.325 202.6 206.045Z" fill="#D9E4EB"/>
<path d="M158.92 205.917C169.16 205.565 179.4 205.213 189.665 205.493C193.587 212.455 193.66 219.7 188.931 226.411C187.08 229.145 184.5 231.085 182.014 232.99C184.011 228.383 184.754 223.289 182.724 218.498C180.694 213.706 176.706 211.367 172.115 210.541C171.786 210.238 171.341 210.192 170.838 210.276C168.581 210.811 166.395 211.532 164.174 212.16C163.297 212.386 162.455 212.705 161.672 212.895C161.543 212.837 161.414 212.779 161.285 212.721C160.434 210.476 159.677 208.197 158.92 205.917Z" fill="#D9E4EB"/>
<path d="M220.631 87.1381C221.373 85.1458 222.244 83.2115 222.893 81.2547C224.816 75.6065 226.774 70.0519 231.489 66.1261C231.641 65.9618 231.792 65.7974 231.944 65.633C232.389 65.6782 232.834 65.7235 233.408 65.8268C233.888 65.9656 234.169 65.8593 234.507 65.624C234.988 65.7628 235.339 65.8435 235.784 65.8887C230.607 74.802 227.035 84.2832 223.534 93.9515C222.734 96.0727 220.793 96.5945 219.094 96.0621C219.798 93.1218 220.279 90.159 220.631 87.1381Z" fill="#EBF0F4"/>
<path d="M255.399 102.407C233.054 121.891 208.746 139.017 183.413 154.286C158.36 169.449 132.096 182.825 105.052 194.144C97.4909 197.331 89.8005 200.46 81.7911 202.747C74.7523 204.773 67.5717 206.425 60.3301 207.351C59.5111 207.448 59.4953 206.277 60.1853 206.123C66.7114 204.719 73.2147 203.537 79.6344 201.853C86.5217 199.991 93.3478 197.404 99.9161 194.701C113.462 189.246 126.889 183.195 139.916 176.653C166.287 163.558 191.526 148.324 215.625 131.491C229.075 122.115 242.126 112.25 254.812 101.988C255.338 101.682 255.738 102.172 255.399 102.407Z" fill="#00497B"/>
<path d="M40.2122 194.336C45.254 196.916 49.3411 200.928 52.3189 205.681C53.7788 208.122 54.9581 210.67 55.7634 213.359C56.4979 215.861 57.187 218.808 56.5641 221.397C56.5188 221.842 55.945 221.738 55.8032 221.364C55.2558 218.791 55.1179 216.17 54.3834 213.668C53.6136 211.072 52.4697 208.619 51.0807 206.365C48.3027 201.856 44.3445 197.903 39.7122 195.274C39.2544 194.912 39.6029 194.139 40.2122 194.336Z" fill="#00497B"/>
<path d="M274.471 84.1623C275.922 84.0402 277.386 84.234 278.814 84.3344C281.893 84.5577 285.008 84.8745 288.028 85.2267C296.002 85.9479 303.952 86.8915 311.844 87.964C313.53 88.1805 315.346 88.455 317.067 88.765C318.215 88.9717 319.808 89.2236 320.781 89.8171C323.995 91.8072 316.43 97.2411 314.946 98.1241C310.987 100.373 306.344 101.385 301.875 102.009C296.774 102.659 291.496 102.841 286.312 102.988C274.082 103.452 261.757 103.097 249.499 102.075C248.515 102.02 248.803 100.521 249.693 100.612C259.984 101.524 270.249 101.804 280.56 101.639C285.651 101.527 290.8 101.287 295.914 100.953C300.395 100.645 305.028 100.172 309.343 98.8577C311.529 98.1361 313.551 97.2629 315.524 95.9802C316.446 95.3098 317.275 94.6749 318.033 93.8529C318.43 93.4887 320.32 91.7031 320.071 91.0485C319.965 90.768 318.688 90.5032 318.337 90.4225C317.728 90.2257 317.06 90.1578 316.487 90.0545C314.894 89.8026 313.172 89.4926 311.486 89.2761C304.132 88.2134 296.72 87.2796 289.25 86.4748C284.32 85.8834 279.31 85.6435 274.497 84.7943C274.052 84.749 274.026 84.1171 274.471 84.1623Z" fill="#00497B"/>
<path d="M275.115 84.4535C270.642 87.3249 265.735 89.6128 261.156 92.2037C258.866 93.4992 256.706 94.8527 254.452 96.2417C253.342 96.983 252.104 97.6662 251.195 98.6525C250.437 99.4744 250.136 100.658 249.894 101.712C249.791 102.286 249.124 102.218 248.853 101.786C247.851 99.7059 249.26 97.7815 250.918 96.5116C253.217 94.6777 256.103 93.2631 258.673 91.8613C263.778 88.9642 269.092 85.7737 274.715 83.9633C275.183 83.7861 275.489 84.3117 275.115 84.4535Z" fill="#00497B"/>
<path d="M277.234 14.139C276.371 21.738 275.121 29.1629 274.574 36.7491C273.869 45.8925 273.795 55.0104 273.277 64.0829C272.979 69.2221 272.681 74.3613 272.477 79.465C272.399 80.6708 270.584 80.3963 270.661 79.1905C270.993 70.1888 271.64 61.1743 271.971 52.1726C272.422 43.7674 272.779 35.3977 273.99 27.025C274.665 22.5984 275.469 18.2299 276.531 13.9776C276.67 13.4972 277.279 13.6941 277.234 14.139Z" fill="#00497B"/>
<path d="M271.6 79.6902C255.526 85.2475 239.24 90.2437 222.989 95.3334C222.112 95.5589 221.616 94.2497 222.457 93.9308C238.708 88.8411 254.959 83.7513 271.388 79.1291C271.762 78.9874 271.974 79.5484 271.6 79.6902Z" fill="#00497B"/>
<path d="M276.65 14.5738C276.973 13.1682 276.218 11.7429 275.045 10.9044C273.778 10.1012 272.128 9.97824 270.735 9.97141C267.82 9.89969 264.683 9.80534 261.913 10.9621C257.647 12.6858 256.014 17.6892 254.179 21.5931C251.066 28.334 248.082 35.1328 245.191 41.8963C239.177 55.939 233.48 69.9688 227.689 84.0341C226.192 87.7028 224.753 91.2425 223.256 94.9111C222.733 96.0717 221.021 95.2233 221.45 94.0982C225.664 84.0529 229.713 73.8561 233.926 63.8109C240.253 48.901 246.509 33.8041 253.702 19.2072C254.725 17.1085 255.712 14.9164 257.157 13.0855C259.173 10.5035 262.001 9.21783 265.183 8.86726C267.008 8.60337 268.846 8.65545 270.683 8.70754C271.983 8.7498 273.189 8.82751 274.407 9.22118C276.622 9.9859 278.362 12.3206 277.317 14.6417C277.049 15.064 276.569 14.9253 276.65 14.5738Z" fill="#00497B"/>
<path d="M268.121 102.397C266.595 104.579 264.683 106.587 262.864 108.56C261.045 110.533 259.226 112.505 257.5 114.443C254.014 118.223 250.621 121.969 247.099 125.656C240.091 133.125 232.883 140.348 225.276 147.081C223.199 148.938 221.029 150.83 218.916 152.593C216.711 154.391 214.518 156.506 212.006 157.779C211.48 158.085 210.845 157.256 211.3 156.763C212.967 154.955 215.092 153.507 216.995 152.038C218.956 150.439 220.823 148.876 222.748 147.184C226.692 143.764 230.378 140.228 234.158 136.657C241.495 129.492 248.409 122.059 255.417 114.59C257.388 112.453 259.394 110.41 261.364 108.273C263.428 106.1 265.457 103.834 267.721 101.907C268.06 101.671 268.33 102.103 268.121 102.397Z" fill="#00497B"/>
<path d="M224.543 94.6369C212.57 98.3188 200.386 101.44 188.213 104.877C176.135 108.278 163.998 111.808 152.026 115.49C130.397 122.191 108.465 129.22 88.6653 140.467C69.9174 151.101 52.5545 166.237 43.7182 186.376C39.9565 195.073 35.5809 208.923 44.571 215.996C48.6906 219.247 54.4647 220.374 59.594 221.21C65.0394 222.034 70.7396 222.119 76.2498 221.421C82.4855 220.662 88.7891 219.235 94.8702 217.786C105.372 215.303 115.848 212.188 125.911 208.267C128.81 207.169 131.674 205.976 134.537 204.784C135.566 204.394 136.004 205.832 135.104 206.28C124.437 211.713 112.839 215.254 101.251 218.255C94.4214 219.988 87.5214 221.534 80.4796 222.705C70.3617 224.508 59.6513 224.183 49.8315 220.847C44.9216 219.178 40.6859 216.185 38.7141 211.265C36.7422 206.344 37.179 200.725 38.3669 195.676C43.5119 174.263 59.9887 156.789 77.7956 144.8C96.8634 131.906 118.886 123.987 140.725 116.993C153.036 113.076 165.453 109.439 177.812 105.931C190.265 102.388 202.811 98.8095 215.476 95.8273C218.423 95.1382 221.335 94.3555 224.317 93.7599C224.82 93.6762 225.01 94.4597 224.543 94.6369Z" fill="#00497B"/>
<path d="M45.3132 180.424C46.899 182.069 48.9977 183.092 51.2223 183.318C51.5737 183.399 51.9832 183.351 52.3218 183.115C52.5668 182.915 52.683 182.658 52.7991 182.4C53.496 180.852 54.2508 179.176 54.9477 177.628C55.0057 177.5 55.1219 177.242 55.051 177.055C54.9801 176.868 54.8512 176.81 54.7222 176.751C53.0685 175.774 51.4148 174.797 49.7611 173.819L45.3132 180.424Z" fill="#00497B"/>
<path d="M58.7645 178.107C57.297 180.16 56.7065 181.988 56.2705 184.506C61.3124 187.087 67.4221 187.124 72.3879 184.707C71.7952 182.579 71.1091 180.487 70.5164 178.359C70.481 178.265 70.4101 178.078 70.2811 178.02C70.1167 177.868 69.9297 177.939 69.7073 177.917C65.9413 178.702 62.4075 178.972 58.7645 178.107Z" fill="#00497B"/>
<path d="M131.775 121.028C129.289 119.831 126.978 118.247 124.609 116.793C122.239 115.338 119.834 113.79 117.559 112.3C112.784 109.297 107.975 106.2 103.201 103.197C101.934 102.394 100.632 101.497 99.1098 101.432C97.9395 101.448 96.6175 101.628 95.4245 101.867C92.8515 102.414 90.3396 103.687 89.2717 106.23C88.2845 108.423 88.387 110.95 88.5121 113.256C88.6501 115.877 88.7526 118.405 88.8905 121.026C89.1693 127.123 89.4482 133.22 89.5981 139.259C89.6139 140.429 87.847 140.564 87.8312 139.394C87.4362 133.554 87.3572 127.703 87.1492 121.793C87.034 118.949 86.9541 116.199 86.8388 113.355C86.7717 110.921 86.7047 108.487 87.5629 106.236C88.4211 103.986 90.124 102.271 92.2392 101.363C94.4126 100.325 97.3015 99.7651 99.6196 99.9559C100.825 100.034 101.892 100.592 102.995 101.243C104.391 102.104 105.693 103.001 106.995 103.898C109.565 105.598 112.098 107.204 114.761 108.868C117.588 110.684 120.544 112.558 123.371 114.374C126.327 116.248 129.599 118.109 132.287 120.406C132.487 120.651 132.161 121.202 131.775 121.028Z" fill="#00497B"/>
<path d="M99.5293 100.845C105.373 108.362 112.325 115.138 119.568 121.269C120.648 122.143 121.763 123.111 122.75 124.02C123.078 124.323 122.917 125.026 122.343 124.923C121.195 124.716 120.209 123.807 119.294 123.084C117.592 121.697 116.077 120.24 114.433 118.724C110.581 115.051 106.823 111.342 103.368 107.304C101.675 105.379 100.112 103.512 98.8521 101.316C98.4879 100.919 99.1651 100.449 99.5293 100.845Z" fill="#00497B"/>
<path d="M213.129 157.354C196.127 161.873 179.47 167.865 163.779 175.844C155.869 179.804 148.265 184.29 140.803 189.15C137.627 191.21 134.041 193.317 131.464 196.112C130.31 197.298 129.32 198.636 128.81 200.112C128.439 201.108 127.952 202.362 129.206 202.85C130.108 203.256 131.279 203.24 132.297 203.389C140.963 204.81 149.578 204.967 158.332 204.644C167.121 204.414 175.91 204.184 184.747 204.364C201.977 204.678 219.035 206.233 236.107 208.105C252.604 209.873 269.288 211.57 285.974 210.166C288.057 210.018 290.197 209.741 292.245 209.5C293.38 209.391 293.479 211.064 292.438 211.138C275.359 213.761 257.856 212.16 240.82 210.382C222.894 208.514 205.062 206.61 187.165 206.228C178.012 206.061 168.965 206.175 159.766 206.453C150.79 206.753 141.895 206.703 132.948 205.388C131.929 205.239 130.782 205.033 129.763 204.884C128.966 204.758 128.17 204.632 127.548 204.119C126.081 203.071 126.414 201.127 126.924 199.651C127.931 196.382 130.614 193.868 133.287 191.892C140.478 186.6 148.234 181.949 156.131 177.673C172.112 169.05 189.118 162.284 206.716 157.646C208.844 157.053 211.043 156.647 213.113 156.184C213.5 156.358 213.726 157.235 213.129 157.354Z" fill="#00497B"/>
<path d="M313.667 190.686C310.339 189.808 307.174 188.227 303.963 187.092C300.623 185.898 297.319 184.798 293.827 183.768C287.102 181.825 280.167 180.176 273.384 178.362C259.818 174.735 246.507 170.369 233.218 165.78C229.434 164.541 225.707 163.173 221.922 161.934C220.094 161.344 218.266 160.753 216.496 160.034C214.668 159.443 212.654 158.924 211.058 157.817C210.729 157.514 210.926 156.905 211.335 156.857C212.951 156.886 214.334 157.431 215.81 157.941C217.638 158.532 219.466 159.122 221.236 159.842C224.54 160.942 227.88 162.136 231.185 163.236C237.829 165.53 244.567 167.789 251.269 169.954C258.1 172.177 264.896 174.307 271.808 176.179C278.756 178.144 285.726 179.887 292.673 181.853C296.294 182.94 299.821 184.063 303.383 185.28C306.981 186.59 310.766 187.829 313.98 189.819C314.25 190.251 314.018 190.767 313.667 190.686Z" fill="#00497B"/>
<path d="M312.862 195.055C305.483 193.36 298.171 190.998 290.93 188.823C283.596 186.684 276.355 184.509 268.985 182.276C254.633 177.984 240.338 173.563 225.972 168.955C217.829 166.373 209.744 163.663 201.694 161.046C200.475 160.652 201.324 158.94 202.507 159.241C231.25 168.772 260.052 178.175 288.922 186.911C296.901 189.341 305.09 191.477 312.988 194.259C313.446 194.62 313.214 195.136 312.862 195.055Z" fill="#00497B"/>
<path d="M203.6 207.27C204.061 208.485 204.522 209.701 204.947 210.823C205.16 211.384 205.314 212.074 205.527 212.635C205.646 213.232 206.058 214.038 205.639 214.624C205.487 214.789 205.207 214.895 205.043 214.744C204.433 214.547 204.266 213.541 204.089 213.073C203.876 212.512 203.721 211.822 203.602 211.226C203.235 209.975 202.961 208.688 202.723 207.495C202.604 206.899 203.423 206.802 203.6 207.27Z" fill="#00497B"/>
<path d="M218.503 207.931C217.493 210.346 214.936 212.064 212.576 213.172C211.302 213.762 209.993 214.258 208.706 214.532C208.11 214.651 207.42 214.806 206.823 214.925C206.32 215.008 205.501 215.105 204.985 214.873C204.692 214.663 204.55 214.289 204.889 214.054C205.321 213.783 205.86 213.793 206.362 213.709C206.959 213.59 207.591 213.564 208.152 213.352C209.438 213.078 210.654 212.617 211.87 212.156C214.23 211.048 216.097 209.485 217.952 207.606C218.161 207.312 218.584 207.58 218.503 207.931Z" fill="#00497B"/>
<path d="M234.713 208.097C240.563 214.221 237.017 224.334 232.731 230.236C227.244 237.77 218.728 242.387 210.219 245.613C209.19 246.002 208.588 244.413 209.581 243.929C217.329 240.672 225.088 236.876 230.483 230.232C235.157 224.504 238.964 215.362 234.165 208.625C233.929 208.287 234.384 207.794 234.713 208.097Z" fill="#00497B"/>
<path d="M209.617 244.023C210.887 242.579 210.643 239.678 210.508 237.911C210.36 235.828 209.897 233.758 209.059 231.83C207.548 228.125 204.889 224.213 201.172 222.307C199.202 221.342 196.252 221.177 195.172 223.404C194.381 224.987 194.681 226.906 194.967 228.508C195.708 232.719 197.302 236.927 200.216 240.1C201.473 241.442 202.975 242.584 204.652 243.339C206.586 244.21 208.517 244.226 210.565 243.985C211.29 243.924 211.457 244.93 210.803 245.178C206.946 246.854 202.549 244.563 199.719 241.893C196.032 238.371 194.024 233.357 193.223 228.421C192.924 226.502 192.834 224.29 193.776 222.543C194.776 220.667 197.02 219.816 199.022 220.02C203.787 220.46 207.632 225.526 209.566 229.499C210.839 232.011 211.586 234.829 211.795 237.637C211.942 239.72 212.177 243.16 210.145 244.572C209.842 244.9 209.22 244.388 209.617 244.023Z" fill="#00497B"/>
<path d="M193.694 222.894C193.382 220.659 195.072 218.629 196.965 217.697C199.045 216.695 201.608 216.686 203.752 217.264C210.606 219.265 213.934 227.2 215.361 233.504C216.098 236.86 216.171 241.003 213.453 243.424C212.963 243.824 212.176 243.159 212.537 242.701C214.492 239.394 214.351 235.918 213.32 232.352C212.219 228.599 210.766 224.765 207.994 221.966C205.879 219.773 203.1 218.366 199.976 218.588C198.712 218.639 197.461 219.006 196.445 219.712C195.149 220.524 194.662 221.778 194.081 223.068C194.023 223.197 193.765 223.081 193.694 222.894Z" fill="#00497B"/>
<path d="M194.563 220.106C195.234 217.927 196.666 215.78 198.053 214.078C198.776 213.162 199.569 212.434 200.42 211.576C200.911 211.177 201.307 210.813 201.798 210.413C202.23 210.142 202.778 209.614 203.316 209.623C203.726 209.575 203.996 210.007 203.787 210.301C203.555 210.816 203.029 211.122 202.597 211.393C202.2 211.757 201.768 212.028 201.371 212.392C200.485 213.156 199.691 213.885 198.969 214.8C197.488 216.538 196.266 218.391 195.079 220.338C194.905 220.725 194.447 220.364 194.563 220.106Z" fill="#00497B"/>
<path d="M159.612 205.762C160.073 206.977 160.533 208.193 160.959 209.315C161.171 209.876 161.326 210.566 161.538 211.127C161.658 211.724 162.07 212.53 161.651 213.117C161.499 213.281 161.219 213.387 161.054 213.236C160.445 213.039 160.278 212.033 160.1 211.565C159.888 211.004 159.733 210.314 159.614 209.718C159.247 208.467 158.973 207.18 158.735 205.987C158.616 205.391 159.435 205.294 159.612 205.762Z" fill="#00497B"/>
<path d="M175.167 206.176C174.867 207.36 173.887 208.159 173 208.923C171.774 209.922 170.513 210.827 169.053 211.488C167.779 212.078 166.47 212.574 165.125 212.977C164.435 213.131 163.687 213.415 162.962 213.476C162.365 213.595 161.64 213.656 161.124 213.424C160.866 213.307 160.654 212.746 161.028 212.605C161.46 212.334 161.998 212.344 162.501 212.26C163.191 212.105 163.788 211.986 164.478 211.832C165.729 211.465 166.98 211.097 168.16 210.543C169.434 209.953 170.672 209.27 171.839 208.4C172.761 207.73 173.871 206.988 174.558 205.979C174.767 205.686 175.248 205.825 175.167 206.176Z" fill="#00497B"/>
<path d="M190.182 205.726C194.54 210.17 194.202 217.463 191.986 222.901C189.34 229.465 184.139 234.645 178.276 238.364C174.481 240.765 170.285 242.675 166.078 244.27C165.049 244.66 164.446 243.07 165.44 242.587C173.562 239.188 181.753 235.121 187.158 227.939C191.725 221.931 194.468 213.084 189.576 206.383C189.398 205.916 189.853 205.423 190.182 205.726Z" fill="#00497B"/>
<path d="M165.115 243.138C166.386 241.694 166.59 239.692 166.548 237.89C166.529 235.865 166.195 233.853 165.579 231.947C164.384 228.23 162.183 224.679 159.108 222.209C157.406 220.822 155.049 219.683 152.899 220.498C150.97 221.336 150.58 223.409 150.657 225.305C150.881 229.284 152.489 233.807 154.9 237.064C156.24 238.909 157.884 240.425 159.889 241.483C161.895 242.541 163.839 242.874 166.063 243.1C166.824 243.132 166.711 244.245 166.021 244.399C161.752 245.268 157.013 242.359 154.357 239.302C152.559 237.096 151.286 234.584 150.481 231.895C149.759 229.709 149.096 227.394 149.099 225.146C149.116 223.215 149.636 221.2 151.2 219.966C152.951 218.661 155.421 218.687 157.355 219.558C161.668 221.345 164.891 225.899 166.486 230.107C167.443 232.631 168.061 235.391 168.047 238.177C168.008 240.331 167.759 242.778 165.786 244.061C165.247 244.051 164.719 243.502 165.115 243.138Z" fill="#00497B"/>
<path d="M149.602 225.064C148.271 222.681 148.459 219.508 150.536 217.652C152.858 215.595 156.379 215.009 159.319 215.713C166.383 217.42 169.805 225.32 171.396 231.776C172.168 235.226 172.37 239.427 169.536 242.105C169.046 242.505 168.259 241.841 168.62 241.383C170.575 238.075 170.434 234.6 169.403 231.034C168.337 227.374 166.919 223.633 164.334 220.763C161.785 217.987 158.081 216.396 154.328 217.498C153.077 217.865 151.709 218.49 150.835 219.57C149.507 221.143 150.028 223.084 149.976 224.922C149.918 225.051 149.673 225.251 149.602 225.064Z" fill="#00497B"/>
<path d="M149.696 218.823C150.425 216.515 151.986 214.426 153.654 212.618C154.47 211.667 155.356 210.903 156.301 210.01C156.791 209.611 157.188 209.247 157.714 208.94C158.146 208.67 158.694 208.141 159.326 208.116C159.736 208.067 160.006 208.499 159.797 208.793C159.564 209.309 159.039 209.615 158.607 209.885C158.116 210.285 157.72 210.649 157.194 210.955C156.214 211.755 155.327 212.519 154.476 213.376C152.773 215.091 151.457 216.98 150.083 218.998C150.037 219.443 149.615 219.175 149.696 218.823Z" fill="#00497B"/>
<path d="M40.2707 191.106C43.708 190.017 47.7182 192.133 50.5098 193.856C53.6303 195.881 55.9928 198.729 58.0167 201.812C60.0406 204.894 61.7614 208.306 62.6986 211.908C63.5876 215.1 64.2217 219.03 62.8989 222.312C62.6666 222.828 61.9284 222.573 61.9382 222.034C62.1133 218.546 62.0786 215.351 61.0253 212.007C60.0428 208.85 58.6508 205.742 56.7332 202.94C54.98 200.289 52.9108 197.651 50.3643 195.729C48.8976 194.681 47.3728 193.761 45.603 193.042C43.8331 192.322 42.0534 192.141 40.0513 191.938C39.9223 191.88 39.8032 191.283 40.2707 191.106Z" fill="#00497B"/>
<path d="M270.3 9.38875C268.447 28.4848 265.799 47.4548 263.337 66.354C262.972 69.059 262.607 71.7639 262.241 74.4688C261.876 77.1738 261.605 79.8433 261.111 82.4902C260.891 83.3219 259.837 83.0798 259.87 82.319C260.122 77.6247 260.972 72.8113 261.54 68.1042C262.109 63.3971 262.771 58.6546 263.34 53.9476C264.536 44.4045 265.86 34.9194 267.055 25.3763C267.786 19.9664 268.551 14.6501 269.41 9.29823C269.642 8.78244 270.345 8.94383 270.3 9.38875Z" fill="#00497B"/>
<path d="M234.529 65.4004C233.559 65.6613 232.459 65.8641 231.631 66.499C230.895 67.0985 230.524 68.0946 230.082 68.9038C228.605 71.4956 227.35 74.11 226.224 76.7825C225.076 79.6775 224.314 82.7466 223.423 85.7577C222.416 89.0267 221.503 92.2603 220.403 95.5647C220.032 96.5609 218.426 95.993 218.704 95.0323C219.604 91.4827 220.763 88.0494 221.886 84.5225C222.892 81.2535 223.806 78.0199 225.07 74.8671C226.254 72.0656 227.732 69.4738 229.432 66.9046C230.654 65.0511 232.128 64.7065 234.304 64.5233C234.749 64.5686 235.032 65.3167 234.529 65.4004Z" fill="#00497B"/>
<path d="M231.503 110.179C231.219 109.431 230.935 108.683 230.687 108.028C230.298 107 230.785 105.746 231.813 105.356C232.281 105.179 232.748 105.002 233.216 104.824C234.245 104.434 235.405 104.957 235.76 105.892C236.043 106.64 236.42 107.353 236.704 108.101C237.093 109.13 236.664 110.255 235.671 110.738C235.204 110.915 234.643 111.128 234.175 111.305C232.959 111.766 231.799 111.243 231.503 110.179Z" fill="#00497B"/>
<path d="M218.981 117.492C218.698 116.744 218.414 115.995 218.166 115.341C217.776 114.312 218.263 113.058 219.292 112.668C219.759 112.491 220.227 112.314 220.695 112.137C221.723 111.747 222.884 112.27 223.238 113.205C223.522 113.953 223.899 114.665 224.182 115.413C224.572 116.442 224.143 117.567 223.15 118.051C222.682 118.228 222.121 118.44 221.654 118.618C220.567 119.136 219.371 118.52 218.981 117.492Z" fill="#00497B"/>
<path d="M206.696 125.142C206.412 124.394 206.129 123.646 205.881 122.991C205.491 121.963 205.978 120.709 207.007 120.319C207.474 120.142 207.942 119.964 208.409 119.787C209.438 119.397 210.599 119.92 210.953 120.855C211.236 121.603 211.613 122.316 211.897 123.064C212.287 124.092 211.858 125.218 210.865 125.701C210.397 125.878 209.836 126.091 209.368 126.268C208.246 126.693 206.992 126.206 206.696 125.142Z" fill="#00497B"/>
<path d="M194.35 132.923C194.067 132.175 193.783 131.427 193.535 130.773C193.145 129.744 193.632 128.49 194.661 128.1C195.129 127.923 195.596 127.746 196.064 127.568C197.092 127.179 198.253 127.701 198.607 128.636C198.891 129.384 199.268 130.097 199.551 130.845C199.941 131.874 199.512 132.999 198.519 133.482C198.051 133.659 197.49 133.872 197.023 134.049C195.936 134.568 194.775 134.045 194.35 132.923Z" fill="#00497B"/>
<path d="M182.243 141.04C181.959 140.292 181.676 139.544 181.428 138.89C181.038 137.861 181.525 136.607 182.554 136.217C183.021 136.04 183.489 135.863 183.956 135.686C184.985 135.296 186.145 135.818 186.5 136.754C186.783 137.502 187.16 138.214 187.444 138.962C187.834 139.991 187.405 141.116 186.411 141.599C185.944 141.777 185.383 141.989 184.915 142.166C183.793 142.592 182.539 142.105 182.243 141.04Z" fill="#00497B"/>
<path d="M169.579 147.978C169.295 147.23 169.012 146.482 168.764 145.827C168.374 144.799 168.861 143.545 169.89 143.155C170.357 142.978 170.825 142.8 171.292 142.623C172.321 142.233 173.481 142.756 173.836 143.691C174.119 144.439 174.496 145.152 174.78 145.9C175.17 146.928 174.741 148.054 173.747 148.537C173.28 148.714 172.719 148.927 172.251 149.104C171.129 149.529 169.969 149.007 169.579 147.978Z" fill="#00497B"/>
<path d="M157.116 155.162C156.832 154.413 156.549 153.665 156.301 153.011C155.911 151.982 156.398 150.728 157.427 150.338C157.894 150.161 158.362 149.984 158.829 149.807C159.858 149.417 161.018 149.94 161.373 150.875C161.656 151.623 162.033 152.335 162.317 153.083C162.707 154.112 162.278 155.237 161.284 155.72C160.817 155.898 160.256 156.11 159.788 156.288C158.666 156.713 157.412 156.226 157.116 155.162Z" fill="#00497B"/>
<path d="M144.346 161.82C144.063 161.072 143.779 160.324 143.531 159.669C143.141 158.64 143.629 157.386 144.657 156.997C145.125 156.819 145.592 156.642 146.06 156.465C147.088 156.075 148.249 156.598 148.603 157.533C148.887 158.281 149.264 158.994 149.547 159.742C149.937 160.77 149.508 161.895 148.515 162.379C148.047 162.556 147.486 162.768 147.019 162.946C145.897 163.371 144.736 162.848 144.346 161.82Z" fill="#00497B"/>
<path d="M131.565 168.162C131.282 167.413 130.998 166.665 130.75 166.011C130.36 164.982 130.847 163.728 131.876 163.338C132.343 163.161 132.811 162.984 133.278 162.807C134.307 162.417 135.468 162.94 135.822 163.875C136.106 164.623 136.483 165.335 136.766 166.083C137.156 167.112 136.727 168.237 135.734 168.72C135.266 168.898 134.705 169.11 134.238 169.288C133.115 169.713 131.861 169.226 131.565 168.162Z" fill="#00497B"/>
<path d="M118.512 174.072C118.229 173.324 117.945 172.576 117.697 171.921C117.307 170.892 117.795 169.638 118.823 169.248C119.291 169.071 119.758 168.894 120.226 168.717C121.254 168.327 122.415 168.85 122.769 169.785C123.053 170.533 123.43 171.245 123.713 171.994C124.103 173.022 123.674 174.147 122.681 174.631C122.213 174.808 121.652 175.02 121.185 175.198C120.063 175.623 118.902 175.1 118.512 174.072Z" fill="#00497B"/>
<path d="M105.551 179.945C105.268 179.197 104.984 178.449 104.736 177.794C104.346 176.765 104.834 175.511 105.862 175.122C106.33 174.944 106.797 174.767 107.265 174.59C108.293 174.2 109.454 174.723 109.808 175.658C110.092 176.406 110.469 177.119 110.752 177.867C111.142 178.895 110.713 180.02 109.72 180.504C109.252 180.681 108.691 180.894 108.224 181.071C107.137 181.589 105.977 181.067 105.551 179.945Z" fill="#00497B"/>
<path d="M161.783 224.188C160.615 225.058 159.577 225.986 158.645 227.195C157.864 228.24 157.435 229.365 157.709 230.651C157.912 231.751 158.827 232.473 159.962 232.364C161.226 232.313 162.429 231.536 163.445 230.83C163.783 230.595 164.028 230.395 164.367 230.16C164.706 229.925 164.915 229.631 165.383 229.454C165.757 229.312 166.108 229.393 166.25 229.767C166.392 230.141 166.218 230.528 165.914 230.857C165.402 231.479 164.724 231.949 164.105 232.291C163.522 232.726 162.902 233.068 162.248 233.316C161.032 233.776 159.746 234.05 158.434 233.692C157.086 233.24 156.274 231.944 156.094 230.622C155.807 229.019 156.504 227.472 157.436 226.263C157.949 225.641 158.497 225.112 159.139 224.548C159.781 223.984 160.645 223.443 161.499 223.44C161.944 223.485 162.121 223.953 161.783 224.188Z" fill="#00497B"/>
<path d="M206.735 226.829C205.532 227.606 204.4 228.569 203.432 229.685C202.616 230.636 202.094 231.796 202.274 233.118C202.477 234.217 203.263 234.882 204.469 234.96C205.768 235.002 207.007 234.319 208.022 233.613C208.361 233.378 208.606 233.178 208.945 232.942C209.283 232.707 209.587 232.378 210.054 232.201C210.335 232.095 210.721 232.269 210.828 232.55C210.969 232.924 210.702 233.346 210.399 233.675C209.85 234.203 209.173 234.674 208.554 235.015C207.935 235.357 207.222 235.734 206.568 235.982C205.352 236.443 204.03 236.623 202.87 236.1C201.58 235.52 200.768 234.223 200.681 232.866C200.524 231.322 201.314 229.739 202.375 228.588C202.888 227.966 203.53 227.402 204.207 226.931C204.884 226.461 205.784 226.013 206.674 226.103C206.896 226.126 207.015 226.723 206.735 226.829Z" fill="#00497B"/>
</svg>
