<svg width="37" height="32" viewBox="0 0 37 32" fill="none" xmlns="http://www.w3.org/2000/svg">
<path d="M26.5878 0.755859L4.16785 0.755859C2.00019 0.755859 0.246094 2.51758 0.246094 4.68528L0.246094 16.9484C0.246094 18.0361 0.682701 19.0165 1.39505 19.7289C2.09972 20.4412 3.08019 20.8778 4.16785 20.8778C4.4283 20.8778 4.62746 21.1077 4.58912 21.3757L3.9304 25.6039C3.86149 26.0175 4.35167 26.2626 4.64275 25.9715L9.72112 21.0004C9.80537 20.9238 9.90495 20.8778 10.0199 20.8778H26.5878C28.7555 20.8778 30.5172 19.1238 30.5172 16.9484V4.68528C30.5172 2.51758 28.7555 0.755859 26.5878 0.755859ZM9.22327 10.4836L8.13556 11.5407C8.04365 11.6326 7.99769 11.7705 8.02069 11.9007L8.2811 13.3943C8.33472 13.716 7.99003 13.9688 7.69895 13.8156L6.35089 13.1109C6.23597 13.0497 6.09811 13.0497 5.98319 13.1109L4.62746 13.8156C4.33639 13.9688 3.99169 13.7237 4.05298 13.3943L4.30572 11.9007C4.32872 11.7705 4.28276 11.6402 4.19085 11.5483L3.10314 10.4836C2.86569 10.2462 2.99594 9.84791 3.3253 9.79428L4.82657 9.57979C4.95682 9.5645 5.07169 9.48021 5.13298 9.36534L5.80703 7.99423C5.95257 7.69554 6.38151 7.69554 6.52705 7.99423L7.19344 9.36534C7.25473 9.48021 7.36959 9.5645 7.49984 9.57979L9.00111 9.79428C9.33047 9.84791 9.46072 10.2462 9.22327 10.4836ZM18.4378 10.4836L17.3502 11.5407C17.2583 11.6326 17.2123 11.7705 17.2353 11.9007L17.4957 13.3943C17.5493 13.716 17.2123 13.9688 16.9136 13.8156L15.5655 13.1109C15.4506 13.0497 15.3127 13.0497 15.1978 13.1109L13.8497 13.8156C13.551 13.9688 13.2139 13.7237 13.2676 13.3943L13.5203 11.9007C13.5433 11.7705 13.4973 11.6402 13.4054 11.5483L12.3178 10.4836C12.0803 10.2462 12.2105 9.84791 12.5399 9.79428L14.0412 9.57979C14.1714 9.5645 14.2863 9.48021 14.3476 9.36534L15.0217 7.99423C15.1671 7.69554 15.5961 7.69554 15.7416 7.99423L16.4081 9.36534C16.4693 9.48021 16.5842 9.5645 16.7144 9.57979L18.2157 9.79428C18.5451 9.84791 18.6753 10.2462 18.4378 10.4836ZM27.6525 10.4836L26.5648 11.5407C26.4729 11.6326 26.4346 11.7705 26.4576 11.9007L26.7103 13.3943C26.7716 13.716 26.4269 13.9688 26.1282 13.8156L24.7878 13.1109C24.6652 13.0497 24.5273 13.0497 24.4124 13.1109L23.0643 13.8156C22.7733 13.9688 22.4286 13.7237 22.4822 13.3943L22.7349 11.9007C22.7579 11.7705 22.712 11.6402 22.6201 11.5483L21.5324 10.4836C21.2949 10.2462 21.4251 9.84791 21.7545 9.79428L23.2634 9.57979C23.3937 9.5645 23.5009 9.48021 23.5622 9.36534L24.2362 7.99423C24.3894 7.69554 24.8107 7.69554 24.9563 7.99423L25.6303 9.36534C25.6839 9.48021 25.7988 9.5645 25.929 9.57979L27.4303 9.79428C27.7597 9.84791 27.8899 10.2462 27.6525 10.4836Z" fill="white"/>
<path d="M36.2462 9.82981V22.1006C36.2462 23.1883 35.802 24.1688 35.0973 24.8811C34.3849 25.5858 33.3968 26.0224 32.3168 26.0224C32.0564 26.0224 31.8572 26.2598 31.9032 26.5203L32.5543 30.7484C32.6232 31.1621 32.133 31.4072 31.8419 31.1237L26.7635 26.1449C26.6793 26.076 26.5797 26.0224 26.4648 26.0224H9.89693C9.02372 26.0224 8.21946 25.739 7.56836 25.2564L10.4714 22.4147H26.5874C29.5976 22.4147 32.0487 19.9636 32.0487 16.9533V5.90039H32.3168C34.4845 5.90039 36.2462 7.65449 36.2462 9.82981Z" fill="white"/>
</svg>
