<svg width="23" height="22" viewBox="0 0 23 22" fill="none" xmlns="http://www.w3.org/2000/svg">
<g id="heart 1" clip-path="url(#clip0_20_18916)">
<path id="Vector" d="M11.5564 19.776C11.2398 19.776 10.9346 19.6626 10.6967 19.4565C9.79837 18.6793 8.93225 17.949 8.1681 17.3048L8.1642 17.3015C5.92383 15.4127 3.98918 13.7816 2.64309 12.1748C1.13837 10.3785 0.4375 8.67534 0.4375 6.81476C0.4375 5.00706 1.06406 3.33934 2.20163 2.11859C3.35278 0.883407 4.93233 0.203125 6.64981 0.203125C7.93346 0.203125 9.10904 0.604614 10.1438 1.39635C10.666 1.79599 11.1394 2.28509 11.5564 2.8556C11.9736 2.28509 12.4468 1.79599 12.9692 1.39635C14.0039 0.604614 15.1795 0.203125 16.4632 0.203125C18.1805 0.203125 19.7602 0.883407 20.9113 2.11859C22.0489 3.33934 22.6753 5.00706 22.6753 6.81476C22.6753 8.67534 21.9746 10.3785 20.4699 12.1746C19.1238 13.7816 17.1893 15.4125 14.9493 17.3011C14.1838 17.9463 13.3163 18.6778 12.4159 19.4568C12.1782 19.6626 11.8728 19.776 11.5564 19.776ZM6.64981 1.49185C5.30049 1.49185 4.06095 2.02459 3.1592 2.99206C2.24405 3.97413 1.73999 5.33167 1.73999 6.81476C1.73999 8.3796 2.32786 9.7791 3.64596 11.3525C4.91994 12.8733 6.81489 14.4709 9.00894 16.3207L9.01301 16.3241C9.78005 16.9708 10.6496 17.704 11.5545 18.4868C12.4649 17.7025 13.3358 16.9681 14.1044 16.3204C16.2983 14.4706 18.193 12.8733 19.467 11.3525C20.7849 9.7791 21.3728 8.3796 21.3728 6.81476C21.3728 5.33167 20.8687 3.97413 19.9536 2.99206C19.052 2.02459 17.8123 1.49185 16.4632 1.49185C15.4747 1.49185 14.5672 1.8027 13.7659 2.41568C13.0518 2.96218 12.5543 3.65304 12.2627 4.13644C12.1127 4.38502 11.8487 4.5334 11.5564 4.5334C11.2641 4.5334 11.0001 4.38502 10.8501 4.13644C10.5586 3.65304 10.0612 2.96218 9.3469 2.41568C8.5456 1.8027 7.63808 1.49185 6.64981 1.49185Z" fill="black"/>
</g>
<defs>
<clipPath id="clip0_20_18916">
<rect width="22.2378" height="22" fill="white" transform="translate(0.4375)"/>
</clipPath>
</defs>
</svg>
