<svg width="186" height="108" viewBox="0 0 186 108" fill="none" xmlns="http://www.w3.org/2000/svg">
<g id="Group 1410097621">
<path id="Vector" d="M124.56 55.9751C124.409 55.5343 124.251 55.1001 124.086 54.6594C134.612 53.1201 137.5 51.1663 139.085 47.9692C139.8 46.559 140.14 44.9885 140.072 43.409C140.004 41.8294 139.53 40.2939 138.697 38.9503C135.618 33.9837 129.25 32.3128 109.982 31.7997C109.338 25.9129 108.22 20.0876 106.641 14.3802C105.582 10.8279 102.352 0 93.2669 0C84.1823 0 80.9589 10.8279 79.8997 14.3868C78.3207 20.0947 77.201 25.9197 76.5514 31.8063C57.29 32.3194 50.8959 33.9903 47.8369 38.9635C47.0058 40.3068 46.5341 41.8414 46.4673 43.4197C46.4004 44.998 46.7407 46.567 47.4554 47.9758C49.0408 51.1729 51.9089 53.1266 62.454 54.666C62.2896 55.1001 62.1317 55.5343 61.9804 55.9816C16.9977 56.9684 6.4658 60.5865 2.37407 67.1648C1.40578 68.716 0.858332 70.4927 0.78566 72.3199C0.712989 74.1471 1.1176 75.9617 1.95963 77.5849C3.70289 81.078 6.65657 83.2949 17.32 85.3539C18.119 88.8774 20.0908 92.0252 22.9125 94.2816C25.7342 96.538 29.2385 97.7693 32.8515 97.7738C36.2144 97.7807 39.4917 96.7136 42.2059 94.728C43.6985 96.4524 45.5446 97.8356 47.6189 98.7835C49.6932 99.7315 51.9471 100.222 54.2278 100.222C56.5085 100.222 58.7624 99.7315 60.8367 98.7835C62.911 97.8356 64.7571 96.4524 66.2497 94.728C69.4814 98.7957 73.5897 102.081 78.2683 104.34C82.9469 106.598 88.0751 107.771 93.2702 107.771C98.4654 107.771 103.594 106.598 108.272 104.34C112.951 102.081 117.059 98.7957 120.291 94.728C121.783 96.4524 123.629 97.8356 125.704 98.7835C127.778 99.7315 130.032 100.222 132.313 100.222C134.593 100.222 136.847 99.7315 138.922 98.7835C140.996 97.8356 142.842 96.4524 144.335 94.728C147.051 96.721 150.333 97.7929 153.702 97.7869C157.316 97.784 160.822 96.5534 163.645 94.2968C166.468 92.0403 168.441 88.8917 169.24 85.3671C179.904 83.308 182.857 81.0911 184.594 77.5915C185.436 75.9696 185.841 74.1566 185.769 72.3307C185.698 70.5048 185.152 68.729 184.186 67.178C180.075 60.5733 169.543 56.9618 124.56 55.9751Z" fill="white"/>
<path id="Vector_2" d="M85.8945 34.5299C88.1569 33.2931 90.6938 32.6449 93.2721 32.6449C95.8505 32.6449 98.3874 33.2931 100.65 34.5299C99.0051 20.5707 96.3278 9.53223 93.2688 9.53223C90.2099 9.53223 87.5391 20.5641 85.8945 34.5299Z" fill="#2ABCBF"/>
<path id="Vector_3" d="M26.4799 81.8668C26.4524 82.7215 26.597 83.5731 26.9052 84.3709C27.2133 85.1686 27.6787 85.8963 28.2737 86.5107C28.8686 87.125 29.5809 87.6135 30.3684 87.9471C31.1558 88.2807 32.0023 88.4526 32.8576 88.4526C33.7128 88.4526 34.5592 88.2807 35.3467 87.9471C36.1341 87.6135 36.8465 87.125 37.4414 86.5107C38.0364 85.8963 38.5017 85.1686 38.8099 84.3709C39.118 83.5731 39.2627 82.7215 39.2352 81.8668C39.2352 81.8273 39.2352 81.7878 39.2352 81.7418C34.3278 81.2287 30.2032 80.7221 26.7364 80.2354C26.5806 80.7658 26.4944 81.3142 26.4799 81.8668Z" fill="#2ABCBF"/>
<path id="Vector_4" d="M48.0807 82.6182C47.9257 83.1574 47.8439 83.7149 47.8373 84.2759C47.8098 85.1307 47.9545 85.9822 48.2626 86.78C48.5708 87.5778 49.0361 88.3054 49.6311 88.9198C50.226 89.5341 50.9384 90.0226 51.7258 90.3562C52.5133 90.6898 53.3598 90.8618 54.215 90.8618C55.0702 90.8618 55.9167 90.6898 56.7041 90.3562C57.4916 90.0226 58.2039 89.5341 58.7988 88.9198C59.3938 88.3054 59.8592 87.5778 60.1673 86.78C60.4755 85.9822 60.6201 85.1307 60.5927 84.2759C60.5927 84.0654 60.5532 83.868 60.5335 83.6575C57.8166 83.4536 55.0471 83.2234 52.2776 82.9997L48.0807 82.6182Z" fill="#2ABCBF"/>
<path id="Vector_5" d="M66.4998 81.1643C65.7269 78.5861 65.3325 75.9093 65.3288 73.2177C65.3637 70.5921 65.6589 67.9764 66.2103 65.4092C41.6403 65.8368 13.5837 67.2972 10.5182 72.2046C10.4045 72.3738 10.3438 72.5731 10.3438 72.7769C10.3438 72.9808 10.4045 73.18 10.5182 73.3492C12.5377 76.0332 37.5156 79.0526 66.4998 81.1643Z" fill="white"/>
<path id="Vector_6" d="M147.309 81.8668C147.284 82.7888 147.459 83.7054 147.822 84.5532C148.185 85.4011 148.728 86.1602 149.413 86.7781C150.097 87.3961 150.908 87.8582 151.789 88.1327C152.669 88.4072 153.599 88.4875 154.514 88.3682C155.428 88.2488 156.306 87.9325 157.087 87.4412C157.867 86.9499 158.532 86.2951 159.035 85.5221C159.539 84.7491 159.868 83.8762 160.002 82.9635C160.135 82.0508 160.069 81.12 159.808 80.2354C156.334 80.7221 152.21 81.2287 147.309 81.7418C147.322 81.7878 147.309 81.8273 147.309 81.8668Z" fill="#2ABCBF"/>
<path id="Vector_7" d="M126.004 83.6575C126.004 83.868 125.945 84.0654 125.945 84.2759C125.917 85.1307 126.062 85.9822 126.37 86.78C126.678 87.5778 127.144 88.3054 127.738 88.9198C128.333 89.5341 129.046 90.0226 129.833 90.3562C130.621 90.6898 131.467 90.8618 132.322 90.8618C133.178 90.8618 134.024 90.6898 134.812 90.3562C135.599 90.0226 136.311 89.5341 136.906 88.9198C137.501 88.3054 137.967 87.5778 138.275 86.78C138.583 85.9822 138.728 85.1307 138.7 84.2759C138.693 83.7149 138.612 83.1574 138.457 82.6182L134.26 82.9865C131.49 83.2234 128.701 83.4536 126.004 83.6575Z" fill="#2ABCBF"/>
<path id="Vector_8" d="M176.071 73.3098C176.181 73.1463 176.239 72.9539 176.239 72.7572C176.239 72.5604 176.181 72.3681 176.071 72.2046C173.025 67.2972 144.949 65.8368 120.379 65.4092C120.919 67.9776 121.204 70.5932 121.228 73.2177C121.224 75.9093 120.83 78.5861 120.057 81.1643C149.028 79.0526 174.012 76.0266 176.071 73.3098Z" fill="white"/>
<path id="Vector_9" d="M77.5772 41.3447C65.0783 41.6802 57.9277 42.4762 56.2305 43.7195C58.204 44.5944 65.2165 45.522 73.9196 46.3048C75.0222 44.5686 76.2444 42.9112 77.5772 41.3447Z" fill="#2ABCBF"/>
<path id="Vector_10" d="M108.967 41.3447C110.3 42.9112 111.522 44.5686 112.624 46.3048C121.327 45.522 128.32 44.5944 130.314 43.7195C128.61 42.4762 121.466 41.6802 108.967 41.3447Z" fill="#2ABCBF"/>
<path id="Vector_11" d="M105.95 56.5352H80.5902C79.9072 56.5352 79.3535 57.0889 79.3535 57.7719V61.0216C79.3535 61.7046 79.9072 62.2583 80.5902 62.2583H105.95C106.633 62.2583 107.186 61.7046 107.186 61.0216V57.7719C107.186 57.0889 106.633 56.5352 105.95 56.5352Z" fill="#2ABCBF"/>
<path id="Vector_12" d="M118.245 73.2167C118.245 59.047 106.575 35.6084 93.2477 35.6084C79.92 35.6084 68.25 59.047 68.25 73.2167C68.5265 79.6549 71.2786 85.7375 75.932 90.1954C80.5854 94.6532 86.7806 97.1418 93.2246 97.1418C99.6687 97.1418 105.864 94.6532 110.517 90.1954C115.171 85.7375 117.923 79.6549 118.199 73.2167H118.245ZM80.5909 65.2241C79.4766 65.2223 78.4085 64.7789 77.6205 63.9909C76.8326 63.203 76.3891 62.1348 76.3874 61.0205V57.7708C76.3891 56.6571 76.8328 55.5896 77.6209 54.8027C78.409 54.0158 79.4772 53.5738 80.5909 53.5738H105.95C107.064 53.5738 108.132 54.0158 108.92 54.8027C109.709 55.5896 110.152 56.6571 110.154 57.7708V61.0205C110.152 62.1348 109.709 63.203 108.921 63.9909C108.133 64.7789 107.065 65.2223 105.95 65.2241H80.5909ZM93.2674 89.7086C91.4121 89.7086 89.5984 89.1584 88.0558 88.1277C86.5131 87.0969 85.3108 85.6319 84.6008 83.9178C83.8908 82.2037 83.705 80.3175 84.067 78.4978C84.4289 76.6782 85.3223 75.0067 86.6342 73.6948C87.9462 72.3828 89.6176 71.4894 91.4373 71.1275C93.257 70.7655 95.1431 70.9513 96.8572 71.6613C98.5713 72.3713 100.036 73.5736 101.067 75.1163C102.098 76.6589 102.648 78.4726 102.648 80.3279C102.646 82.8153 101.657 85.2003 99.8986 86.9591C98.1398 88.718 95.7548 89.7069 93.2674 89.7086Z" fill="white"/>
<path id="Vector_13" d="M93.2654 86.7418C96.8077 86.7418 99.6793 83.8702 99.6793 80.3279C99.6793 76.7857 96.8077 73.9141 93.2654 73.9141C89.7232 73.9141 86.8516 76.7857 86.8516 80.3279C86.8516 83.8702 89.7232 86.7418 93.2654 86.7418Z" fill="#2ABCBF"/>
<path id="Vector_14" d="M120.242 76.526C120.242 76.526 168.481 76.526 177.256 71.7041C177.256 71.7041 179.447 74.5525 176.158 75.434C172.868 76.3155 118.709 83.1044 118.709 83.1044L120.242 76.526Z" fill="#E6E7E8"/>
<path id="Vector_15" d="M66.3619 76.526C66.3619 76.526 18.1164 76.526 9.34749 71.7041C9.34749 71.7041 7.15691 74.5525 10.4461 75.434C13.7352 76.3155 67.8946 83.1044 67.8946 83.1044L66.3619 76.526Z" fill="#E6E7E8"/>
<path id="Vector_16" d="M118.248 73.2171C118.235 71.6756 118.115 70.1369 117.886 68.6123C115.761 71.9015 110.867 77.9733 102.625 80.8612C102.502 83.2391 101.479 85.4813 99.7624 87.1317C98.0461 88.7822 95.7657 89.7171 93.3848 89.7464C91.0038 89.7758 88.7011 88.8973 86.9446 87.2896C85.1882 85.6819 84.1099 83.4657 83.9289 81.0914C77.5303 79.0166 72.092 74.7085 68.608 68.9544C68.4085 70.3689 68.3052 71.7952 68.2988 73.2237C68.5753 79.6619 71.3274 85.7445 75.9808 90.2023C80.6342 94.6602 86.8294 97.1488 93.2735 97.1488C99.7176 97.1488 105.913 94.6602 110.566 90.2023C115.219 85.7445 117.972 79.6619 118.248 73.2237V73.2171Z" fill="#E6E7E8"/>
<path id="Vector_17" d="M86.9153 78.2825C86.9153 78.2825 88.6717 82.6702 93.4937 82.8873C98.3156 83.1044 100.73 76.9668 100.73 76.9668C100.73 76.9668 104.677 88.15 93.2766 88.15C81.8763 88.15 85.5997 79.1574 86.9153 78.2825Z" fill="#00AFA7"/>
<path id="Vector_18" d="M56.2294 43.7197C56.2294 43.7197 74.6487 44.7328 77.2801 43.4171C79.9114 42.1014 73.9909 48.8969 73.9909 48.8969C73.9909 48.8969 54.4861 47.9693 56.2294 43.7197Z" fill="#00AFA7"/>
<path id="Vector_19" d="M130.674 43.7197C130.674 43.7197 112.255 44.7328 109.623 43.4171C106.992 42.1014 112.913 48.8969 112.913 48.8969C112.913 48.8969 132.411 47.9693 130.674 43.7197Z" fill="#00AFA7"/>
<path id="Vector_20" d="M87.3555 21.2676C87.3555 21.2676 87.1384 30.918 93.7167 30.918C100.295 30.918 100.071 22.5832 100.071 22.5832L102.486 37.4963C102.486 37.4963 98.5387 33.5493 93.0589 33.9901C87.5792 34.4308 83.1914 38.812 83.1914 38.812C83.1914 38.812 84.5071 23.6818 87.3555 21.2676Z" fill="#00AFA7"/>
<path id="Vector_21" d="M29.2443 79.8154C29.2443 79.8154 28.1458 84.861 32.3098 85.5188C36.4739 86.1767 36.9147 80.4733 36.9147 80.4733L29.2443 79.8154Z" fill="#00AFA7"/>
<path id="Vector_22" d="M49.8632 81.2754C49.8632 81.2754 49.1067 87.4919 54.2575 87.9985C59.4084 88.505 58.3953 81.7951 58.3953 81.7951L49.8632 81.2754Z" fill="#00AFA7"/>
<path id="Vector_23" d="M157.023 79.8154C157.023 79.8154 158.121 84.861 153.951 85.5188C149.78 86.1767 149.346 80.4733 149.346 80.4733L157.023 79.8154Z" fill="#00AFA7"/>
<path id="Vector_24" d="M136.408 81.2754C136.408 81.2754 137.184 87.4853 132.007 87.9984C126.83 88.5116 127.876 81.7951 127.876 81.7951L136.408 81.2754Z" fill="#00AFA7"/>
<path id="Vector_25" d="M79.3671 61.0204L82.9786 55.2578L85.9389 56.2446L80.6762 64.1386C80.6762 64.1386 78.0515 62.1848 79.3671 61.0204Z" fill="white"/>
<path id="Vector_26" d="M83.8438 63.9218L88.5538 55.916L91.0799 56.0278L86.5803 63.5929L83.8438 63.9218Z" fill="white"/>
<path id="Vector_27" d="M119.678 62.4555C118.448 57.8262 116.654 53.3656 114.336 49.1738C126.039 48.0687 132.38 46.6938 133.196 45.0558C133.413 44.6477 133.519 44.1897 133.503 43.7278C133.487 43.2659 133.349 42.8163 133.104 42.4245C131.479 39.7931 124.276 38.6222 106.001 38.2998C105.331 37.6859 104.631 37.1063 103.903 36.5632C102.429 22.4197 99.4031 6.5791 93.2655 6.5791C87.128 6.5791 84.1085 22.4197 82.6547 36.5632C81.9442 37.0938 81.2469 37.6727 80.5628 38.2998C62.2882 38.6222 55.0783 39.8063 53.46 42.4245C53.2149 42.8163 53.0774 43.2659 53.0612 43.7278C53.0451 44.1897 53.1509 44.6477 53.368 45.0558C54.1837 46.6938 60.5252 48.0687 72.228 49.1738C69.9035 53.3647 68.1029 57.8253 66.8667 62.4555C27.7059 63.1133 11.1219 65.5539 7.9709 70.6455C7.59255 71.2447 7.38253 71.9348 7.36285 72.6431C7.34317 73.3515 7.51456 74.0522 7.85906 74.6714C8.38532 75.724 9.30629 77.5659 23.7523 79.8026C23.4417 81.0836 23.4058 82.416 23.6468 83.7119C23.8879 85.0079 24.4006 86.2382 25.1511 87.3219C25.9016 88.4056 26.8729 89.3182 28.0013 89.9996C29.1297 90.6811 30.3895 91.1161 31.698 91.2759C33.0065 91.4357 34.3339 91.3168 35.5932 90.9269C36.8524 90.5371 38.0149 89.8851 39.0041 89.0139C39.9934 88.1427 40.7871 87.072 41.333 85.8722C41.879 84.6723 42.1647 83.3705 42.1716 82.0523L45.0529 82.3352C44.7863 83.6126 44.7902 84.9317 45.0645 86.2075C45.3387 87.4832 45.8773 88.6874 46.6453 89.7423C47.4134 90.7973 48.394 91.6796 49.5238 92.3324C50.6537 92.9852 51.9078 93.3941 53.2054 93.5326C54.5029 93.6711 55.8151 93.5362 57.0574 93.1367C58.2996 92.7371 59.4443 92.0817 60.4178 91.2127C61.3913 90.3437 62.1719 89.2804 62.7093 88.0912C63.2467 86.9021 63.529 85.6136 63.5381 84.3087C63.5381 84.1772 63.5381 84.0522 63.5381 83.9206L67.5771 84.2166C69.7251 89.252 73.3054 93.5451 77.8731 96.5626C82.4408 99.58 87.7945 101.189 93.2688 101.189C98.7432 101.189 104.097 99.58 108.665 96.5626C113.232 93.5451 116.813 89.252 118.96 84.2166L123 83.9206C123 84.0522 123 84.1772 123 84.3087C123 85.6199 123.276 86.9164 123.81 88.114C124.343 89.3116 125.123 90.3835 126.099 91.26C127.074 92.1366 128.222 92.7981 129.47 93.2018C130.717 93.6054 132.036 93.742 133.34 93.6028C134.644 93.4636 135.903 93.0517 137.038 92.3938C138.172 91.7359 139.155 90.8467 139.923 89.7841C140.691 88.7215 141.227 87.5091 141.496 86.2258C141.765 84.9425 141.761 83.6169 141.485 82.3352L144.366 82.0523C144.373 83.3705 144.659 84.6723 145.205 85.8722C145.751 87.072 146.544 88.1427 147.533 89.0139C148.523 89.8851 149.685 90.5371 150.944 90.9269C152.204 91.3168 153.531 91.4357 154.84 91.2759C156.148 91.1161 157.408 90.6811 158.536 89.9996C159.665 89.3182 160.636 88.4056 161.387 87.3219C162.137 86.2382 162.65 85.0079 162.891 83.7119C163.132 82.416 163.096 81.0836 162.785 79.8026C177.258 77.5659 178.159 75.724 178.685 74.6714C179.03 74.0522 179.201 73.3515 179.181 72.6431C179.162 71.9348 178.952 71.2447 178.573 70.6455C175.409 65.5539 158.838 63.1528 119.678 62.4555ZM160.062 81.8681C160.089 82.7229 159.945 83.5745 159.637 84.3722C159.328 85.17 158.863 85.8977 158.268 86.512C157.673 87.1264 156.961 87.6149 156.173 87.9485C155.386 88.2821 154.539 88.454 153.684 88.454C152.829 88.454 151.983 88.2821 151.195 87.9485C150.408 87.6149 149.695 87.1264 149.1 86.512C148.505 85.8977 148.04 85.17 147.732 84.3722C147.424 83.5745 147.279 82.7229 147.307 81.8681C147.307 81.8287 147.307 81.7892 147.307 81.7432C152.214 81.23 156.339 80.7235 159.805 80.2367C159.961 80.7671 160.047 81.3155 160.062 81.8681ZM120.039 81.1643C120.812 78.586 121.207 75.9092 121.21 73.2176C121.186 70.5932 120.902 67.9775 120.362 65.4092C144.932 65.8367 172.988 67.2971 176.054 72.2046C176.163 72.3681 176.222 72.5604 176.222 72.7572C176.222 72.9539 176.163 73.1462 176.054 73.3097C174.008 76.0266 149.023 79.0526 120.039 81.1643ZM138.702 84.2758C138.73 85.1306 138.585 85.9822 138.277 86.7799C137.969 87.5777 137.503 88.3053 136.908 88.9197C136.313 89.534 135.601 90.0225 134.814 90.3561C134.026 90.6898 133.18 90.8617 132.324 90.8617C131.469 90.8617 130.623 90.6898 129.835 90.3561C129.048 90.0225 128.335 89.534 127.74 88.9197C127.146 88.3053 126.68 87.5777 126.372 86.7799C126.064 85.9822 125.919 85.1306 125.947 84.2758C125.947 84.0653 125.986 83.868 126.006 83.6575C128.723 83.4535 131.492 83.2233 134.262 82.9996L138.459 82.6312C138.612 83.1662 138.694 83.7193 138.702 84.2758ZM93.2655 98.189C86.6357 98.189 80.2775 95.5553 75.5895 90.8673C70.9016 86.1794 68.2679 79.8211 68.2679 73.1913C68.2679 59.0216 79.9378 35.583 93.2655 35.583C106.593 35.583 118.263 59.0216 118.263 73.1913C118.263 79.8211 115.63 86.1794 110.942 90.8673C106.254 95.5553 99.8953 98.189 93.2655 98.189ZM60.591 84.2758C60.6184 85.1306 60.4738 85.9822 60.1656 86.7799C59.8575 87.5777 59.3921 88.3053 58.7971 88.9197C58.2022 89.534 57.4899 90.0225 56.7024 90.3561C55.915 90.6898 55.0685 90.8617 54.2133 90.8617C53.3581 90.8617 52.5116 90.6898 51.7241 90.3561C50.9367 90.0225 50.2243 89.534 49.6294 88.9197C49.0345 88.3053 48.5691 87.5777 48.2609 86.7799C47.9528 85.9822 47.8081 85.1306 47.8356 84.2758C47.8422 83.7148 47.924 83.1573 48.079 82.6181L52.276 82.9865C55.0454 83.2233 57.8149 83.4535 60.5317 83.6443C60.5515 83.868 60.591 84.0653 60.591 84.2758ZM10.5101 73.3492C10.3964 73.18 10.3357 72.9808 10.3357 72.7769C10.3357 72.573 10.3964 72.3738 10.5101 72.2046C13.5493 67.2971 41.6322 65.8367 66.2023 65.4092C65.6619 67.9775 65.3777 70.5932 65.3537 73.2176C65.3573 75.9092 65.7518 78.586 66.5246 81.1643C37.5142 79.0526 12.5362 76.0332 10.5101 73.3492ZM39.2377 81.8681C39.2655 82.7908 39.0928 83.7085 38.7314 84.5579C38.3701 85.4073 37.8288 86.1682 37.1449 86.7881C36.461 87.408 35.6507 87.8722 34.77 88.1485C33.8892 88.4249 32.959 88.5068 32.0436 88.3888C31.1281 88.2707 30.2491 87.9555 29.4673 87.4647C28.6855 86.974 28.0194 86.3195 27.5151 85.5464C27.0108 84.7733 26.6803 83.8999 26.5462 82.9866C26.4122 82.0734 26.4779 81.1419 26.7389 80.2565C30.2122 80.7433 34.3368 81.2498 39.2377 81.7629C39.2377 81.7892 39.2377 81.8287 39.2377 81.8681ZM100.653 34.5041C98.3907 33.2674 95.8537 32.6192 93.2754 32.6192C90.6971 32.6192 88.1601 33.2674 85.8978 34.5041C87.5424 20.5383 90.2132 9.50646 93.2721 9.50646C96.331 9.50646 99.0018 20.5646 100.646 34.5239L100.653 34.5041ZM108.968 41.3456C121.467 41.6811 128.617 42.4771 130.315 43.7204C128.341 44.5953 121.329 45.5229 112.626 46.3057C111.523 44.5694 110.301 42.9121 108.968 41.3456ZM77.5828 41.3456C76.25 42.9121 75.0278 44.5694 73.9252 46.3057C65.2221 45.5229 58.2228 44.5953 56.2361 43.7204C57.9267 42.4771 65.084 41.6811 77.5762 41.3456H77.5828Z" fill="#152532"/>
<path id="Vector_28" d="M105.95 65.2244C107.064 65.2227 108.132 64.7793 108.92 63.9913C109.708 63.2034 110.152 62.1352 110.153 61.0209V57.7712C110.152 56.6575 109.708 55.59 108.92 54.8031C108.132 54.0162 107.063 53.5742 105.95 53.5742H80.5903C79.4766 53.5742 78.4084 54.0162 77.6202 54.8031C76.8321 55.59 76.3885 56.6575 76.3867 57.7712V61.0209C76.3885 62.1352 76.8319 63.2034 77.6198 63.9913C78.4078 64.7793 79.4759 65.2227 80.5903 65.2244H105.95ZM80.5903 62.2576C80.2623 62.2576 79.9477 62.1273 79.7158 61.8954C79.4838 61.6635 79.3536 61.3489 79.3536 61.0209V57.7712C79.3536 57.4432 79.4838 57.1286 79.7158 56.8967C79.9477 56.6648 80.2623 56.5345 80.5903 56.5345H105.95C106.278 56.5345 106.592 56.6648 106.824 56.8967C107.056 57.1286 107.186 57.4432 107.186 57.7712V61.0209C107.186 61.3489 107.056 61.6635 106.824 61.8954C106.592 62.1273 106.278 62.2576 105.95 62.2576H80.5903Z" fill="#152532"/>
<path id="Vector_29" d="M102.648 80.328C102.648 78.4726 102.098 76.659 101.067 75.1163C100.036 73.5737 98.5714 72.3713 96.8573 71.6613C95.1432 70.9513 93.257 70.7656 91.4373 71.1275C89.6177 71.4895 87.9462 72.3829 86.6343 73.6948C85.3223 75.0067 84.4289 76.6782 84.067 78.4979C83.705 80.3176 83.8908 82.2037 84.6008 83.9178C85.3108 85.6319 86.5131 87.097 88.0558 88.1277C89.5984 89.1585 91.4121 89.7087 93.2674 89.7087C95.7548 89.7069 98.1398 88.7181 99.8986 86.9592C101.657 85.2004 102.646 82.8154 102.648 80.328ZM86.8601 80.328C86.8588 79.0576 87.2344 77.8153 87.9394 76.7585C88.6444 75.7016 89.6471 74.8777 90.8205 74.3909C91.994 73.9042 93.2855 73.7765 94.5315 74.024C95.7776 74.2715 96.9222 74.8831 97.8205 75.7815C98.7188 76.6798 99.3305 77.8244 99.578 79.0704C99.8255 80.3165 99.6978 81.608 99.211 82.7814C98.7243 83.9549 97.9003 84.9576 96.8435 85.6626C95.7866 86.3675 94.5444 86.7432 93.274 86.7419C91.5729 86.7401 89.9418 86.064 88.7383 84.8618C87.5348 83.6595 86.857 82.0291 86.8535 80.328H86.8601Z" fill="#152532"/>
</g>
</svg>
