<svg width="112" height="108" viewBox="0 0 112 108" fill="none" xmlns="http://www.w3.org/2000/svg">
<path d="M100.627 97.2264C96.3276 100.136 90.5353 99.1522 83.0114 96.9773L101.493 58.54C101.581 58.3651 101.624 58.1773 101.619 57.9884C101.613 57.7994 101.56 57.6134 101.461 57.4422C101.363 57.2709 101.222 57.1181 101.048 56.9933C100.873 56.8686 100.669 56.7746 100.448 56.7174L87.4078 53.2485V42.1493C87.4076 41.8247 87.2656 41.5108 87.0072 41.2638C86.7487 41.0167 86.3906 40.8525 85.9971 40.8006L82.7949 40.3692V31.7486C82.7942 31.4207 82.6493 31.1039 82.3864 30.8554C82.1235 30.6069 81.7601 30.4432 81.3618 30.3939L76.6295 29.7863V21.3419C76.6281 21.0293 76.4956 20.7265 76.254 20.4835C76.0124 20.2404 75.6762 20.0718 75.3009 20.0054L65.3958 18.2497V7.47239C65.3958 7.29237 65.3521 7.11413 65.2673 6.9479C65.1824 6.78166 65.058 6.63069 64.9013 6.50368C64.7445 6.37667 64.5585 6.27612 64.3539 6.20779C64.1493 6.13945 63.9301 6.10468 63.7089 6.10548H47.0264C46.8052 6.10468 46.586 6.13945 46.3814 6.20779C46.1768 6.27612 45.9907 6.37667 45.834 6.50368C45.6773 6.63069 45.5529 6.78166 45.468 6.9479C45.3832 7.11413 45.3395 7.29237 45.3395 7.47239V18.2497L35.4344 20.0054C35.0591 20.0718 34.7229 20.2404 34.4813 20.4835C34.2397 20.7265 34.1073 21.0293 34.1058 21.3419V29.8107L29.3735 30.4182C28.9752 30.4675 28.6118 30.6312 28.3489 30.8797C28.086 31.1282 27.9411 31.445 27.9404 31.7729V40.3692L24.7382 40.8006C24.3447 40.8525 23.9866 41.0167 23.7281 41.2638C23.4697 41.5108 23.3277 41.8247 23.3275 42.1493V53.2728L10.2651 56.7417C10.0438 56.7989 9.83941 56.8929 9.66496 57.0176C9.4905 57.1424 9.34972 57.2952 9.25152 57.4665C9.15331 57.6377 9.09982 57.8237 9.09441 58.0127C9.089 58.2016 9.13181 58.3894 9.22011 58.5642L27.7015 97.0016C20.1776 99.1765 14.3853 100.167 10.086 97.2507C9.74249 97.0187 9.29983 96.9072 8.85539 96.9408C8.41095 96.9745 8.00112 97.1504 7.71605 97.4299C7.43099 97.7095 7.29405 98.0697 7.33535 98.4314C7.37664 98.7932 7.59279 99.1268 7.93626 99.3588C10.4038 101.003 13.5188 101.866 16.7067 101.789C21.663 101.789 27.0148 100.155 31.971 98.6419C35.8002 97.4755 37.7334 98.0769 40.9281 99.0793C50.1797 102.085 60.4958 102.085 69.7475 99.0793C72.9571 98.0769 74.8903 97.4755 78.7045 98.6419C83.6608 100.155 89.0126 101.789 93.9689 101.789C97.1568 101.866 100.272 101.003 102.739 99.3588C103.083 99.1268 103.299 98.7932 103.34 98.4314C103.382 98.0697 103.245 97.7095 102.96 97.4299C102.674 97.1504 102.265 96.9745 101.82 96.9408C101.376 96.9072 100.933 97.0187 100.59 97.2507L100.627 97.2264ZM93.5285 67.5858L57.0508 57.9142V48.0846L97.7084 58.8923L93.5285 67.5858ZM48.7058 8.83929H62.0295V17.6543L55.7222 16.5365C55.6055 16.5273 55.488 16.5273 55.3714 16.5365C55.262 16.5303 55.1523 16.5303 55.043 16.5365L48.7357 17.6543L48.7058 8.83929ZM37.4722 22.4476L55.3863 19.2764L73.3005 22.4476V29.3915L55.655 27.2166C55.5706 27.2107 55.4857 27.2107 55.4012 27.2166C55.3193 27.2105 55.2369 27.2105 55.1549 27.2166L37.5095 29.3915L37.4722 22.4476ZM31.3067 32.9211L55.3714 29.9504L79.4286 32.9211V39.9197L55.6401 36.7849C55.5384 36.7758 55.4358 36.7758 55.3341 36.7849C55.2546 36.7788 55.1746 36.7788 55.0952 36.7849L31.3067 39.9501V32.9211ZM26.6864 43.3157L55.3639 39.4944L84.034 43.3157V52.3798L55.8789 44.8952C55.8342 44.8952 55.7894 44.8952 55.7446 44.8952C55.5853 44.867 55.4221 44.8568 55.2594 44.8648H54.9907H54.8414L26.6864 52.3798V43.3157ZM53.677 48.0846V57.9142L17.2068 67.5858L13.0269 58.8923L53.677 48.0846ZM68.5607 96.5095C60.0857 99.2638 50.6347 99.2638 42.1597 96.5095C38.7784 95.4525 35.8599 94.5412 30.8813 96.0417L18.431 70.1374L53.6845 60.7938V86.0725C53.6691 86.26 53.7013 86.4482 53.7789 86.6252C53.8565 86.8023 53.978 86.9645 54.1358 87.1018C54.2936 87.239 54.4844 87.3485 54.6963 87.4233C54.9081 87.4981 55.1367 87.5367 55.3676 87.5367C55.5986 87.5367 55.8271 87.4981 56.039 87.4233C56.2509 87.3485 56.4417 87.239 56.5995 87.1018C56.7573 86.9645 56.8788 86.8023 56.9564 86.6252C57.034 86.4482 57.0662 86.26 57.0508 86.0725V60.7938L92.3044 70.1374L79.8466 96.0417C74.8679 94.5412 71.9494 95.4525 68.5681 96.5095H68.5607Z" fill="#152532"/>
<path d="M55.5106 16.6112C55.62 16.6051 55.7297 16.6051 55.839 16.6112C55.9557 16.6021 56.0732 16.6021 56.1899 16.6112L62.4971 17.7291V8.91406H49.166V17.7291L55.4733 16.6112H55.5106Z" fill="#2ABCBF"/>
<path d="M57.5117 57.9888L93.9894 67.6604L98.1693 58.9669L57.5117 48.1592V57.9888Z" fill="#2ABCBF"/>
<path d="M54.1439 57.9888V48.1592L13.4863 58.9669L17.6663 67.6604L54.1439 57.9888Z" fill="#2ABCBF"/>
<path d="M92.7621 70.2127L57.5086 60.8691V86.1478C57.5239 86.3353 57.4918 86.5235 57.4141 86.7005C57.3365 86.8776 57.215 87.0398 57.0572 87.1771C56.8994 87.3143 56.7087 87.4238 56.4968 87.4986C56.2849 87.5734 56.0564 87.612 55.8254 87.612C55.5944 87.612 55.3659 87.5734 55.154 87.4986C54.9421 87.4238 54.7513 87.3143 54.5935 87.1771C54.4357 87.0398 54.3143 86.8776 54.2366 86.7005C54.159 86.5235 54.1269 86.3353 54.1422 86.1478V60.8691L18.8887 70.2127L31.3465 96.117C36.3251 94.6165 39.2436 95.5095 42.6249 96.5848C51.0999 99.3392 60.5509 99.3392 69.0259 96.5848C72.4072 95.5278 75.3257 94.6165 80.3043 96.117L92.7621 70.2127Z" fill="white"/>
<path d="M55.4583 44.9509H55.727C55.8897 44.9429 56.0529 44.9531 56.2122 44.9813C56.257 44.9813 56.3017 44.9813 56.3465 44.9813L84.5016 52.4659V43.3896L55.8315 39.5684L27.1465 43.3896V52.4537L55.3015 44.9691L55.4583 44.9509Z" fill="white"/>
<path d="M55.793 36.8599C55.8947 36.8508 55.9973 36.8508 56.099 36.8599L79.8875 40.0251V32.9961L55.8303 30.0254L31.7656 32.9961V39.9947L55.5541 36.8599C55.6335 36.8538 55.7135 36.8538 55.793 36.8599Z" fill="white"/>
<path d="M55.8236 27.2978C55.9081 27.292 55.9929 27.292 56.0774 27.2978L73.7228 29.4728V22.5228L55.8087 19.3516L37.8945 22.5228V29.4667L55.54 27.2918C55.6345 27.2857 55.7296 27.2878 55.8236 27.2978Z" fill="white"/>
<path d="M18.8904 70.2129C18.8904 70.2129 35.4535 86.8284 55.8309 86.8284C76.2082 86.8284 92.7639 70.2129 92.7639 70.2129L93.7417 71.9443L80.6793 97.6117C79.694 97.0177 78.548 96.6248 77.3374 96.4662C76.1268 96.3076 74.8871 96.388 73.7226 96.7005C69.6695 97.7636 62.5263 100.042 55.8085 100.042C49.0907 100.042 41.4996 97.0042 37.8943 96.2448C34.2891 95.4854 30.2584 97.4599 30.2584 97.4599C30.2584 97.4599 17.5618 71.677 18.8904 70.2129Z" fill="#E6E7E8"/>
<path d="M14.248 65.1086L55.8312 52.4541V58.7844L16.6739 70.2117L14.248 65.1086Z" fill="#00AFA7"/>
<path d="M97.4058 65.1086L55.8301 52.4541V58.7844L94.98 70.2117L97.4058 65.1086Z" fill="#00AFA7"/>
<path d="M25.0723 50.9851C25.0723 50.9851 47.2111 43.2393 55.8323 43.2393C64.4535 43.2393 86.1147 50.9851 86.1147 50.9851V54.6301L55.8323 46.8843L25.0723 54.6301V50.9851Z" fill="#E6E7E8"/>
<path d="M30.4805 38.2257L55.5827 34.4287L81.4238 38.2257V41.7189L55.5827 38.0738L30.4805 41.2632V38.2257Z" fill="#E6E7E8"/>
<path d="M36.2676 27.7474L55.585 24.4121L74.5217 27.7474V30.0255L55.3984 28.203L36.2676 31.5443V27.7474Z" fill="#E6E7E8"/>
<path d="M49.164 8.91406C49.164 8.91406 49.7014 15.293 55.3966 15.293C61.0918 15.293 62.4876 8.91406 62.4876 8.91406L64.6299 19.3511L55.5832 17.7291L46.9023 19.3511C46.9023 19.3511 47.6936 9.67953 49.164 8.91406Z" fill="#00AFA7"/>
<path d="M49.1637 8.91492C49.1637 8.91492 56.1726 11.752 62.4874 8.91492V7.6999C62.4874 7.6999 48.7905 7.22604 49.1637 8.91492Z" fill="white"/>
<path d="M12.3223 61.3365L55.3983 48.9372L98.1683 60.8688L100.4 57.9102L55.8312 46.8838L12.3223 57.9102V61.3365Z" fill="white"/>
</svg>
