<svg width="112" height="111" viewBox="0 0 112 111" fill="none" xmlns="http://www.w3.org/2000/svg">
<path d="M75.3555 15.6094H99.6367V29.4844H75.3555V15.6094Z" fill="#FFF176"/>
<path d="M75.3555 29.4844H99.6367V43.3594H75.3555V29.4844Z" fill="#65C7EA"/>
<path d="M75.3555 43.3594H99.6367V57.2344H75.3555V43.3594Z" fill="#55FB9B"/>
<path d="M51.0742 15.6094H75.3555V29.4844H51.0742V15.6094Z" fill="#55FB9B"/>
<path d="M51.0742 29.4844H75.3555V43.3594H51.0742V29.4844Z" fill="#FFF176"/>
<path d="M51.0742 43.3594H75.3555V57.2344H51.0742V43.3594Z" fill="#65C7EA"/>
<path d="M106.574 50.2969L93.393 88.3837C91.9361 92.5809 87.9817 95.3906 83.5417 95.3906H27.3827C19.023 95.3906 11.8427 89.3897 10.3164 81.1341L5.98047 57.2344H77.0898L80.5586 50.2969H106.574Z" fill="#FF8A80"/>
<path d="M100.639 50.2969L96.5042 62.2433C92.1509 74.8175 80.3051 83.25 66.999 83.25H10.9023C13.1744 90.3817 19.7615 95.3906 27.3789 95.3906H83.538C87.978 95.3906 91.9324 92.5809 93.3892 88.3837L106.57 50.2969H100.639Z" fill="#F27670"/>
<path d="M76.3961 62.4375L79.8648 55.5H104.774L106.574 50.2969H80.5586L77.0898 57.2344H5.98047L6.92397 62.4375H76.3961Z" fill="#FFADA9"/>
<path d="M99.6367 95.3906C94.8498 95.3906 92.5258 93.5869 90.9648 90.1875C89.2998 93.5869 87.0798 95.3906 82.293 95.3906C77.5061 95.3906 75.3555 93.5522 73.6211 90.1875C71.9561 93.5869 69.7361 95.3906 64.9492 95.3906C60.1623 95.3906 58.0117 93.5522 56.2773 90.1875C54.647 93.5869 52.3923 95.3906 47.6055 95.3906C44.6258 95.3906 42.5619 94.6518 41.0738 93.2955C40.217 92.4907 39.5302 91.4605 38.9336 90.1875C38.33 91.4432 37.6398 92.4803 36.7691 93.292C35.2879 94.6483 33.2448 95.3906 30.2617 95.3906C27.2786 95.3906 25.2112 94.6483 23.7231 93.292C22.8525 92.4803 22.1691 91.4432 21.5898 90.1875C20.0636 93.4828 17.7048 95.3906 12.918 95.3906C8.13109 95.3906 5.80703 93.5869 4.24609 90.1875V98.7623C4.24609 100.108 4.57909 101.464 5.36997 102.554C6.91356 104.683 9.15438 105.797 12.918 105.797C17.7048 105.797 20.0636 103.889 21.5898 100.594C22.1691 101.849 22.8525 102.887 23.7231 103.698C25.2112 105.055 27.2786 105.797 30.2617 105.797C33.2448 105.797 35.2879 105.055 36.7691 103.698C37.6398 102.887 38.33 101.849 38.9336 100.594C39.5302 101.867 40.217 102.897 41.0738 103.702C42.5619 105.055 44.6258 105.797 47.6055 105.797C52.3923 105.797 54.647 103.993 56.2773 100.594C58.0117 103.958 60.1623 105.797 64.9492 105.797C69.7361 105.797 71.9561 103.993 73.6211 100.594C75.3555 103.958 77.5061 105.797 82.293 105.797C87.0798 105.797 89.2998 103.993 90.9648 100.594C92.5258 103.993 94.8498 105.797 99.6367 105.797C103.4 105.797 105.641 104.683 107.185 102.554C107.976 101.464 108.309 100.105 108.309 98.7623V90.1875C106.748 93.5869 104.424 95.3906 99.6367 95.3906Z" fill="#80D8FF"/>
<path d="M12.918 39.8906H37.1992V57.2344H12.918V39.8906Z" fill="#ECEFF1"/>
<path d="M12.918 22.5469H30.2617V32.9531H12.918V22.5469Z" fill="white"/>
<path d="M9.44922 32.9531H40.668V39.8906H9.44922V32.9531Z" fill="white"/>
<path d="M99.6367 52.0312C98.6793 52.0312 97.9023 51.2542 97.9023 50.2969V45.0938H80.5586C79.6012 45.0938 78.8242 44.3168 78.8242 43.3594C78.8242 42.402 79.6012 41.625 80.5586 41.625H99.6367C100.594 41.625 101.371 42.402 101.371 43.3594V50.2969C101.371 51.2542 100.594 52.0312 99.6367 52.0312Z" fill="#455A64"/>
<path d="M75.3555 52.0312C74.3981 52.0312 73.6211 51.2542 73.6211 50.2969V45.0938H56.2773C55.32 45.0938 54.543 44.3168 54.543 43.3594C54.543 42.402 55.32 41.625 56.2773 41.625H75.3555C76.3128 41.625 77.0898 42.402 77.0898 43.3594V50.2969C77.0898 51.2542 76.3128 52.0312 75.3555 52.0312Z" fill="#455A64"/>
<path d="M99.6367 39.8906C98.6793 39.8906 97.9023 39.1136 97.9023 38.1562V31.2188H80.5586C79.6012 31.2188 78.8242 30.4418 78.8242 29.4844C78.8242 28.527 79.6012 27.75 80.5586 27.75H99.6367C100.594 27.75 101.371 28.527 101.371 29.4844V38.1562C101.371 39.1136 100.594 39.8906 99.6367 39.8906Z" fill="#455A64"/>
<path d="M75.3555 39.8906C74.3981 39.8906 73.6211 39.1136 73.6211 38.1562V31.2188H56.2773C55.32 31.2188 54.543 30.4418 54.543 29.4844C54.543 28.527 55.32 27.75 56.2773 27.75H75.3555C76.3128 27.75 77.0898 28.527 77.0898 29.4844V38.1562C77.0898 39.1136 76.3128 39.8906 75.3555 39.8906Z" fill="#455A64"/>
<path d="M99.6367 46.8281C98.6793 46.8281 97.9023 46.0511 97.9023 45.0938V17.3438H80.5586C79.6012 17.3438 78.8242 16.5668 78.8242 15.6094C78.8242 14.652 79.6012 13.875 80.5586 13.875H99.6367C100.594 13.875 101.371 14.652 101.371 15.6094V45.0938C101.371 46.0511 100.594 46.8281 99.6367 46.8281Z" fill="#455A64"/>
<path d="M75.3555 52.0312C74.3981 52.0312 73.6211 51.2542 73.6211 50.2969V17.3438H56.2773C55.32 17.3438 54.543 16.5668 54.543 15.6094C54.543 14.652 55.3165 13.875 56.2773 13.875H75.3555C76.3128 13.875 77.0898 14.652 77.0898 15.6094V50.2969C77.0898 51.2542 76.3128 52.0312 75.3555 52.0312Z" fill="#455A64"/>
<path d="M51.0742 57.2344C50.1168 57.2344 49.3398 56.4574 49.3398 55.5V15.6094C49.3398 14.652 50.1168 13.875 51.0742 13.875C52.0316 13.875 52.8086 14.652 52.8086 15.6094V55.5C52.8086 56.4574 52.0316 57.2344 51.0742 57.2344Z" fill="#455A64"/>
<path d="M83.5417 97.125H82.6398C81.6825 97.125 80.9055 96.348 80.9055 95.3906C80.9055 94.4333 81.6825 93.6562 82.6398 93.6562H83.5417C87.2394 93.6562 90.5417 91.3079 91.7557 87.8149L104.139 52.0312H81.6304L78.6404 58.0114C78.3455 58.5976 77.7454 58.9688 77.0898 58.9688H8.05825L12.0265 80.8253C12.4705 83.2327 13.4417 85.4492 14.909 87.4021C15.4848 88.1687 15.3287 89.2544 14.5622 89.8302C13.799 90.406 12.7098 90.2534 12.134 89.4833C10.3684 87.1315 9.15437 84.3531 8.61325 81.4497L4.27731 57.5431C4.18712 57.0367 4.32241 56.5163 4.65194 56.1209C4.978 55.7289 5.46709 55.5 5.98047 55.5H76.018L79.0081 49.5199C79.3029 48.9337 79.903 48.5625 80.5586 48.5625H106.574C107.136 48.5625 107.66 48.8331 107.986 49.2909C108.312 49.7488 108.395 50.335 108.211 50.8657L95.0302 88.9526C93.334 93.8401 88.7171 97.125 83.5417 97.125Z" fill="#455A64"/>
<path d="M37.1992 58.9688H12.918C11.9606 58.9688 11.1836 58.1917 11.1836 57.2344V39.8906C11.1836 38.9333 11.9606 38.1562 12.918 38.1562C13.8753 38.1562 14.6523 38.9333 14.6523 39.8906V55.5H35.4648V39.8906C35.4648 38.9333 36.2418 38.1562 37.1992 38.1562C38.1566 38.1562 38.9336 38.9333 38.9336 39.8906V57.2344C38.9336 58.1917 38.1566 58.9688 37.1992 58.9688Z" fill="#455A64"/>
<path d="M37.1992 48.5625H30.2617C29.3043 48.5625 28.5273 47.7855 28.5273 46.8281C28.5273 45.8708 29.3043 45.0938 30.2617 45.0938H37.1992C38.1566 45.0938 38.9336 45.8708 38.9336 46.8281C38.9336 47.7855 38.1566 48.5625 37.1992 48.5625Z" fill="#455A64"/>
<path d="M40.668 41.625H23.3242C22.3668 41.625 21.5898 40.848 21.5898 39.8906C21.5898 38.9332 22.3668 38.1562 23.3242 38.1562H38.9336V34.6875H11.1836V38.1562H16.3867C17.3441 38.1562 18.1211 38.9332 18.1211 39.8906C18.1211 40.848 17.3441 41.625 16.3867 41.625H9.44922C8.49184 41.625 7.71484 40.848 7.71484 39.8906V32.9531C7.71484 31.9958 8.49184 31.2188 9.44922 31.2188H40.668C41.6253 31.2188 42.4023 31.9958 42.4023 32.9531V39.8906C42.4023 40.848 41.6253 41.625 40.668 41.625Z" fill="#455A64"/>
<path d="M90.9648 65.9062H87.4961C86.5387 65.9062 85.7617 65.1293 85.7617 64.1719C85.7617 63.2145 86.5387 62.4375 87.4961 62.4375H90.9648C91.9222 62.4375 92.6992 63.2145 92.6992 64.1719C92.6992 65.1293 91.9222 65.9062 90.9648 65.9062Z" fill="#455A64"/>
<path d="M23.3242 24.2812C22.3668 24.2812 21.5898 23.5042 21.5898 22.5469V8.67188C21.5898 7.7145 22.3668 6.9375 23.3242 6.9375C24.2816 6.9375 25.0586 7.7145 25.0586 8.67188V22.5469C25.0586 23.5042 24.2816 24.2812 23.3242 24.2812Z" fill="#455A64"/>
<path d="M16.3867 24.2812C15.4293 24.2812 14.6523 23.5043 14.6523 22.5469V17.3438C14.6523 16.3864 15.4293 15.6094 16.3867 15.6094C17.3441 15.6094 18.1211 16.3864 18.1211 17.3438V22.5469C18.1211 23.5043 17.3441 24.2812 16.3867 24.2812Z" fill="#455A64"/>
<path d="M30.2617 34.6875H12.918C11.9606 34.6875 11.1836 33.9105 11.1836 32.9531V22.5469C11.1836 21.5895 11.9606 20.8125 12.918 20.8125H30.2617C31.2191 20.8125 31.9961 21.5895 31.9961 22.5469V32.9531C31.9961 33.9105 31.2191 34.6875 30.2617 34.6875ZM14.6523 31.2188H28.5273V24.2812H14.6523V31.2188Z" fill="#455A64"/>
<path d="M99.6367 107.531C95.665 107.531 92.9351 106.421 90.9544 103.913C88.9599 106.425 86.2369 107.531 82.293 107.531C78.3802 107.531 75.5532 106.373 73.6003 103.927C71.6127 106.373 68.7995 107.531 64.9492 107.531C63.9918 107.531 63.2148 106.754 63.2148 105.797C63.2148 104.84 63.9918 104.063 64.9492 104.063C69.2262 104.063 70.8808 102.384 72.0463 99.8654C72.3307 99.248 72.8961 98.7797 73.635 98.8595C74.3148 98.8664 74.9323 99.2688 75.2063 99.8931C76.514 102.855 78.5675 104.063 82.293 104.063C86.5457 104.063 88.1205 102.516 89.4004 99.8446C89.6884 99.241 90.2989 98.8595 90.9649 98.8595C91.6343 98.8629 92.2483 99.2514 92.5327 99.855C93.7849 102.519 95.3528 104.063 99.6367 104.063C103.14 104.063 104.531 103.012 105.353 102.099C105.998 101.388 107.091 101.329 107.802 101.967C108.517 102.606 108.576 103.702 107.934 104.416C106.026 106.539 103.39 107.531 99.6367 107.531Z" fill="#455A64"/>
<path d="M82.293 97.1249C78.3525 97.1249 75.5705 95.9872 73.5968 93.4966C71.5849 96.0149 68.8654 97.1249 64.9492 97.1249C61.0399 97.1249 58.3759 96.0392 56.3294 93.4827C54.3695 95.9802 51.5807 97.1249 47.6055 97.1249C43.6338 97.1249 40.9038 96.0149 38.9232 93.507C36.9287 96.0184 34.2057 97.1249 30.2617 97.1249C26.349 97.1249 23.5219 95.9663 21.569 93.5209C19.5814 95.9663 16.7683 97.1249 12.918 97.1249C11.9606 97.1249 11.1836 96.3479 11.1836 95.3905C11.1836 94.4332 11.9606 93.6562 12.918 93.6562C17.1949 93.6562 18.8495 91.9773 20.015 89.459C20.2995 88.8415 20.9204 88.342 21.6037 88.453C22.2836 88.46 22.901 88.8623 23.1751 89.4867C24.4828 92.449 26.5363 93.6562 30.2617 93.6562C34.5144 93.6562 36.0892 92.1091 37.3692 89.4382C37.6571 88.8346 38.2676 88.453 38.9336 88.453H38.9371C39.6065 88.4565 40.217 88.845 40.5015 89.4486C41.7537 92.1126 43.3216 93.6562 47.6055 93.6562C51.9622 93.6562 53.5023 92.123 54.6956 89.4763C54.9696 88.8693 55.5662 88.4704 56.2323 88.453C56.8983 88.46 57.5157 88.7999 57.8209 89.3931C59.2431 92.1577 60.8041 93.6562 64.9492 93.6562C69.1672 93.6562 70.749 92.1056 72.0636 89.4243C72.355 88.8277 72.9586 88.453 73.6211 88.453H73.6419C74.3114 88.46 74.9149 88.8554 75.1959 89.4659C76.3857 92.0536 77.9883 93.6562 82.293 93.6562C83.2503 93.6562 84.0273 94.4332 84.0273 95.3905C84.0273 96.3479 83.2503 97.1249 82.293 97.1249Z" fill="#455A64"/>
<path d="M6.1054 95.1066C5.73077 95.1066 5.35962 94.9644 5.0509 94.6557L4.80809 94.4128C4.13168 93.7364 4.13168 92.6368 4.80809 91.9604C5.48449 91.284 6.58409 91.284 7.26049 91.9604C7.9369 92.6368 8.05831 93.8578 7.3819 94.5342C7.01074 94.9054 6.55287 95.1066 6.1054 95.1066Z" fill="#455A64"/>
<path d="M23.3234 48.5625H22.9766C22.0192 48.5625 21.2422 47.7855 21.2422 46.8281C21.2422 45.8708 22.0192 45.0938 22.9766 45.0938C23.9339 45.0938 24.8844 45.8708 24.8844 46.8281C24.8844 47.7855 24.2808 48.5625 23.3234 48.5625Z" fill="#455A64"/>
<path d="M58.3586 107.531H58.0117C57.0543 107.531 56.2773 106.754 56.2773 105.797C56.2773 104.84 57.0543 104.062 58.0117 104.062C58.9691 104.062 59.9195 104.84 59.9195 105.797C59.9195 106.754 59.316 107.531 58.3586 107.531Z" fill="#455A64"/>
</svg>
