<svg width="112" height="109" viewBox="0 0 112 109" fill="none" xmlns="http://www.w3.org/2000/svg">
<path d="M10.8058 59.6358V84.0325C10.816 86.2288 11.3471 88.3914 12.3553 90.3426C13.3636 92.2939 14.8203 93.9782 16.6057 95.2572V95.675C16.6076 99.2099 18.0122 102.6 20.5111 105.1C23.0099 107.6 26.3988 109.006 29.9337 109.01H34.9901C38.1436 109.006 41.1938 107.885 43.6007 105.848C46.0076 103.81 47.6159 100.987 48.141 97.8774H65.3426C65.8722 100.983 67.4824 103.801 69.8889 105.835C72.2954 107.868 75.3431 108.985 78.4935 108.989H83.5499C87.0848 108.985 90.4737 107.579 92.9725 105.078C95.4714 102.578 96.876 99.1886 96.8778 95.6538V93.77C99.4642 91.1776 100.918 87.6661 100.922 84.0042V59.6358C103.848 59.1098 106.496 57.5732 108.405 55.2941C110.314 53.0149 111.363 50.1378 111.367 47.1647V32.8808C111.363 29.9077 110.314 27.0306 108.405 24.7514C106.496 22.4722 103.848 20.9356 100.922 20.4097V13.8661C100.918 10.1898 99.4557 6.66504 96.8561 4.06544C94.2565 1.46585 90.7318 0.0037495 87.0554 0H24.6719C20.9955 0.0037495 17.4708 1.46585 14.8712 4.06544C12.2716 6.66504 10.8095 10.1898 10.8058 13.8661V20.4097C7.88028 20.9358 5.23249 22.4727 3.32464 24.752C1.41678 27.0313 0.370057 29.9083 0.367198 32.8808V47.1364C0.363413 50.1137 1.40712 52.9974 3.31555 55.2826C5.22398 57.5678 7.87549 59.1088 10.8058 59.6358Z" fill="white"/>
<path d="M15.4929 30.4863H13.0284C11.7064 30.4863 10.6348 31.558 10.6348 32.88V47.1356C10.6348 48.4576 11.7064 49.5293 13.0284 49.5293H15.4929C16.8148 49.5293 17.8865 48.4576 17.8865 47.1356V32.88C17.8865 31.558 16.8148 30.4863 15.4929 30.4863Z" fill="#ED5F57"/>
<path d="M98.698 30.4863H96.2335C94.9115 30.4863 93.8398 31.558 93.8398 32.88V47.1356C93.8398 48.4576 94.9115 49.5293 96.2335 49.5293H98.698C100.02 49.5293 101.092 48.4576 101.092 47.1356V32.88C101.092 31.558 100.02 30.4863 98.698 30.4863Z" fill="#ED5F57"/>
<path d="M26.873 90.7959V95.654C26.873 96.4654 27.1954 97.2435 27.7691 97.8173C28.3428 98.391 29.121 98.7133 29.9324 98.7133H34.9888C35.3905 98.7133 35.7884 98.6342 36.1595 98.4805C36.5307 98.3267 36.868 98.1014 37.1521 97.8173C37.4361 97.5332 37.6615 97.1959 37.8152 96.8248C37.969 96.4536 38.0481 96.0558 38.0481 95.654V90.7959H26.873Z" fill="#414042"/>
<path d="M75.4336 90.7959V95.654C75.4336 96.4654 75.7559 97.2435 76.3296 97.8173C76.9034 98.391 77.6815 98.7133 78.4929 98.7133H83.5493C84.3607 98.7133 85.1389 98.391 85.7126 97.8173C86.2863 97.2435 86.6087 96.4654 86.6087 95.654V90.7959H75.4336Z" fill="#414042"/>
<path d="M33.9716 70.9102C33.2209 70.9102 32.487 71.1328 31.8628 71.5499C31.2385 71.967 30.752 72.5598 30.4647 73.2534C30.1774 73.947 30.1023 74.7102 30.2487 75.4465C30.3952 76.1828 30.7567 76.8592 31.2876 77.3901C31.8184 77.9209 32.4948 78.2824 33.2311 78.4289C33.9674 78.5754 34.7306 78.5002 35.4242 78.2129C36.1178 77.9256 36.7107 77.4391 37.1277 76.8149C37.5448 76.1906 37.7675 75.4567 37.7675 74.706C37.7675 73.6993 37.3675 72.7338 36.6557 72.0219C35.9438 71.3101 34.9783 70.9102 33.9716 70.9102Z" fill="white"/>
<path d="M21.0684 84.0049C21.0702 84.9566 21.4491 85.8687 22.122 86.5417C22.795 87.2146 23.7072 87.5935 24.6588 87.5954H87.0423C87.994 87.5935 88.9062 87.2146 89.5791 86.5417C90.252 85.8687 90.6309 84.9566 90.6328 84.0049V13.8952C90.6309 12.9435 90.252 12.0313 89.5791 11.3584C88.9062 10.6854 87.994 10.3066 87.0423 10.3047H24.673C23.7213 10.3066 22.8092 10.6854 22.1362 11.3584C21.4633 12.0313 21.0844 12.9435 21.0825 13.8952V84.0049H21.0684ZM33.9572 81.6892C32.5742 81.6906 31.2218 81.2816 30.0713 80.5141C28.9207 79.7466 28.0237 78.655 27.4938 77.3776C26.9639 76.1001 26.8249 74.6941 27.0944 73.3375C27.3638 71.981 28.0297 70.7349 29.0077 69.7569C29.9856 68.779 31.2317 68.1131 32.5882 67.8437C33.9448 67.5742 35.3508 67.7132 36.6283 68.2431C37.9058 68.773 38.9973 69.67 39.7648 70.8206C40.5323 71.9711 40.9413 73.3235 40.9399 74.7065C40.9361 76.5548 40.2012 78.3266 38.8956 79.6349C37.5899 80.9431 35.8197 81.6817 33.9714 81.6892H33.9572ZM65.6199 84.7202H46.0954C45.6902 84.6932 45.3105 84.5132 45.0331 84.2167C44.7557 83.9201 44.6013 83.5293 44.6013 83.1232C44.6013 82.7172 44.7557 82.3263 45.0331 82.0298C45.3105 81.7332 45.6902 81.5533 46.0954 81.5263H65.6341C66.0392 81.5533 66.419 81.7332 66.6964 82.0298C66.9738 82.3263 67.1281 82.7172 67.1281 83.1232C67.1281 83.5293 66.9738 83.9201 66.6964 84.2167C66.419 84.5132 66.0392 84.6932 65.6341 84.7202H65.6199ZM65.6199 78.6581H46.0954C45.6902 78.6311 45.3105 78.4512 45.0331 78.1547C44.7557 77.8581 44.6013 77.4673 44.6013 77.0612C44.6013 76.6551 44.7557 76.2643 45.0331 75.9678C45.3105 75.6712 45.6902 75.4913 46.0954 75.4643H65.6341C66.0392 75.4913 66.419 75.6712 66.6964 75.9678C66.9738 76.2643 67.1281 76.6551 67.1281 77.0612C67.1281 77.4673 66.9738 77.8581 66.6964 78.1547C66.419 78.4512 66.0392 78.6311 65.6341 78.6581H65.6199ZM65.6199 72.5961H46.0954C45.6902 72.5691 45.3105 72.3891 45.0331 72.0926C44.7557 71.7961 44.6013 71.4052 44.6013 70.9992C44.6013 70.5931 44.7557 70.2023 45.0331 69.9057C45.3105 69.6092 45.6902 69.4292 46.0954 69.4022H65.6341C66.0392 69.4292 66.419 69.6092 66.6964 69.9057C66.9738 70.2023 67.1281 70.5931 67.1281 70.9992C67.1281 71.4052 66.9738 71.7961 66.6964 72.0926C66.419 72.3891 66.0392 72.5691 65.6341 72.5961H65.6199ZM79.5002 81.6892C78.1175 81.6891 76.7658 81.279 75.6162 80.5107C74.4666 79.7423 73.5707 78.6503 73.0419 77.3726C72.513 76.095 72.375 74.6893 72.6453 73.3332C72.9156 71.9771 73.582 70.7317 74.5602 69.7544C75.5385 68.7772 76.7846 68.112 78.1409 67.8431C79.4973 67.5742 80.9029 67.7137 82.18 68.2438C83.4571 68.7739 84.5482 69.6709 85.3154 70.8213C86.0826 71.9717 86.4913 73.3238 86.4899 74.7065C86.4881 76.5566 85.7528 78.3305 84.4452 79.6394C83.1376 80.9483 81.3645 81.6854 79.5144 81.6892H79.5002ZM23.9365 29.8504C23.9365 27.0331 25.0557 24.3312 27.0478 22.3391C29.0399 20.3469 31.7419 19.2277 34.5592 19.2277H77.0995C79.9168 19.2277 82.6187 20.3469 84.6109 22.3391C86.603 24.3312 87.7222 27.0331 87.7222 29.8504V53.2203C87.7222 56.0377 86.603 58.7396 84.6109 60.7317C82.6187 62.7239 79.9168 63.843 77.0995 63.843H34.5946C31.7773 63.843 29.0753 62.7239 27.0832 60.7317C25.0911 58.7396 23.9719 56.0377 23.9719 53.2203L23.9365 29.8504Z" fill="#ED5F57"/>
<path d="M79.5126 70.9102C78.7619 70.9102 78.028 71.1328 77.4038 71.5499C76.7796 71.967 76.293 72.5598 76.0057 73.2534C75.7184 73.947 75.6433 74.7102 75.7897 75.4465C75.9362 76.1828 76.2977 76.8592 76.8286 77.3901C77.3594 77.9209 78.0358 78.2824 78.7721 78.4289C79.5084 78.5754 80.2716 78.5002 80.9652 78.2129C81.6588 77.9256 82.2517 77.4391 82.6688 76.8149C83.0859 76.1906 83.3085 75.4567 83.3085 74.706C83.3085 73.6993 82.9086 72.7338 82.1967 72.0219C81.4848 71.3101 80.5194 70.9102 79.5126 70.9102Z" fill="white"/>
<path d="M77.1329 22.3994H34.5926C30.4781 22.3994 27.1426 25.7349 27.1426 29.8495V53.191C27.1426 57.3056 30.4781 60.6411 34.5926 60.6411H77.1329C81.2475 60.6411 84.583 57.3056 84.583 53.191V29.8495C84.583 25.7349 81.2475 22.3994 77.1329 22.3994Z" fill="#2ABCBF"/>
<path d="M20.2243 71.9082C20.2243 71.9082 28.9562 83.0054 56.3415 83.0054C83.7268 83.0054 92.4586 72.3827 92.4586 72.3827C92.4586 72.3827 94.1087 82.7717 92.4586 85.8381C90.8086 88.9045 84.9023 89.379 80.887 89.1453C76.8716 88.9116 26.598 88.9045 23.0571 88.6708C19.5162 88.4371 18.5672 73.5653 20.2243 71.9082Z" fill="#EA3745"/>
<path d="M9.60055 43.1142C9.60055 43.1142 10.5424 46.8888 14.0833 46.6551C17.6242 46.4214 19.2743 37.208 19.2743 37.208C19.2743 37.208 19.9825 47.597 19.0406 49.4878C18.0987 51.3787 7.70971 54.6788 9.60055 43.1142Z" fill="#EA3745"/>
<path d="M102.374 43.1142C102.374 43.1142 101.425 46.8888 97.8839 46.6551C94.343 46.4214 92.693 37.208 92.693 37.208C92.693 37.208 91.9848 47.597 92.9267 49.4878C93.8685 51.3787 104.258 54.6788 102.374 43.1142Z" fill="#EA3745"/>
<path d="M24.707 42.4061L35.8042 20.9199L39.8125 21.1607L24.9407 52.0798L24.707 42.4061Z" fill="white"/>
<path d="M26.123 56.8025L44.302 21.3936H53.9757L32.4967 61.7598C32.4967 61.7598 27.5394 60.5771 26.123 56.8025Z" fill="white"/>
<path d="M33.9711 77.4471C35.4847 77.4471 36.7118 76.2201 36.7118 74.7065C36.7118 73.1928 35.4847 71.9658 33.9711 71.9658C32.4575 71.9658 31.2305 73.1928 31.2305 74.7065C31.2305 76.2201 32.4575 77.4471 33.9711 77.4471Z" fill="#F4C117"/>
<path d="M79.5141 77.4471C81.0277 77.4471 82.2547 76.2201 82.2547 74.7065C82.2547 73.1928 81.0277 71.9658 79.5141 71.9658C78.0005 71.9658 76.7734 73.1928 76.7734 74.7065C76.7734 76.2201 78.0005 77.4471 79.5141 77.4471Z" fill="#F4C117"/>
<path d="M19.4319 27.7676C19.4319 27.7676 21.1669 16.203 24.7078 13.1295C28.2487 10.056 85.9299 11.7132 87.7782 13.1295C89.6266 14.5459 92.4381 24.7012 92.4381 24.7012C92.4381 24.7012 94.8175 13.4695 89.6053 10.2756C84.3931 7.0817 28.1071 8.59012 23.9288 8.85923C19.7505 9.12833 19.1132 24.4604 19.4319 27.7676Z" fill="white"/>
<path d="M9.60036 43.1137C9.60036 43.1137 10.783 34.9625 13.1413 32.7247C15.4995 30.4868 18.5659 34.141 18.5659 34.141C18.5659 34.141 21.6394 33.6807 18.5659 30.4868C15.4924 27.2929 11.2929 28.0932 9.35958 30.4868C7.42625 32.8805 9.60036 43.1137 9.60036 43.1137Z" fill="white"/>
<path d="M102.119 43.1137C102.119 43.1137 100.936 34.9625 98.5778 32.7247C96.2195 30.4868 93.1531 34.141 93.1531 34.141C93.1531 34.141 90.0796 33.6807 93.1531 30.4868C96.2266 27.2929 100.426 28.0932 102.359 30.4868C104.293 32.8805 102.119 43.1137 102.119 43.1137Z" fill="white"/>
<path d="M34.5934 63.836H77.1337C79.951 63.836 82.6529 62.7168 84.6451 60.7247C86.6372 58.7325 87.7564 56.0306 87.7564 53.2133V29.8434C87.7564 27.0261 86.6372 24.3242 84.6451 22.332C82.6529 20.3399 79.951 19.2207 77.1337 19.2207H34.5934C31.7761 19.2207 29.0742 20.3399 27.082 22.332C25.0899 24.3242 23.9707 27.0261 23.9707 29.8434V53.2133C23.9707 56.0306 25.0899 58.7325 27.082 60.7247C29.0742 62.7168 31.7761 63.836 34.5934 63.836ZM27.1433 29.8434C27.1452 27.8681 27.9307 25.9742 29.3275 24.5775C30.7242 23.1807 32.6181 22.3952 34.5934 22.3934H77.1337C79.109 22.3952 81.0029 23.1807 82.3996 24.5775C83.7964 25.9742 84.5819 27.8681 84.5838 29.8434V53.2133C84.5819 55.1879 83.7961 57.0811 82.3992 58.4767C81.0022 59.8723 79.1084 60.6563 77.1337 60.6563H34.5934C32.6187 60.6563 30.7249 59.8723 29.3279 58.4767C27.931 57.0811 27.1452 55.1879 27.1433 53.2133V29.8434Z" fill="#152532"/>
<path d="M33.9695 67.7158C32.5867 67.7144 31.2346 68.1232 30.0843 68.8904C28.9339 69.6575 28.0369 70.7487 27.5068 72.0258C26.9766 73.3029 26.8372 74.7085 27.1061 76.0648C27.375 77.4212 28.0401 78.6673 29.0174 79.6455C29.9946 80.6238 31.2401 81.2902 32.5961 81.5604C33.9522 81.8307 35.358 81.6927 36.6356 81.1639C37.9132 80.6351 39.0053 79.7392 39.7736 78.5896C40.542 77.44 40.9521 76.0883 40.9521 74.7055C40.9502 72.8536 40.2142 71.0779 38.9053 69.7676C37.5964 68.4574 35.8215 67.7196 33.9695 67.7158ZM33.9695 78.4943C33.2184 78.4943 32.4843 78.2715 31.8599 77.8541C31.2355 77.4367 30.749 76.8434 30.4619 76.1494C30.1748 75.4554 30.1001 74.6918 30.2471 73.9553C30.3941 73.2188 30.7563 72.5425 31.2879 72.0119C31.8195 71.4813 32.4965 71.1204 33.2333 70.9747C33.9701 70.829 34.7335 70.9052 35.427 71.1936C36.1205 71.482 36.7128 71.9696 37.129 72.5948C37.5453 73.2199 37.7667 73.9545 37.7653 74.7055C37.7634 75.711 37.3627 76.6747 36.651 77.385C35.9394 78.0954 34.975 78.4943 33.9695 78.4943Z" fill="#152532"/>
<path d="M79.5132 67.7158C78.1307 67.7158 76.7793 68.1258 75.6299 68.8938C74.4804 69.6618 73.5845 70.7535 73.0555 72.0307C72.5265 73.3079 72.388 74.7133 72.6577 76.0692C72.9274 77.425 73.5932 78.6705 74.5707 79.648C75.5482 80.6256 76.7937 81.2913 78.1495 81.561C79.5054 81.8307 80.9108 81.6923 82.188 81.1632C83.4652 80.6342 84.5569 79.7383 85.3249 78.5888C86.0929 77.4394 86.5029 76.088 86.5029 74.7055C86.501 72.8523 85.764 71.0756 84.4536 69.7651C83.1432 68.4547 81.3664 67.7177 79.5132 67.7158ZM79.5132 78.4943C78.7621 78.4943 78.0279 78.2715 77.4036 77.8541C76.7792 77.4367 76.2927 76.8434 76.0056 76.1494C75.7185 75.4554 75.6437 74.6918 75.7908 73.9553C75.9378 73.2188 76.3 72.5425 76.8316 72.0119C77.3632 71.4813 78.0402 71.1204 78.777 70.9747C79.5138 70.829 80.2772 70.9052 80.9707 71.1936C81.6642 71.482 82.2565 71.9696 82.6727 72.5948C83.089 73.2199 83.3104 73.9545 83.309 74.7055C83.3071 75.711 82.9064 76.6747 82.1947 77.385C81.4831 78.0954 80.5187 78.4943 79.5132 78.4943Z" fill="#152532"/>
<path d="M65.6323 69.4014H46.0937C45.6885 69.4284 45.3088 69.6084 45.0314 69.9049C44.7539 70.2014 44.5996 70.5923 44.5996 70.9983C44.5996 71.4044 44.7539 71.7952 45.0314 72.0918C45.3088 72.3883 45.6885 72.5683 46.0937 72.5953H65.6323C66.0375 72.5683 66.4173 72.3883 66.6947 72.0918C66.9721 71.7952 67.1264 71.4044 67.1264 70.9983C67.1264 70.5923 66.9721 70.2014 66.6947 69.9049C66.4173 69.6084 66.0375 69.4284 65.6323 69.4014Z" fill="#152532"/>
<path d="M65.6323 75.4639H46.0937C45.6885 75.4909 45.3088 75.6708 45.0314 75.9674C44.7539 76.2639 44.5996 76.6547 44.5996 77.0608C44.5996 77.4669 44.7539 77.8577 45.0314 78.1543C45.3088 78.4508 45.6885 78.6308 46.0937 78.6578H65.6323C66.0375 78.6308 66.4173 78.4508 66.6947 78.1543C66.9721 77.8577 67.1264 77.4669 67.1264 77.0608C67.1264 76.6547 66.9721 76.2639 66.6947 75.9674C66.4173 75.6708 66.0375 75.4909 65.6323 75.4639Z" fill="#152532"/>
<path d="M65.6323 81.5254H46.0937C45.6885 81.5524 45.3088 81.7324 45.0314 82.0289C44.7539 82.3254 44.5996 82.7163 44.5996 83.1223C44.5996 83.5284 44.7539 83.9193 45.0314 84.2158C45.3088 84.5123 45.6885 84.6923 46.0937 84.7193H65.6323C66.0375 84.6923 66.4173 84.5123 66.6947 84.2158C66.9721 83.9193 67.1264 83.5284 67.1264 83.1223C67.1264 82.7163 66.9721 82.3254 66.6947 82.0289C66.4173 81.7324 66.0375 81.5524 65.6323 81.5254Z" fill="#152532"/>
<path d="M13.0277 52.7242H15.4922C16.3229 52.7206 17.1417 52.5268 17.8858 52.1576V84.0257C17.8912 85.6493 18.4798 87.217 19.5445 88.4429C20.6091 89.6687 22.0789 90.4711 23.6858 90.7038V95.6611C23.6877 97.3177 24.3461 98.9061 25.5169 100.078C26.6877 101.25 28.2753 101.911 29.932 101.914H34.9884C36.6462 101.912 38.2357 101.253 39.408 100.081C40.5803 98.9084 41.2397 97.3189 41.2416 95.6611V90.7959H72.2386V95.654C72.2404 97.3119 72.8999 98.9013 74.0722 100.074C75.2445 101.246 76.8339 101.905 78.4918 101.907H83.5482C85.2054 101.905 86.7941 101.246 87.9653 100.073C89.1365 98.9007 89.7943 97.3112 89.7943 95.654V90.201C90.9953 89.6716 92.0167 88.805 92.7345 87.7062C93.4523 86.6075 93.8357 85.324 93.838 84.0115V52.1435C94.5824 52.5119 95.4011 52.7057 96.2317 52.71H98.6961C100.177 52.7081 101.598 52.1188 102.645 51.0714C103.693 50.0239 104.282 48.6038 104.284 47.1225V32.881C104.282 31.3997 103.693 29.9795 102.645 28.9321C101.598 27.8846 100.177 27.2953 98.6961 27.2935H96.2317C95.4011 27.2978 94.5824 27.4916 93.838 27.86V13.8664C93.8362 12.0676 93.1208 10.3431 91.8489 9.07119C90.577 7.79928 88.8524 7.08391 87.0537 7.08203H24.6702C22.8714 7.08391 21.1469 7.79928 19.875 9.07119C18.6031 10.3431 17.8877 12.0676 17.8858 13.8664V27.8529C17.14 27.4892 16.3219 27.298 15.4922 27.2935H13.0277C11.547 27.2953 10.1276 27.8848 9.08132 28.9325C8.03498 29.9802 7.44726 31.4003 7.44727 32.881V47.1366C7.44726 48.6173 8.03498 50.0375 9.08132 51.0851C10.1276 52.1328 11.547 52.7223 13.0277 52.7242ZM93.838 32.8952C93.8399 32.2609 94.0927 31.6531 94.5412 31.2047C94.9897 30.7562 95.5974 30.5034 96.2317 30.5015H98.6961C99.3304 30.5034 99.9382 30.7562 100.387 31.2047C100.835 31.6531 101.088 32.2609 101.09 32.8952V47.1508C101.088 47.7851 100.835 48.3928 100.387 48.8413C99.9382 49.2898 99.3304 49.5426 98.6961 49.5444H96.2317C95.5974 49.5426 94.9897 49.2898 94.5412 48.8413C94.0927 48.3928 93.8399 47.7851 93.838 47.1508V32.8952ZM21.0656 13.8664C21.0674 12.9147 21.4463 12.0025 22.1192 11.3296C22.7922 10.6567 23.7043 10.2778 24.656 10.2759H87.0395C87.9912 10.2778 88.9034 10.6567 89.5763 11.3296C90.2492 12.0025 90.6281 12.9147 90.63 13.8664V83.9761C90.6281 84.9278 90.2492 85.84 89.5763 86.5129C88.9034 87.1858 87.9912 87.5647 87.0395 87.5666H24.6702C23.7185 87.5647 22.8063 87.1858 22.1334 86.5129C21.4605 85.84 21.0816 84.9278 21.0797 83.9761V13.8664H21.0656ZM83.534 98.7062H78.4776C77.6663 98.7062 76.8881 98.3839 76.3144 97.8102C75.7406 97.2365 75.4183 96.4583 75.4183 95.6469V90.7959H86.5934V95.654C86.5915 96.4617 86.2703 97.2359 85.6998 97.8077C85.1294 98.3795 84.3559 98.7025 83.5482 98.7062H83.534ZM34.9742 98.7062H29.9178C29.1064 98.7062 28.3283 98.3839 27.7545 97.8102C27.1808 97.2365 26.8585 96.4583 26.8585 95.6469V90.7959H38.0619V95.654C38.0609 96.0563 37.9806 96.4546 37.8256 96.8258C37.6705 97.1971 37.4438 97.5342 37.1583 97.8177C36.8728 98.1012 36.5342 98.3256 36.1618 98.4781C35.7895 98.6306 35.3907 98.7081 34.9884 98.7062H34.9742ZM10.6341 32.881C10.6359 32.2467 10.8887 31.639 11.3372 31.1905C11.7857 30.742 12.3935 30.4892 13.0277 30.4873H15.4922C16.1264 30.4892 16.7342 30.742 17.1827 31.1905C17.6312 31.639 17.884 32.2467 17.8858 32.881V47.1366C17.884 47.7709 17.6312 48.3786 17.1827 48.8271C16.7342 49.2756 16.1264 49.5284 15.4922 49.5303H13.0277C12.3935 49.5284 11.7857 49.2756 11.3372 48.8271C10.8887 48.3786 10.6359 47.7709 10.6341 47.1366V32.881Z" fill="#152532"/>
</svg>
