<svg width="192" height="111" viewBox="0 0 192 111" fill="none" xmlns="http://www.w3.org/2000/svg">
<path d="M128.269 57.6521C128.113 57.1982 127.95 56.751 127.781 56.297C138.622 54.7116 141.596 52.6993 143.229 49.4064C143.965 47.954 144.315 46.3364 144.245 44.7095C144.175 43.0826 143.687 41.5011 142.829 40.1173C139.658 35.0019 133.1 33.2809 113.254 32.7524C112.59 26.6893 111.439 20.6895 109.812 14.8111C108.722 11.1524 105.395 0 96.038 0C86.6811 0 83.3612 11.1524 82.2703 14.8179C80.644 20.6967 79.4907 26.6963 78.8216 32.7592C58.9832 33.2877 52.3975 35.0086 49.2469 40.1309C48.3908 41.5145 47.905 43.095 47.8362 44.7206C47.7674 46.3462 48.1178 47.9622 48.8539 49.4132C50.4868 52.7061 53.4409 54.7184 64.3019 56.3038C64.1325 56.751 63.9699 57.1982 63.8141 57.6589C17.4837 58.6752 6.63623 62.4017 2.42191 69.1771C1.42461 70.7748 0.860759 72.6048 0.785909 74.4867C0.71106 76.3686 1.12779 78.2376 1.99506 79.9094C3.79055 83.5072 6.83272 85.7905 17.8157 87.9112C18.6385 91.5403 20.6694 94.7824 23.5757 97.1064C26.4819 99.4304 30.0913 100.699 33.8125 100.703C37.2762 100.71 40.6517 99.6113 43.4471 97.5662C44.9844 99.3423 46.8858 100.767 49.0223 101.743C51.1587 102.72 53.4802 103.225 55.8292 103.225C58.1782 103.225 60.4997 102.72 62.6362 101.743C64.7726 100.767 66.674 99.3423 68.2113 97.5662C71.5398 101.756 75.7712 105.14 80.59 107.466C85.4088 109.792 90.6906 111 96.0414 111C101.392 111 106.674 109.792 111.493 107.466C116.312 105.14 120.543 101.756 123.871 97.5662C125.409 99.3423 127.31 100.767 129.447 101.743C131.583 102.72 133.905 103.225 136.254 103.225C138.603 103.225 140.924 102.72 143.06 101.743C145.197 100.767 147.098 99.3423 148.636 97.5662C151.433 99.6189 154.814 100.723 158.284 100.717C162.006 100.714 165.617 99.4462 168.525 97.1221C171.432 94.7979 173.464 91.555 174.287 87.9247C185.27 85.804 188.313 83.5207 190.101 79.9162C190.968 78.2458 191.385 76.3784 191.312 74.4978C191.238 72.6172 190.676 70.7882 189.681 69.1907C185.447 62.3881 174.599 58.6684 128.269 57.6521Z" fill="white"/>
<path d="M88.4453 35.565C90.7754 34.2912 93.3884 33.6235 96.044 33.6235C98.6995 33.6235 101.312 34.2912 103.643 35.565C101.949 21.1875 99.1911 9.81836 96.0406 9.81836C92.89 9.81836 90.1392 21.1808 88.4453 35.565Z" fill="#2ABCBF"/>
<path d="M27.2514 84.32C27.2232 85.2003 27.3721 86.0774 27.6895 86.8991C28.0069 87.7207 28.4862 88.4702 29.099 89.103C29.7117 89.7357 30.4454 90.2388 31.2565 90.5824C32.0675 90.926 32.9394 91.1031 33.8202 91.1031C34.701 91.1031 35.5729 90.926 36.3839 90.5824C37.195 90.2388 37.9287 89.7357 38.5414 89.103C39.1542 88.4702 39.6335 87.7207 39.9509 86.8991C40.2683 86.0774 40.4173 85.2003 40.389 84.32C40.389 84.2793 40.389 84.2386 40.389 84.1912C35.3345 83.6627 31.0863 83.141 27.5157 82.6396C27.3552 83.186 27.2664 83.7508 27.2514 84.32Z" fill="#2ABCBF"/>
<path d="M49.4982 85.0938C49.3386 85.6491 49.2543 86.2234 49.2475 86.8012C49.2193 87.6815 49.3682 88.5586 49.6856 89.3803C50.003 90.2019 50.4823 90.9514 51.0951 91.5842C51.7078 92.2169 52.4415 92.7201 53.2526 93.0637C54.0636 93.4073 54.9355 93.5843 55.8163 93.5843C56.6971 93.5843 57.569 93.4073 58.38 93.0637C59.1911 92.7201 59.9248 92.2169 60.5375 91.5842C61.1503 90.9514 61.6296 90.2019 61.947 89.3803C62.2644 88.5586 62.4134 87.6815 62.3851 86.8012C62.3851 86.5843 62.3444 86.3811 62.3241 86.1643C59.5258 85.9542 56.6734 85.7171 53.8209 85.4867L49.4982 85.0938Z" fill="#2ABCBF"/>
<path d="M68.4694 83.5953C67.6734 80.9398 67.2671 78.1828 67.2634 75.4106C67.2992 72.7064 67.6034 70.0123 68.1713 67.3682C42.865 67.8086 13.9678 69.3127 10.8105 74.3672C10.6934 74.5415 10.6309 74.7467 10.6309 74.9567C10.6309 75.1666 10.6934 75.3718 10.8105 75.5461C12.8906 78.3105 38.6169 81.4204 68.4694 83.5953Z" fill="white"/>
<path d="M151.7 84.32C151.674 85.2696 151.854 86.2136 152.228 87.0869C152.602 87.9602 153.161 88.742 153.866 89.3785C154.572 90.0149 155.407 90.4909 156.314 90.7736C157.221 91.0564 158.178 91.1391 159.12 91.0161C160.062 90.8932 160.966 90.5674 161.77 90.0614C162.574 89.5553 163.259 88.881 163.777 88.0848C164.296 87.2886 164.635 86.3896 164.773 85.4495C164.91 84.5095 164.842 83.5508 164.573 82.6396C160.996 83.141 156.747 83.6627 151.7 84.1912C151.713 84.2386 151.7 84.2793 151.7 84.32Z" fill="#2ABCBF"/>
<path d="M129.754 86.1643C129.754 86.3811 129.693 86.5843 129.693 86.8012C129.665 87.6815 129.814 88.5586 130.131 89.3803C130.448 90.2019 130.928 90.9514 131.54 91.5842C132.153 92.2169 132.887 92.7201 133.698 93.0637C134.509 93.4073 135.381 93.5843 136.262 93.5843C137.142 93.5843 138.014 93.4073 138.825 93.0637C139.636 92.7201 140.37 92.2169 140.983 91.5842C141.596 90.9514 142.075 90.2019 142.392 89.3803C142.71 88.5586 142.859 87.6815 142.83 86.8012C142.824 86.2234 142.739 85.6491 142.58 85.0938L138.257 85.4732C135.405 85.7171 132.532 85.9542 129.754 86.1643Z" fill="#2ABCBF"/>
<path d="M181.324 75.5055C181.436 75.3371 181.497 75.139 181.497 74.9363C181.497 74.7337 181.436 74.5356 181.324 74.3672C178.187 69.3127 149.269 67.8086 123.963 67.3682C124.519 70.0135 124.812 72.7075 124.837 75.4106C124.833 78.1828 124.427 80.9398 123.631 83.5953C153.47 81.4204 179.203 78.3037 181.324 75.5055Z" fill="white"/>
<path d="M79.8769 42.583C67.0036 42.9286 59.6387 43.7484 57.8906 45.0289C59.9233 45.9301 67.1459 46.8854 76.1098 47.6917C77.2454 45.9034 78.5042 44.1964 79.8769 42.583Z" fill="#2ABCBF"/>
<path d="M112.209 42.583C113.582 44.1964 114.84 45.9034 115.976 47.6917C124.94 46.8854 132.142 45.9301 134.195 45.0289C132.44 43.7484 125.082 42.9286 112.209 42.583Z" fill="#2ABCBF"/>
<path d="M109.102 58.2285H82.9827C82.2793 58.2285 81.709 58.7988 81.709 59.5023V62.8494C81.709 63.5528 82.2793 64.1231 82.9827 64.1231H109.102C109.806 64.1231 110.376 63.5528 110.376 62.8494V59.5023C110.376 58.7988 109.806 58.2285 109.102 58.2285Z" fill="#2ABCBF"/>
<path d="M121.767 75.4109C121.767 60.8166 109.747 36.6758 96.0201 36.6758C82.293 36.6758 70.2734 60.8166 70.2734 75.4109C70.5582 82.042 73.3928 88.3069 78.1856 92.8982C82.9784 97.4896 89.3592 100.053 95.9963 100.053C102.634 100.053 109.014 97.4896 113.807 92.8982C118.6 88.3069 121.434 82.042 121.719 75.4109H121.767ZM82.9841 67.1788C81.8364 67.177 80.7363 66.7203 79.9247 65.9087C79.1132 65.0972 78.6564 63.997 78.6546 62.8493V59.5022C78.6564 58.3551 79.1134 57.2556 79.9251 56.4452C80.7369 55.6347 81.837 55.1795 82.9841 55.1795H109.103C110.25 55.1795 111.351 55.6347 112.162 56.4452C112.974 57.2556 113.431 58.3551 113.433 59.5022V62.8493C113.431 63.997 112.974 65.0972 112.163 65.9087C111.351 66.7203 110.251 67.177 109.103 67.1788H82.9841ZM96.0404 92.3969C94.1295 92.3969 92.2615 91.8302 90.6726 90.7686C89.0837 89.707 87.8454 88.198 87.1141 86.4325C86.3828 84.6671 86.1915 82.7244 86.5643 80.8502C86.9371 78.976 87.8573 77.2545 89.2085 75.9032C90.5597 74.552 92.2813 73.6318 94.1555 73.259C96.0297 72.8862 97.9723 73.0776 99.7378 73.8088C101.503 74.5401 103.012 75.7785 104.074 77.3673C105.135 78.9562 105.702 80.8242 105.702 82.7351C105.7 85.2971 104.682 87.7535 102.87 89.5651C101.059 91.3766 98.6023 92.3951 96.0404 92.3969Z" fill="white"/>
<path d="M96.0357 89.341C99.6842 89.341 102.642 86.3834 102.642 82.7349C102.642 79.0865 99.6842 76.1289 96.0357 76.1289C92.3873 76.1289 89.4297 79.0865 89.4297 82.7349C89.4297 86.3834 92.3873 89.341 96.0357 89.341Z" fill="#2ABCBF"/>
<path d="M123.823 78.8189C123.823 78.8189 173.507 78.8189 182.545 73.8525C182.545 73.8525 184.802 76.7863 181.414 77.6942C178.026 78.6021 122.244 85.5944 122.244 85.5944L123.823 78.8189Z" fill="#E6E7E8"/>
<path d="M68.3259 78.8189C68.3259 78.8189 18.6349 78.8189 9.60327 73.8525C9.60327 73.8525 7.34707 76.7863 10.7348 77.6942C14.1225 78.6021 69.9046 85.5944 69.9046 85.5944L68.3259 78.8189Z" fill="#E6E7E8"/>
<path d="M121.768 75.4098C121.755 73.8221 121.63 72.2373 121.395 70.667C119.207 74.0547 114.166 80.3084 105.676 83.2828C105.55 85.7321 104.496 88.0414 102.729 89.7413C100.961 91.4412 98.6121 92.4041 96.1598 92.4343C93.7075 92.4645 91.3358 91.5597 89.5267 89.9039C87.7176 88.248 86.607 85.9654 86.4207 83.52C79.8303 81.383 74.2291 76.9458 70.6407 71.0193C70.4352 72.4762 70.3288 73.9453 70.3223 75.4166C70.6071 82.0476 73.4416 88.3125 78.2344 92.9039C83.0272 97.4953 89.408 100.058 96.0452 100.058C102.682 100.058 109.063 97.4953 113.856 92.9039C118.649 88.3125 121.483 82.0476 121.768 75.4166V75.4098Z" fill="#E6E7E8"/>
<path d="M89.4958 80.6275C89.4958 80.6275 91.3048 85.1468 96.2712 85.3703C101.238 85.5939 103.724 79.2725 103.724 79.2725C103.724 79.2725 107.789 90.7907 96.0476 90.7907C84.3058 90.7907 88.1407 81.5287 89.4958 80.6275Z" fill="#00AFA7"/>
<path d="M57.8909 45.0307C57.8909 45.0307 76.8621 46.0741 79.5723 44.719C82.2825 43.364 76.1846 50.363 76.1846 50.363C76.1846 50.363 56.0954 49.4076 57.8909 45.0307Z" fill="#00AFA7"/>
<path d="M134.565 45.0307C134.565 45.0307 115.594 46.0741 112.884 44.719C110.174 43.364 116.272 50.363 116.272 50.363C116.272 50.363 136.354 49.4076 134.565 45.0307Z" fill="#00AFA7"/>
<path d="M89.951 21.9053C89.951 21.9053 89.7274 31.8448 96.5028 31.8448C103.278 31.8448 103.048 23.2604 103.048 23.2604L105.534 38.6203C105.534 38.6203 101.469 34.555 95.8252 35.009C90.1813 35.4629 85.6621 39.9754 85.6621 39.9754C85.6621 39.9754 87.0172 24.3919 89.951 21.9053Z" fill="#00AFA7"/>
<path d="M30.0979 82.207C30.0979 82.207 28.9664 87.4038 33.2552 88.0813C37.5441 88.7589 37.998 82.8846 37.998 82.8846L30.0979 82.207Z" fill="#00AFA7"/>
<path d="M51.3331 83.7109C51.3331 83.7109 50.554 90.1137 55.8591 90.6354C61.1643 91.1571 60.1209 84.2462 60.1209 84.2462L51.3331 83.7109Z" fill="#00AFA7"/>
<path d="M161.704 82.207C161.704 82.207 162.835 87.4038 158.54 88.0813C154.244 88.7589 153.797 82.8846 153.797 82.8846L161.704 82.207Z" fill="#00AFA7"/>
<path d="M140.471 83.7109C140.471 83.7109 141.27 90.1069 135.938 90.6354C130.606 91.1639 131.683 84.2462 131.683 84.2462L140.471 83.7109Z" fill="#00AFA7"/>
<path d="M81.72 62.8484L85.4397 56.9131L88.4886 57.9294L83.0683 66.0599C83.0683 66.0599 80.3649 64.0476 81.72 62.8484Z" fill="white"/>
<path d="M86.332 65.8375L91.1832 57.5918L93.785 57.707L89.1506 65.4987L86.332 65.8375Z" fill="white"/>
<path d="M123.242 64.3269C121.975 59.5589 120.127 54.9646 117.74 50.6473C129.794 49.509 136.325 48.0929 137.165 46.4059C137.389 45.9856 137.498 45.5138 137.481 45.0381C137.465 44.5623 137.323 44.0993 137.071 43.6957C135.397 40.9855 127.978 39.7795 109.156 39.4475C108.466 38.8152 107.745 38.2182 106.994 37.6588C105.477 23.0916 102.36 6.77637 96.0385 6.77637C89.7171 6.77637 86.6071 23.0916 85.1098 37.6588C84.378 38.2053 83.6598 38.8016 82.9552 39.4475C64.1331 39.7795 56.7072 40.9991 55.0404 43.6957C54.788 44.0993 54.6463 44.5623 54.6297 45.0381C54.613 45.5138 54.722 45.9856 54.9456 46.4059C55.7857 48.0929 62.3172 49.509 74.3707 50.6473C71.9765 54.9637 70.122 59.558 68.8488 64.3269C28.5147 65.0044 11.4338 67.5181 8.18838 72.7623C7.7987 73.3795 7.58238 74.0902 7.56211 74.8198C7.54185 75.5494 7.71837 76.271 8.07319 76.9088C8.61522 77.9929 9.56378 79.89 24.4426 82.1937C24.1227 83.5132 24.0857 84.8854 24.334 86.2202C24.5823 87.555 25.1103 88.8221 25.8833 89.9383C26.6563 91.0545 27.6567 91.9944 28.8189 92.6963C29.9811 93.3982 31.2787 93.8462 32.6264 94.0108C33.974 94.1754 35.3413 94.0529 36.6383 93.6514C37.9352 93.2498 39.1325 92.5783 40.1514 91.681C41.1703 90.7837 41.9878 89.6809 42.5501 88.4451C43.1124 87.2094 43.4067 85.8686 43.4138 84.5109L46.3814 84.8022C46.1068 86.1179 46.1108 87.4765 46.3933 88.7905C46.6758 90.1045 47.2305 91.3447 48.0215 92.4313C48.8126 93.5178 49.8226 94.4265 50.9863 95.0989C52.15 95.7713 53.4417 96.1924 54.7781 96.3351C56.1146 96.4778 57.4661 96.3388 58.7455 95.9273C60.025 95.5158 61.204 94.8407 62.2067 93.9457C63.2093 93.0506 64.0133 91.9555 64.5668 90.7307C65.1203 89.506 65.4111 88.1788 65.4204 86.8349C65.4204 86.6993 65.4204 86.5706 65.4204 86.4351L69.5805 86.74C71.7928 91.9262 75.4804 96.348 80.1849 99.4558C84.8895 102.564 90.4036 104.221 96.0419 104.221C101.68 104.221 107.194 102.564 111.899 99.4558C116.603 96.348 120.291 91.9262 122.503 86.74L126.663 86.4351C126.663 86.5706 126.663 86.6993 126.663 86.8349C126.664 88.1854 126.948 89.5207 127.498 90.7542C128.048 91.9877 128.851 93.0917 129.855 93.9944C130.86 94.8972 132.043 95.5786 133.328 95.9943C134.613 96.41 135.971 96.5508 137.313 96.4074C138.656 96.2641 139.954 95.8398 141.122 95.1622C142.29 94.4846 143.303 93.5688 144.094 92.4743C144.885 91.3798 145.437 90.1311 145.714 88.8093C145.991 87.4876 145.987 86.1223 145.702 84.8022L148.67 84.5109C148.677 85.8686 148.971 87.2094 149.534 88.4451C150.096 89.6809 150.914 90.7837 151.932 91.681C152.951 92.5783 154.149 93.2498 155.446 93.6514C156.743 94.0529 158.11 94.1754 159.457 94.0108C160.805 93.8462 162.103 93.3982 163.265 92.6963C164.427 91.9944 165.428 91.0545 166.201 89.9383C166.974 88.8221 167.502 87.555 167.75 86.2202C167.998 84.8854 167.961 83.5132 167.641 82.1937C182.547 79.89 183.475 77.9929 184.017 76.9088C184.372 76.271 184.549 75.5494 184.529 74.8198C184.508 74.0902 184.292 73.3795 183.902 72.7623C180.643 67.5181 163.576 65.0451 123.242 64.3269ZM164.836 84.3212C164.864 85.2015 164.715 86.0786 164.398 86.9003C164.081 87.7219 163.601 88.4714 162.989 89.1042C162.376 89.7369 161.642 90.2401 160.831 90.5837C160.02 90.9273 159.148 91.1043 158.267 91.1043C157.387 91.1043 156.515 90.9273 155.704 90.5837C154.893 90.2401 154.159 89.7369 153.546 89.1042C152.933 88.4714 152.454 87.7219 152.137 86.9003C151.819 86.0786 151.67 85.2015 151.699 84.3212C151.699 84.2805 151.699 84.2399 151.699 84.1924C156.753 83.6639 161.001 83.1422 164.572 82.6409C164.732 83.1872 164.821 83.752 164.836 84.3212ZM123.615 83.5962C124.411 80.9407 124.817 78.1837 124.821 75.4115C124.796 72.7084 124.503 70.0144 123.947 67.369C149.253 67.8094 178.15 69.3136 181.307 74.3681C181.42 74.5365 181.48 74.7346 181.48 74.9372C181.48 75.1399 181.42 75.3379 181.307 75.5063C179.2 78.3046 153.467 81.4213 123.615 83.5962ZM142.836 86.801C142.865 87.6814 142.716 88.5584 142.398 89.3801C142.081 90.2017 141.602 90.9512 140.989 91.584C140.376 92.2167 139.642 92.7199 138.831 93.0635C138.02 93.4071 137.148 93.5841 136.268 93.5841C135.387 93.5841 134.515 93.4071 133.704 93.0635C132.893 92.7199 132.159 92.2167 131.546 91.584C130.934 90.9512 130.454 90.2017 130.137 89.3801C129.82 88.5584 129.671 87.6814 129.699 86.801C129.699 86.5842 129.739 86.3809 129.76 86.1641C132.558 85.954 135.411 85.7169 138.263 85.4865L142.586 85.1071C142.744 85.6581 142.828 86.2277 142.836 86.801ZM96.0385 101.131C89.2101 101.131 82.6614 98.4184 77.8329 93.59C73.0045 88.7616 70.2919 82.2128 70.2919 75.3844C70.2919 60.7901 82.3115 36.6492 96.0385 36.6492C109.766 36.6492 121.785 60.7901 121.785 75.3844C121.785 82.2128 119.073 88.7616 114.244 93.59C109.416 98.4184 102.867 101.131 96.0385 101.131ZM62.385 86.801C62.4133 87.6814 62.2643 88.5584 61.9469 89.3801C61.6295 90.2017 61.1502 90.9512 60.5374 91.584C59.9247 92.2167 59.191 92.7199 58.3799 93.0635C57.5689 93.4071 56.6971 93.5841 55.8162 93.5841C54.9354 93.5841 54.0635 93.4071 53.2525 93.0635C52.4414 92.7199 51.7078 92.2167 51.095 91.584C50.4822 90.9512 50.0029 90.2017 49.6855 89.3801C49.3682 88.5584 49.2192 87.6814 49.2475 86.801C49.2542 86.2232 49.3386 85.6489 49.4981 85.0936L53.8209 85.473C56.6733 85.7169 59.5258 85.954 62.324 86.1505C62.3443 86.3809 62.385 86.5842 62.385 86.801ZM10.8037 75.547C10.6866 75.3727 10.6241 75.1675 10.6241 74.9575C10.6241 74.7476 10.6866 74.5423 10.8037 74.3681C13.9339 69.3136 42.8582 67.8094 68.1644 67.369C67.6079 70.0144 67.3152 72.7084 67.2904 75.4115C67.2942 78.1837 67.7004 80.9407 68.4964 83.5962C38.6168 81.4213 12.8905 78.3114 10.8037 75.547ZM40.392 84.3212C40.4206 85.2715 40.2427 86.2166 39.8705 87.0915C39.4984 87.9664 38.9409 88.7501 38.2365 89.3885C37.532 90.027 36.6975 90.5051 35.7904 90.7897C34.8833 91.0743 33.9252 91.1588 32.9823 91.0372C32.0394 90.9156 31.1341 90.5909 30.3288 90.0854C29.5236 89.58 28.8376 88.9059 28.3182 88.1096C27.7988 87.3133 27.4583 86.4138 27.3203 85.4732C27.1822 84.5325 27.2499 83.5731 27.5187 82.6612C31.0961 83.1626 35.3443 83.6843 40.392 84.2128C40.392 84.2399 40.392 84.2805 40.392 84.3212ZM103.647 35.5381C101.317 34.2642 98.7043 33.5966 96.0487 33.5966C93.3931 33.5966 90.7802 34.2642 88.45 35.5381C90.1439 21.1538 92.8947 9.79143 96.0453 9.79143C99.1959 9.79143 101.947 21.1809 103.641 35.5584L103.647 35.5381ZM112.211 42.5845C125.085 42.9301 132.45 43.7499 134.198 45.0305C132.165 45.9316 124.942 46.8869 115.979 47.6932C114.843 45.9049 113.584 44.1979 112.211 42.5845ZM79.8859 42.5845C78.5132 44.1979 77.2544 45.9049 76.1188 47.6932C67.1549 46.8869 59.9458 45.9316 57.8997 45.0305C59.6409 43.7499 67.0126 42.9301 79.8791 42.5845H79.8859Z" fill="#152532"/>
<path d="M109.101 67.179C110.249 67.1772 111.349 66.7205 112.161 65.9089C112.972 65.0974 113.429 63.9972 113.431 62.8495V59.5024C113.429 58.3553 112.972 57.2558 112.16 56.4454C111.348 55.6349 110.248 55.1797 109.101 55.1797H82.9818C81.8348 55.1797 80.7346 55.6349 79.9228 56.4454C79.1111 57.2558 78.6541 58.3553 78.6523 59.5024V62.8495C78.6541 63.9972 79.1109 65.0974 79.9224 65.9089C80.734 66.7205 81.8341 67.1772 82.9818 67.179H109.101ZM82.9818 64.1232C82.644 64.1232 82.32 63.989 82.0811 63.7502C81.8423 63.5113 81.7081 63.1873 81.7081 62.8495V59.5024C81.7081 59.1646 81.8423 58.8406 82.0811 58.6017C82.32 58.3628 82.644 58.2286 82.9818 58.2286H109.101C109.439 58.2286 109.763 58.3628 110.002 58.6017C110.241 58.8406 110.375 59.1646 110.375 59.5024V62.8495C110.375 63.1873 110.241 63.5113 110.002 63.7502C109.763 63.989 109.439 64.1232 109.101 64.1232H82.9818Z" fill="#152532"/>
<path d="M105.7 82.735C105.7 80.8241 105.134 78.9561 104.072 77.3672C103.011 75.7783 101.502 74.54 99.7361 73.8087C97.9706 73.0774 96.028 72.8861 94.1538 73.2589C92.2796 73.6317 90.558 74.5519 89.2068 75.9031C87.8556 77.2543 86.9354 78.9759 86.5626 80.8501C86.1898 82.7243 86.3811 84.6669 87.1124 86.4324C87.8437 88.1979 89.0821 89.7068 90.6709 90.7685C92.2598 91.8301 94.1278 92.3968 96.0387 92.3968C98.6006 92.395 101.057 91.3765 102.869 89.5649C104.68 87.7534 105.699 85.2969 105.7 82.735ZM89.4395 82.735C89.4381 81.4265 89.825 80.1471 90.5511 79.0586C91.2772 77.9701 92.3099 77.1214 93.5185 76.6201C94.7271 76.1187 96.0573 75.9872 97.3407 76.2422C98.6241 76.4971 99.803 77.127 100.728 78.0523C101.653 78.9775 102.283 80.1564 102.538 81.4398C102.793 82.7232 102.662 84.0534 102.16 85.262C101.659 86.4706 100.81 87.5033 99.7219 88.2294C98.6334 88.9555 97.354 89.3424 96.0455 89.3411C94.2934 89.3393 92.6134 88.6429 91.3739 87.4046C90.1343 86.1663 89.4363 84.4871 89.4327 82.735H89.4395Z" fill="#152532"/>
</svg>
