<svg width="273" height="236" viewBox="0 0 273 236" fill="none" xmlns="http://www.w3.org/2000/svg">
<path d="M158.225 214.033C157.152 214.033 156.281 213.162 156.281 212.089C156.281 211.017 157.152 210.146 158.225 210.146C181.974 210.146 204.527 201.144 221.739 184.803C222.516 184.064 223.744 184.095 224.491 184.873C225.229 185.65 225.198 186.878 224.421 187.617C206.478 204.65 182.969 214.033 158.225 214.033Z" fill="#FF7D44"/>
<path d="M98.4666 191.489C98.2956 191.489 98.1168 191.435 97.9769 191.31C96.3754 189.996 94.7895 188.605 93.2658 187.174C92.9548 186.879 92.9393 186.389 93.2347 186.078C93.5301 185.767 94.0199 185.752 94.3308 186.047C95.8312 187.454 97.386 188.823 98.9642 190.121C99.2984 190.393 99.3451 190.883 99.073 191.217C98.9175 191.396 98.6921 191.489 98.4666 191.489ZM89.4021 182.984C89.1922 182.984 88.9901 182.899 88.8346 182.736C87.412 181.212 86.0204 179.626 84.7066 178.017C84.4345 177.682 84.4812 177.193 84.8155 176.921C85.1497 176.648 85.6395 176.695 85.9116 177.029C87.2021 178.608 88.5703 180.17 89.9696 181.67C90.265 181.981 90.2495 182.479 89.9308 182.767C89.7831 182.914 89.5965 182.984 89.4021 182.984ZM81.5348 173.368C81.2938 173.368 81.0528 173.251 80.9051 173.041C79.6924 171.347 78.5263 169.59 77.4302 167.825C77.2047 167.46 77.3135 166.978 77.6789 166.752C78.0443 166.527 78.5263 166.636 78.7517 167.001C79.8246 168.735 80.9751 170.468 82.1645 172.132C82.4133 172.482 82.3356 172.964 81.9857 173.212C81.8458 173.321 81.6903 173.368 81.5348 173.368ZM74.9891 162.803C74.7093 162.803 74.4372 162.655 74.305 162.391C73.3255 160.549 72.4004 158.66 71.553 156.763C71.3742 156.374 71.553 155.908 71.9417 155.736C72.3304 155.558 72.7968 155.736 72.9679 156.125C73.8075 157.991 74.717 159.849 75.681 161.66C75.8831 162.041 75.7354 162.508 75.3623 162.71C75.2379 162.772 75.1135 162.803 74.9891 162.803ZM69.9049 151.469C69.5862 151.469 69.2908 151.274 69.1742 150.963C68.4512 149.012 67.7826 147.006 67.1918 145.016C67.0674 144.604 67.3006 144.169 67.7126 144.052C68.1247 143.928 68.56 144.169 68.6766 144.573C69.2597 146.532 69.9127 148.499 70.6279 150.419C70.7756 150.823 70.5735 151.266 70.1692 151.422C70.0837 151.453 69.9982 151.469 69.9049 151.469ZM66.36 139.567C66.0024 139.567 65.6836 139.318 65.6059 138.96C65.1472 136.931 64.7508 134.856 64.4242 132.803C64.3543 132.383 64.6497 131.979 65.0695 131.917C65.4971 131.855 65.8935 132.142 65.9557 132.562C66.2745 134.584 66.6632 136.613 67.114 138.61C67.2073 139.03 66.943 139.442 66.531 139.543C66.4766 139.559 66.4144 139.567 66.36 139.567ZM64.4242 127.292C64.0278 127.292 63.6857 126.988 63.6546 126.584C63.468 124.516 63.3437 122.409 63.297 120.326C63.2892 119.898 63.6235 119.541 64.0589 119.533C64.5253 119.525 64.844 119.86 64.8518 120.295C64.8985 122.339 65.0228 124.415 65.2094 126.452C65.2483 126.879 64.9296 127.26 64.502 127.299C64.4709 127.292 64.4476 127.292 64.4242 127.292ZM64.1133 114.869C64.1055 114.869 64.09 114.869 64.0822 114.869C63.6546 114.853 63.3203 114.488 63.3359 114.06C63.4214 111.969 63.5691 109.87 63.7868 107.81C63.8334 107.382 64.2066 107.064 64.6419 107.118C65.0695 107.165 65.3804 107.546 65.3338 107.973C65.1161 109.994 64.9684 112.062 64.8829 114.122C64.8751 114.542 64.5253 114.869 64.1133 114.869ZM65.4193 102.516C65.3727 102.516 65.326 102.516 65.2872 102.508C64.8674 102.438 64.5797 102.034 64.6575 101.606C65.0151 99.554 65.4426 97.4939 65.9324 95.4726C66.0335 95.0528 66.4533 94.7963 66.873 94.8974C67.2928 94.9984 67.5494 95.4182 67.4483 95.838C66.9663 97.8281 66.5465 99.8571 66.1967 101.871C66.119 102.252 65.7925 102.516 65.4193 102.516ZM68.3423 90.4351C68.2646 90.4351 68.1869 90.4273 68.1091 90.3962C67.6971 90.2641 67.4717 89.8287 67.6038 89.4245C68.2257 87.4343 68.9254 85.4442 69.6795 83.5007C69.8349 83.0965 70.2858 82.9021 70.6823 83.0576C71.0866 83.2131 71.2809 83.664 71.1254 84.0604C70.3869 85.9728 69.695 87.9319 69.0809 89.8909C68.9798 90.2252 68.6766 90.4351 68.3423 90.4351ZM72.8513 78.8441C72.7424 78.8441 72.6258 78.8208 72.5248 78.7741C72.1361 78.5953 71.9728 78.1289 72.1516 77.7402C73.0301 75.8589 73.9863 73.9776 74.9969 72.1507C75.2068 71.7776 75.6732 71.6376 76.0542 71.8475C76.4273 72.0574 76.5672 72.5316 76.3573 72.9048C75.3623 74.7083 74.4216 76.5585 73.5587 78.4088C73.4265 78.6731 73.1467 78.8441 72.8513 78.8441ZM78.8528 67.945C78.7051 67.945 78.5652 67.9061 78.433 67.8206C78.0754 67.5874 77.9666 67.1054 78.1998 66.7478C79.3192 64.9986 80.5164 63.2573 81.7525 61.5781C82.009 61.236 82.4988 61.1583 82.8409 61.4148C83.1829 61.6714 83.2607 62.1534 83.0041 62.5032C81.7914 64.1513 80.6097 65.8616 79.5058 67.5874C79.3581 67.8206 79.1093 67.945 78.8528 67.945ZM86.2381 57.9477C86.0593 57.9477 85.8805 57.8855 85.7406 57.7611C85.4141 57.4812 85.3752 56.9915 85.6473 56.6649C86.9922 55.0791 88.3993 53.5087 89.8452 52.0083C90.1407 51.6974 90.6382 51.6896 90.9414 51.985C91.2523 52.2804 91.2601 52.778 90.9647 53.0811C89.5421 54.5582 88.1505 56.0974 86.8367 57.66C86.6734 57.8466 86.4558 57.9477 86.2381 57.9477ZM94.8595 48.992C94.6496 48.992 94.4397 48.9065 94.2842 48.7355C93.9966 48.4168 94.0199 47.927 94.3386 47.6394C95.8701 46.24 97.4793 44.8796 99.1119 43.5736C99.4461 43.3093 99.9359 43.3637 100.2 43.698C100.465 44.0322 100.41 44.522 100.076 44.7941C98.4744 46.069 96.8885 47.4139 95.3803 48.7899C95.2326 48.9298 95.0461 48.992 94.8595 48.992ZM104.577 41.2569C104.328 41.2569 104.087 41.1403 103.94 40.9226C103.699 40.5728 103.784 40.0831 104.134 39.8421C105.836 38.6604 107.609 37.5099 109.397 36.4371C109.762 36.2194 110.244 36.336 110.462 36.7014C110.687 37.0668 110.563 37.5487 110.198 37.7664C108.441 38.8237 106.699 39.9509 105.02 41.1092C104.888 41.2103 104.732 41.2569 104.577 41.2569ZM115.22 34.8589C114.94 34.8589 114.668 34.7035 114.528 34.4392C114.333 34.0582 114.481 33.5918 114.862 33.3897C116.712 32.4335 118.617 31.5395 120.521 30.7154C120.918 30.5444 121.377 30.7232 121.54 31.1197C121.711 31.5161 121.532 31.967 121.136 32.1381C119.262 32.9466 117.396 33.8328 115.569 34.7734C115.461 34.8356 115.344 34.8589 115.22 34.8589ZM126.609 29.9302C126.29 29.9302 125.987 29.7359 125.878 29.4172C125.73 29.0129 125.948 28.5698 126.352 28.4221C128.311 27.7224 130.325 27.085 132.322 26.5175C132.734 26.3931 133.162 26.6419 133.279 27.0539C133.395 27.4659 133.154 27.8935 132.742 28.0101C130.775 28.5698 128.793 29.1995 126.873 29.8836C126.78 29.9147 126.694 29.9302 126.609 29.9302ZM138.565 26.5486C138.207 26.5486 137.881 26.2998 137.803 25.9344C137.718 25.5146 137.982 25.1026 138.402 25.0093C140.438 24.5818 142.514 24.2086 144.574 23.9132C145.002 23.851 145.391 24.1464 145.453 24.574C145.515 25.0015 145.219 25.3902 144.792 25.4524C142.763 25.7479 140.718 26.1055 138.72 26.533C138.674 26.5408 138.619 26.5486 138.565 26.5486ZM150.856 24.7761C150.451 24.7761 150.109 24.4651 150.078 24.0609C150.047 23.6333 150.366 23.2602 150.793 23.2291C152.861 23.0658 154.968 22.9725 157.052 22.9492H157.059C157.487 22.9492 157.829 23.2913 157.837 23.7188C157.844 24.1464 157.495 24.4962 157.067 24.504C155.015 24.5273 152.939 24.6206 150.91 24.7761C150.902 24.7761 150.879 24.7761 150.856 24.7761Z" fill="#FF7D44"/>
<path d="M69.8405 152.479C69.0476 152.479 68.309 151.989 68.0136 151.212C64.08 140.562 62.0898 129.359 62.0898 117.9C62.0898 92.2231 72.0872 68.0849 90.2473 49.9249C91.0092 49.1631 92.2375 49.1631 92.9993 49.9249C93.7612 50.6868 93.7612 51.915 92.9993 52.6769C75.5778 70.0984 65.9846 93.2648 65.9846 117.9C65.9846 128.893 67.897 139.644 71.6674 149.859C72.0406 150.862 71.5275 151.982 70.5169 152.355C70.2914 152.44 70.066 152.479 69.8405 152.479Z" fill="#FF7D44"/>
<path d="M247.016 83.9695C246.372 83.8622 245.797 83.4353 245.535 82.7848C237.74 63.5402 223.546 47.3195 205.555 37.0941C196.153 31.752 185.919 28.1315 175.153 26.3372C174.095 26.1608 173.379 25.1589 173.556 24.1007C173.732 23.0424 174.734 22.3267 175.792 22.5031C187.011 24.3727 197.676 28.1441 207.475 33.7099C226.222 44.3608 241.02 61.2653 249.137 81.3201C249.538 82.317 249.057 83.4506 248.061 83.8519C247.714 83.9912 247.354 84.0257 247.016 83.9695Z" fill="#FF7D44"/>
</svg>
